<svg xmlns="http://www.w3.org/2000/svg" viewBox="-0.5 -0.5 643 321" height="321" width="643">
    <path pointer-events="all" fill="#d4d4d4" d="M27.31.06L622.78.03l12.39.58 4.55 9.16-.02 9.47 1.84 253.91-2.57 9.03-6.7 5.07-10.46 1.36-594.49-.03-9.51-2.02-4.94-1.82-4.31-12.54.16-254.71 1.78-6.71 2.62-5.45 5.59-3.22 7.04-4.03"/>
    <path pointer-events="all" stroke-miterlimit="10" stroke-linecap="round" stroke-linejoin="round" stroke="#000" fill="none" d="M26.65.08C236.51 1.95 445.51 1.49 623.23.1M27.58-.21C239.02 2.1 450.03 1.8 622.82.32M622.6 0c10.71 1.3 17.74 6.46 18.41 17.41m-18.4-18.2c13.79 2.98 19.62 7.38 17.57 20.09m.32-3.43c-1.38 87.55-.13 174.19-.13 256.05m-.39-254.37c-.12 84.68.36 168.82-.28 255.61m.3-.56c-1.32 13.52-6.67 19.03-15.73 18.87M641 271.31c-.3 11.79-7.69 19.96-18.72 18.75m-.34-.72c-229.43 2.66-459.64 1.49-593.77.03m594.4.75c-225.17.98-450.58 1.42-595.2.02m.03-.14c-11.84 1.4-16.12-7.07-18.7-16.3m20.08 14.92c-13.68 1.75-18.49-6.6-20.59-15.2m1.14-.42c-.25-54.4.03-112.31.53-255.51M9.2 272.85c.2-67.49-.05-133.77.69-255.25m.11-.2C10.52 6.2 13.9 1.92 27.52-.8M10.63 16.68C8.9 7.83 14.59 1.21 26.13-.81"/>
    <path d="M0 0h110.58v60H0z" fill="none"/>
    <path d="M35.806 26.772c0 .162.08.351.324.486h.027c.324.162.135-.081.08.756a59.04 59.04 0 00-.242 3.078c-.135 2.484-.108 4.968-.081 7.452-.027 1.161-.081 2.16.35 3.24.136.351.46.513.81.513.433 0 .946-.297 1.08-.81.136-.351.055-.702.028-1.053 0-.216-.054-.891-.054-1.188a138.797 138.797 0 01-.216-4.563c2.51-.945 5.319-3.564 6.453-6.129a5.442 5.442 0 00.486-2.187c0-1.836-1.107-3.321-3.43-3.321-.161 0-.323 0-.512.027-1.431.135-2.727.783-3.726 1.836-.297.324-.567.648-.864.972-.243.243-.513.567-.513.891zm2.538-.351c.945-.891 2.24-1.782 3.618-1.377.864.324.837 1.431.62 2.16-.782 2.187-2.618 4.05-4.535 5.292.054-2.052.08-3.996.297-6.075zm12.652 5.778c-.405-2.349-1.269-3.132-2.349-3.132-1.539 0-3.537 1.647-5.292 2.754-.675.324-.432 2.052.756 1.674 1.431-.918 2.7-1.728 4.212-2.376.702.243.702 3.132.837 3.861-3.267-2.538-7.29 1.809-7.29 4.968 0 1.485.891 2.7 3.16 2.808 1.538-.135 2.942-.648 4.454-1.188.216.621 1.026.891 1.62.594.621-.27.594-.972.54-1.539.486-.135.702-.54.702-.945 0-.486-.27-.999-.81-1.107-.162-2.052-.27-4.617-.54-6.372zm-6.912 7.56c.621-3.564 4.32-4.806 5.103-.432-1.404.351-3.375 1.539-4.752.918-.027 0-.432-.27-.35-.486zm18.433-9.045c-.675-.999-1.836-1.431-3.024-1.431-.675 0-1.35.135-1.944.405-2.592 1.215-3.807 4.077-4.05 6.777-.027.243-.054.486-.054.729 0 4.212 4.293 6.777 7.29 2.916.135-.297.108 0 .08.135-.053 1.188.54 3.429-.62 4.185-1.188.378-2.403-.378-3.537-.783-.81-.27-1.242.351-1.242.972.054.945 1.134 1.269 1.809 1.674.756.378 1.7.648 2.592.648.918 0 1.809-.297 2.43-1.08.783-1.242.972-2.727.972-4.266 0-1.62-.216-3.294-.135-4.806-.054-1.755-.135-3.483-.162-5.238.054-.216-.162-.702-.405-.837zm-1.755.783c-.054 2.565-.46 5.697-2.241 7.776-1.54 1.458-2.97-.486-2.89-2.295 0-2.484 2.08-7.128 5.13-5.481zm11.918.756c0-.54-.109-1.107-.352-1.674-.675-.918-1.404-1.296-2.16-1.296-2.592.027-5.292 4.59-5.697 6.939a5.61 5.61 0 00-.216 1.458c0 2.619 1.917 4.644 4.401 4.644.324 0 .675-.054 1.053-.135 1.188-.189 3.888-1.674 2.322-2.943-.864-.351-1.62.621-2.484.729-1.566.513-3.132-.675-2.97-2.376 2.89.297 6.102-2.403 6.102-5.346zm-4.348 3.024c-.513.243-1.323.162-1.323.162.567-1.431 1.404-2.943 2.7-3.942.432-.297 1.215-.135 1.107.54-.108 1.458-1.215 2.646-2.484 3.24z" aria-label="Page" font-size="27" text-anchor="middle" font-weight="bold" font-family="SS Soapy Hands"/>
    <path pointer-events="all" fill="#e6e6e6" d="M127.51 41.42l482.2-1.17 5.34 5.55 1.41 8.54L615 241.58l-5.82 4.9-7.19 1.95-478.03 2.59-8.46-4.82.11-8.27-.24-184.3 4.6-8.64 8.02-3.25"/>
    <path pointer-events="all" stroke-miterlimit="10" stroke-linecap="round" stroke-linejoin="round" stroke="#000" fill="none" d="M126.95 39.75c150.37.41 302.01-.57 475.57-.21m-475.04.31c181.23 1.64 361.47 2.29 474.78.42m.14-.27c10.37-1.71 12.77 2.96 14.48 12.22M601 40.12c10.16-2.28 15.7 5.51 15.81 12.99m-.8-.86c-1.32 55.24-1.14 108.36-2.21 186.58m.72-186.93c-2.13 71.1-1.51 139.62.98 186.21m-.5-.71c1.55 6.45-5.87 12.89-12.48 12.48m12.82-11.17c-.76 5.27-6.18 11.23-14.14 10.74m.86 1.03c-125.8.87-254.03 1.13-474.2-.23m474.48-.06c-183.48-.79-366.98-1.05-474.8.04m.06-.23c-9.46-.75-13.45-5.31-12.11-11.06m13.39 11.33c-9.43-1.28-14.48-4.48-15.92-13.27m1.44 2.37c1.44-48.67 1.18-91.38 1.18-185.43m-1.2 183.84c-.81-38.15-1.38-73.63-.09-184.47m.71-.71c-.7-8.35 4.6-10.98 13.16-11.75m-12.39 11.72c-1.23-8.36 1.49-14.81 13.36-14.07"/>
    <path pointer-events="all" fill="#fff" d="M43.31 281.76l107.29-2.84.59 39.04-108.97.62-.17-36.31 2.85-3.59"/>
    <path pointer-events="all" stroke-miterlimit="10" stroke-linecap="round" stroke-linejoin="round" stroke="#000" fill="none" d="M44.15 278.78c22.35 1.59 47.96-1.45 103.37.07m-104.34 1.12c38.8 1.21 77.09.18 105.17-.89m.25.92c3.04 1.9 3.49 1.19 3.64 3.07m-5.38-5.04c2.13 2.93 5.49 3.06 6.19 5.92m-3.92.22c.13 8.35.21 19.92.03 31.57m1.71-33.8c.66 12.39 1.08 23.88-.62 34.76m.75.9c-.39 1.73-1.84 3.39-2.11 2.73m.37-3.48c1.59 2.26-.82 5 .03 4.87m-1.22-.34c-25.66-1.76-50.5 1.53-105.61-1.25m106.34.85c-35.92-1.11-69.52-1.32-105.24-1.86m-.16.88c-2.33.82-3.75.92-3-.93m1.09 1.15c1 .83-1.56 1.16 1.41-2.34m-1.99 1.48c-1-14.95 2.17-29.34 1.48-36.37m-1.77 34.35c-.13-8.84 1.24-19.53.73-35.54m-.35.6c1.09-3.5.35-3.13.45-4.2m.88 2.89c.58-1.28-.3.04-.94-2.39"/>
    <path d="M77.716 303.82c1.9-1.66 4.18-3.68 4.18-6.26v-.28c-.08-1.24-.82-2.56-2.26-2.64-.06 0-.1-.02-.16-.02-1.3.02-2.2 1-3.2 1.72-.2 0-.4.08-.42.3-.22.14-.2.36-.06.48-.14 1.8-.14 3.6-.14 5.4v.94c0 1.58.04 3.18.44 4.7.06.24.24.34.42.34.28 0 .58-.22.6-.56.04-1.04-.04-2.1-.12-3.14.18.1.38.26.48.34.34.22.68.46 1.02.68.66.44 1.3.8 2.08 1.04.36.1.82-.26.56-.6-.6-.84-1.66-1.24-2.5-1.82-.3-.22-.62-.44-.92-.62zm1.14-2.62c-.6.66-1.3 1.14-2.02 1.68 0-.14-.02-.28-.02-.44-.08-1.86-.2-3.68-.08-5.54.78-.54 1.6-1.24 2.56-1.28 1.24-.04 1.5 1.72 1.32 2.54-.22 1.1-1 2.2-1.76 3.04zm6.952-2.06c-2.34 0-3.12 2.58-3.12 4.5 0 .24.12.42.28.5-.08 1.68.18 3.42 1.66 4.22.36.2.72.28 1.06.28 2.16 0 3.6-3.42 3.6-5.38 0-2.12-1.18-4.12-3.48-4.12zm-1.12 7.76c-.98-1.1-.88-2.94-.68-4.4.22-1.08.72-2.16 1.8-2.16.2 0 .44.04.68.12 1.68.58 1.78 2.64 1.38 4.08-.24.88-1.18 2.84-2.28 2.84-.3 0-.6-.14-.9-.48zm11.582-6.8c.08-.66-.96-.76-1.12-.16-.34 1.26-.56 2.54-.82 3.82-.2.88-.46 3.2-1.54 3.38-.52.08-.6-.12-.86-.58-.16-.3-.28-.64-.38-.96-.18-.64-.28-1.32-.32-2-.08-1.32 0-2.68.18-4a.522.522 0 00-.52-.58c-.18 0-.34.1-.38.34-.18 1.38-.44 2.74-.44 4.12 0 .4.02.8.08 1.22.16 1.3.64 3.5 2.18 3.8.12.04.24.04.36.04 1.22 0 1.9-1.26 2.26-2.32.16.64.42 1.24.76 1.84.36.6 1.2.24 1.2-.34 0-.1-.02-.22-.08-.32-1.18-2.28-.84-4.86-.56-7.3zm4.497-1.7c.12-1 .28-2.02.46-3 .06-.32-.2-.54-.46-.54-.16 0-.32.1-.36.32-.24 1.12-.46 2.22-.62 3.32l-1.68.24c-.26.04-.38.22-.38.42 0 .3.26.64.66.58.4-.08.82-.1 1.22-.14-.22 1.7-.34 3.42-.3 5.18.02 1.2.14 2.66 1.22 3.42.26.2.54.28.8.28.62 0 1.12-.48 1.22-1.22.04-.36-.28-.58-.6-.58-.26 0-.5.14-.56.42 0 .06-.04.08-.06.08-.12 0-.38-.32-.4-.34-.14-.22-.22-.52-.28-.76-.1-.48-.12-.98-.14-1.48-.04-1.02-.04-2.06 0-3.08.04-.64.08-1.3.14-1.94.76 0 1.52.04 2.28.08.42.02.62-.28.62-.6 0-.32-.2-.66-.62-.68-.72-.06-1.44-.04-2.16.02zm8.033 2.86c0-.96-.52-2-1.58-2-.72 0-1.46.52-1.94.98-1.16 1.12-2.32 3.28-2.32 5.12 0 1.76 1.22 3.14 3.06 3.14.92 0 1.86-.38 2.52-1.12.28-.32.04-.84-.34-.84-.08 0-.16.02-.24.08-.58.34-1.28.64-1.92.64-.6 0-1.16-.26-1.54-.94-.22-.38-.28-.86-.22-1.36.2.06.4.08.62.08 1.78 0 3.9-1.94 3.9-3.78zm-1.88-.86c1.14-.18.92.86.72 1.44-.34 1.08-1.9 2.3-3.12 1.98.24-.88 1-2.26 1.66-2.86.18-.18.46-.5.74-.56zm3.902.54c-.02.02-.04.06-.04.08 0-.5.02-1.02.04-1.54.02-.34-.24-.5-.5-.52-.26 0-.54.18-.56.52-.1 1.68-.14 3.34-.14 5.02 0 1.16.02 2.3.06 3.46 0 .36.28.54.58.54.28 0 .56-.18.54-.54-.02-.52-.04-1.02-.04-1.54.02-1.26.56-6.08 2.2-6.08.22 0 .46.1.74.34.12.1.24.14.34.14.28 0 .52-.24.52-.52 0-.58-.98-1.06-1.48-1.06-.9 0-1.82.8-2.26 1.7z" aria-label="Router" font-size="20" text-anchor="middle" font-family="SS Soapy Hands"/>
    <path pointer-events="all" fill="#fff" d="M173.31 278.1l105.7 3.67 1.14 37.87-108.76.38.93-36.54.97-4.37"/>
    <path pointer-events="all" stroke-miterlimit="10" stroke-linecap="round" stroke-linejoin="round" stroke="#000" fill="none" d="M173.78 280.95c28.91-3.16 55.22-2.68 104.81.35m-105.79-1.43c36.92 1.48 73.16 1.43 104.86-.38m.94.51c1.52-1.83 4.02-.76 2.24 3.47m-1.17-2.74c-.7-.86.13-.76-.86 1.52m4.15-.48c-.12 15.46-1.34 28.8-2.09 35.79m-.06-34.58c-.48 8.48.01 18.29.3 35.35m-.11-.73c1.79.32-1.05 2.67-1.63 4.25m3.12-4.35c-1.13 2.4-2.37 4.58-5 4.21m2-1.29c-42.42-.44-82-.48-107.5.2m107.33-1.61c-26.62 1.25-51.32 1.66-105.39.03m-.53.96c.37-.1-2.68-.8-3.77-4.06m4.21 3.65c-.82-.61-4.68-1.81-3.6-1.32m1.33-.3c-2.08-9.58-1.11-16.84-1.45-34.6m.69 33.65c.89-10.31.83-21.46-.12-34.17m.31-.45c.84-3.42 2.52-3.11 2.41-2.59m-2.51 3.22c1-1.53 3-2.41 3.43-3.97"/>
    <path d="M186.209 305.24c-.24-1.1-.46-2.22-.7-3.32-.48-2.14-.92-4.3-1.5-6.42.02-.26-.2-.4-.44-.4-.22 0-.44.1-.52.32-.72 2.08-1.34 4.22-1.84 6.36-.46 2.1-1 4.28-1.08 6.42v.02c0 .22.2.32.4.32.18 0 .36-.08.42-.26.28-.98.54-1.48.76-2.48 1.14-.14 2.06-.34 3.18-.52 0 .04 0 .06.02.1.12.54.22 1 .34 1.56.12.5.34 1.08.7 1.48.16.16.64.06.7-.14.04-.14.06-.28.06-.42 0-.36-.1-.72-.18-1.04-.1-.54-.22-1.06-.32-1.58zm-3.66-3.34c.38-1.54.56-2.64.96-4.18.26 1.6.32 2.36.64 3.96.18.8.38 1.86.52 2.7-1.06.04-1.66.06-2.7.26.2-.96.36-1.8.58-2.74zm7.423 5.3c-1.36-.14-1.28-2.26-1.08-3.22.2-.94.56-1.88 1.02-2.72.24-.42.52-1.04.94-1.3.86-.54 1.2.46 1.3 1.12.1.64 1.02.42 1.02-.18v-.08c-.16-1.1-.88-2.22-1.92-2.22-.28 0-.6.1-.94.32-1.42.9-2.3 3.16-2.64 4.74-.1.44-.16.94-.16 1.44 0 1.24.38 2.54 1.5 3.14.3.18.64.26.96.26 1.1 0 2.22-.82 2.9-1.58.5-.6-.36-1.48-.88-.88-.46.52-1.28 1.24-2.02 1.16zm6.868-8.8c.12-1 .28-2.02.46-3 .06-.32-.2-.54-.46-.54-.16 0-.32.1-.36.32-.24 1.12-.46 2.22-.62 3.32l-1.68.24c-.26.04-.38.22-.38.42 0 .3.26.64.66.58.4-.08.82-.1 1.22-.14-.22 1.7-.34 3.42-.3 5.18.02 1.2.14 2.66 1.22 3.42.26.2.54.28.8.28.62 0 1.12-.48 1.22-1.22.04-.36-.28-.58-.6-.58-.26 0-.5.14-.56.42 0 .06-.04.08-.06.08-.12 0-.38-.32-.4-.34-.14-.22-.22-.52-.28-.76-.1-.48-.12-.98-.14-1.48-.04-1.02-.04-2.06 0-3.08.04-.64.08-1.3.14-1.94.76 0 1.52.04 2.28.08.42.02.62-.28.62-.6 0-.32-.2-.66-.62-.68-.72-.06-1.44-.04-2.16.02zm3.745 1.2c-.16 1.54-.28 3.14-.28 4.72 0 1.28.08 2.54.28 3.78.06.26.28.4.5.4.3 0 .6-.2.6-.56-.04-2.8-.26-5.54-.06-8.34.04-.66-.96-.64-1.04 0zm1.04-3.54c-.06-.04-.1-.08-.14-.12a.827.827 0 00-.38-.1h-.02c-.08 0-.18.02-.26.06-.08.04-.16.08-.24.16a.48.48 0 00-.14.24c-.04.08-.06.18-.06.28 0 .06.02.12.02.18.04.14.1.24.18.34.06.02.1.06.16.1.1.08.24.1.36.1.1 0 .2-.02.28-.06.1-.02.18-.08.24-.14a.75.75 0 00.14-.24c.06-.08.08-.16.08-.26v-.02c-.02-.06-.02-.14-.04-.2-.02-.12-.1-.22-.18-.32zm4.296 9.54c-.6-2.04-1.28-4.06-1.98-6.04-.2-.56-1-.4-1 .1 0 .04.02.1.02.16.8 2.74 1.58 5.48 2.36 8.22.08.3.34.44.6.46.26 0 .52-.16.58-.46.66-2.78 1.68-5.42 2.84-8.02.04-.08.06-.18.06-.26 0-.38-.34-.66-.66-.66-.16 0-.34.1-.44.32-.98 1.98-1.74 4.06-2.38 6.18zm9.929-2.18c-.08-1.16-.14-2.56-.68-3.6-.28-.52-.64-.76-1.04-.76-.88 0-3.16 1.54-3.84 2.04-.4.32-.16.92.24.92.08 0 .16-.02.26-.08.7-.52 1.44-.96 2.24-1.32.2-.1.6-.4.84-.4.52 0 .58 1.08.64 1.48.1.68.16 1.36.2 2.06-.46-.46-1.1-.82-1.78-.82-1.92 0-3.64 2.12-3.64 3.98 0 1.26.8 1.92 1.98 1.92.94 0 2.66-.58 3.58-.94.02.4.36.6.68.6.5 0 .6-.34.6-.76l-.02-.26v-.14l.26-.12c.2-.1.28-.28.28-.46 0-.34-.26-.68-.6-.62a7.75 7.75 0 01-.04-.68l-.12-1.36c0-.22-.02-.46-.04-.68zm-4.98 3.94c-.48-.3-.38-.48-.26-.98.22-1.02 1.18-2.18 2.28-2.18 1.12 0 1.68 1.54 1.82 2.44-.58.22-2.58.9-3.18.9-.22 0-.44-.04-.66-.18zm8.94-8.96c.12-1 .28-2.02.46-3 .06-.32-.2-.54-.46-.54-.16 0-.32.1-.36.32-.24 1.12-.46 2.22-.62 3.32l-1.68.24c-.26.04-.38.22-.38.42 0 .3.26.64.66.58.4-.08.82-.1 1.22-.14-.22 1.7-.34 3.42-.3 5.18.02 1.2.14 2.66 1.22 3.42.26.2.54.28.8.28.62 0 1.12-.48 1.22-1.22.04-.36-.28-.58-.6-.58-.26 0-.5.14-.56.42 0 .06-.04.08-.06.08-.12 0-.38-.32-.4-.34-.14-.22-.22-.52-.28-.76-.1-.48-.12-.98-.14-1.48-.04-1.02-.04-2.06 0-3.08.04-.64.08-1.3.14-1.94.76 0 1.52.04 2.28.08.42.02.62-.28.62-.6 0-.32-.2-.66-.62-.68-.72-.06-1.44-.04-2.16.02zm8.034 2.86c0-.96-.52-2-1.58-2-.72 0-1.46.52-1.94.98-1.16 1.12-2.32 3.28-2.32 5.12 0 1.76 1.22 3.14 3.06 3.14.92 0 1.86-.38 2.52-1.12.28-.32.04-.84-.34-.84-.08 0-.16.02-.24.08-.58.34-1.28.64-1.92.64-.6 0-1.16-.26-1.54-.94-.22-.38-.28-.86-.22-1.36.2.06.4.08.62.08 1.78 0 3.9-1.94 3.9-3.78zm-1.88-.86c1.14-.18.92.86.72 1.44-.34 1.08-1.9 2.3-3.12 1.98.24-.88 1-2.26 1.66-2.86.18-.18.46-.5.74-.56zm8.461-.8c-3-1.12-5.8 2.68-5.8 5.84 0 .72.16 1.42.48 2 1.04 1.9 2.96.9 4.08-.36.24-.24.44-.5.64-.78-.04.72-.04 1.44.18 2.06.08.24.28.36.48.36.2 0 .42-.14.5-.36.38-.94.22-2.18.26-3.18l.12-3.24c.08-2.2.2-4.4.44-6.6v-.04c0-.26-.2-.38-.4-.38-.22 0-.46.14-.48.42-.16 1.42-.34 2.84-.5 4.26zm-4.54 6.64c-.6-2.4 1.48-6.34 4.26-5.38.04.02.08.02.12.02-.04.28-.06.56-.1.86v.02c0 .06 0 .12-.02.18-.06.58-.1 1.16-.14 1.72-.16.56-.44 1.08-.78 1.6-.42.64-.92 1.28-1.56 1.74-.86.62-1.52.22-1.78-.76zm9.101-2.42c1.9-1.66 4.18-3.68 4.18-6.26v-.28c-.08-1.24-.82-2.56-2.26-2.64-.06 0-.1-.02-.16-.02-1.3.02-2.2 1-3.2 1.72-.2 0-.4.08-.42.3-.22.14-.2.36-.06.48-.14 1.8-.14 3.6-.14 5.4v.94c0 1.58.04 3.18.44 4.7.06.24.24.34.42.34.28 0 .58-.22.6-.56.04-1.04-.04-2.1-.12-3.14.18.1.38.26.48.34.34.22.68.46 1.02.68.66.44 1.3.8 2.08 1.04.36.1.82-.26.56-.6-.6-.84-1.66-1.24-2.5-1.82-.3-.22-.62-.44-.92-.62zm1.14-2.62c-.6.66-1.3 1.14-2.02 1.68 0-.14-.02-.28-.02-.44-.08-1.86-.2-3.68-.08-5.54.78-.54 1.6-1.24 2.56-1.28 1.24-.04 1.5 1.72 1.32 2.54-.22 1.1-1 2.2-1.76 3.04zm6.951-2.06c-2.34 0-3.12 2.58-3.12 4.5 0 .24.12.42.28.5-.08 1.68.18 3.42 1.66 4.22.36.2.72.28 1.06.28 2.16 0 3.6-3.42 3.6-5.38 0-2.12-1.18-4.12-3.48-4.12zm-1.12 7.76c-.98-1.1-.88-2.94-.68-4.4.22-1.08.72-2.16 1.8-2.16.2 0 .44.04.68.12 1.68.58 1.78 2.64 1.38 4.08-.24.88-1.18 2.84-2.28 2.84-.3 0-.6-.14-.9-.48zm11.583-6.8c.08-.66-.96-.76-1.12-.16-.34 1.26-.56 2.54-.82 3.82-.2.88-.46 3.2-1.54 3.38-.52.08-.6-.12-.86-.58-.16-.3-.28-.64-.38-.96-.18-.64-.28-1.32-.32-2-.08-1.32 0-2.68.18-4a.522.522 0 00-.52-.58c-.18 0-.34.1-.38.34-.18 1.38-.44 2.74-.44 4.12 0 .4.02.8.08 1.22.16 1.3.64 3.5 2.18 3.8.12.04.24.04.36.04 1.22 0 1.9-1.26 2.26-2.32.16.64.42 1.24.76 1.84.36.6 1.2.24 1.2-.34 0-.1-.02-.22-.08-.32-1.18-2.28-.84-4.86-.56-7.3zm4.496-1.7c.12-1 .28-2.02.46-3 .06-.32-.2-.54-.46-.54-.16 0-.32.1-.36.32-.24 1.12-.46 2.22-.62 3.32l-1.68.24c-.26.04-.38.22-.38.42 0 .3.26.64.66.58.4-.08.82-.1 1.22-.14-.22 1.7-.34 3.42-.3 5.18.02 1.2.14 2.66 1.22 3.42.26.2.54.28.8.28.62 0 1.12-.48 1.22-1.22.04-.36-.28-.58-.6-.58-.26 0-.5.14-.56.42 0 .06-.04.08-.06.08-.12 0-.38-.32-.4-.34-.14-.22-.22-.52-.28-.76-.1-.48-.12-.98-.14-1.48-.04-1.02-.04-2.06 0-3.08.04-.64.08-1.3.14-1.94.76 0 1.52.04 2.28.08.42.02.62-.28.62-.6 0-.32-.2-.66-.62-.68-.72-.06-1.44-.04-2.16.02zm8.034 2.86c0-.96-.52-2-1.58-2-.72 0-1.46.52-1.94.98-1.16 1.12-2.32 3.28-2.32 5.12 0 1.76 1.22 3.14 3.06 3.14.92 0 1.86-.38 2.52-1.12.28-.32.04-.84-.34-.84-.08 0-.16.02-.24.08-.58.34-1.28.64-1.92.64-.6 0-1.16-.26-1.54-.94-.22-.38-.28-.86-.22-1.36.2.06.4.08.62.08 1.78 0 3.9-1.94 3.9-3.78zm-1.88-.86c1.14-.18.92.86.72 1.44-.34 1.08-1.9 2.3-3.12 1.98.24-.88 1-2.26 1.66-2.86.18-.18.46-.5.74-.56z" aria-label="ActivatedRoute" font-size="20" text-anchor="middle" font-family="SS Soapy Hands"/>
    <path pointer-events="all" fill="#fff" d="M303.31 278.44l108.1 2.19-2.29 40.69-108.57-3.86 2.04-36.77-.91-1.15"/>
    <path pointer-events="all" stroke-miterlimit="10" stroke-linecap="round" stroke-linejoin="round" stroke="#000" fill="none" d="M303.4 279.13c31.47.09 62.5.08 106.27.63m-107.26.01c35.05-.36 67.24-1.41 106.57.13m-.38.1c.01-1.55.55 1.3.83 3.88m-.95-4.44c.46-.66 3.38-.58.69 1.11m3.63 2.81c-.39 7.54-2.89 19.6-.22 36.02m-1.84-37.36c.39 13.62.94 26.79 1.23 35.95m-.97-.37c-.03 2.91-.25 1.94-1.16 1.78m1.88-1.22c.16 2.54.08-.45-1.42 3.55m-3.38-2.24c-34.16-1.02-71.43-.4-105.4 1.64m106.33-2.07c-36.36 1.5-75.22.53-103.55 1.92m-.9-.96c-.92-1.01-1.6-2.52-.53-3.18m-.69 2.13c1.36 2.56.81-.18-.01-.28m.06-2.09c-3.15-11.26-.39-22.42-.37-32.83m-.85 32.95c.6-9.79 1.11-23.38-.99-34.81m.98.51c.6-3.33.7-3.09 4.37-.97m-5.9-.46c1.42-2.39 1.69-.86 3.2-1.56"/>
    <path d="M337.453 295.8c1.14-.34 2.08.16 2.44 1.2.1.32.94.18.96-.14 0-.02 0-.04-.02-.06-.44-1.26-1.5-1.98-2.84-1.98-.26 0-.52.02-.8.08-1.64.34-2.98 1.56-2.78 3.12.2 1.66 1.68 2.94 2.8 4.16 1 1.08 2.86 3.04 1.78 4.52-.44.62-1.38.8-2.14.6-.8-.24-1.28-.9-1.72-1.5-.24-.36-1-.08-1.02.3 0 .02.02.04.02.08.38 1.24 1.56 2.14 3 2.3.14.02.28.02.4.02 1.5 0 2.9-.88 3.1-2.28.24-1.66-.92-3.1-2.02-4.32-1.1-1.18-2.96-2.56-2.98-4.22-.02-.98.84-1.6 1.82-1.88zm10.039 5.46c0-.96-.52-2-1.58-2-.72 0-1.46.52-1.94.98-1.16 1.12-2.32 3.28-2.32 5.12 0 1.76 1.22 3.14 3.06 3.14.92 0 1.86-.38 2.52-1.12.28-.32.04-.84-.34-.84-.08 0-.16.02-.24.08-.58.34-1.28.64-1.92.64-.6 0-1.16-.26-1.54-.94-.22-.38-.28-.86-.22-1.36.2.06.4.08.62.08 1.78 0 3.9-1.94 3.9-3.78zm-1.88-.86c1.14-.18.92.86.72 1.44-.34 1.08-1.9 2.3-3.12 1.98.24-.88 1-2.26 1.66-2.86.18-.18.46-.5.74-.56zm3.901.54c-.02.02-.04.06-.04.08 0-.5.02-1.02.04-1.54.02-.34-.24-.5-.5-.52-.26 0-.54.18-.56.52-.1 1.68-.14 3.34-.14 5.02 0 1.16.02 2.3.06 3.46 0 .36.28.54.58.54.28 0 .56-.18.54-.54-.02-.52-.04-1.02-.04-1.54.02-1.26.56-6.08 2.2-6.08.22 0 .46.1.74.34.12.1.24.14.34.14.28 0 .52-.24.52-.52 0-.58-.98-1.06-1.48-1.06-.9 0-1.82.8-2.26 1.7zm7.502 4.66c-.6-2.04-1.28-4.06-1.98-6.04-.2-.56-1-.4-1 .1 0 .04.02.1.02.16.8 2.74 1.58 5.48 2.36 8.22.08.3.34.44.6.46.26 0 .52-.16.58-.46.66-2.78 1.68-5.42 2.84-8.02.04-.08.06-.18.06-.26 0-.38-.34-.66-.66-.66-.16 0-.34.1-.44.32-.98 1.98-1.74 4.06-2.38 6.18zm4.585-6c-.16 1.54-.28 3.14-.28 4.72 0 1.28.08 2.54.28 3.78.06.26.28.4.5.4.3 0 .6-.2.6-.56-.04-2.8-.26-5.54-.06-8.34.04-.66-.96-.64-1.04 0zm1.04-3.54c-.06-.04-.1-.08-.14-.12a.827.827 0 00-.38-.1h-.02c-.08 0-.18.02-.26.06-.08.04-.16.08-.24.16a.48.48 0 00-.14.24c-.04.08-.06.18-.06.28 0 .06.02.12.02.18.04.14.1.24.18.34.06.02.1.06.16.1.1.08.24.1.36.1.1 0 .2-.02.28-.06.1-.02.18-.08.24-.14a.75.75 0 00.14-.24c.06-.08.08-.16.08-.26v-.02c-.02-.06-.02-.14-.04-.2-.02-.12-.1-.22-.18-.32zm3.777 11.14c-1.36-.14-1.28-2.26-1.08-3.22.2-.94.56-1.88 1.02-2.72.24-.42.52-1.04.94-1.3.86-.54 1.2.46 1.3 1.12.1.64 1.02.42 1.02-.18v-.08c-.16-1.1-.88-2.22-1.92-2.22-.28 0-.6.1-.94.32-1.42.9-2.3 3.16-2.64 4.74-.1.44-.16.94-.16 1.44 0 1.24.38 2.54 1.5 3.14.3.18.64.26.96.26 1.1 0 2.22-.82 2.9-1.58.5-.6-.36-1.48-.88-.88-.46.52-1.28 1.24-2.02 1.16zm9.669-5.94c0-.96-.52-2-1.58-2-.72 0-1.46.52-1.94.98-1.16 1.12-2.32 3.28-2.32 5.12 0 1.76 1.22 3.14 3.06 3.14.92 0 1.86-.38 2.52-1.12.28-.32.04-.84-.34-.84-.08 0-.16.02-.24.08-.58.34-1.28.64-1.92.64-.6 0-1.16-.26-1.54-.94-.22-.38-.28-.86-.22-1.36.2.06.4.08.62.08 1.78 0 3.9-1.94 3.9-3.78zm-1.88-.86c1.14-.18.92.86.72 1.44-.34 1.08-1.9 2.3-3.12 1.98.24-.88 1-2.26 1.66-2.86.18-.18.46-.5.74-.56z" aria-label="Service" font-size="20" text-anchor="middle" font-family="SS Soapy Hands"/>
    <path d="M115 40h110.58v60H115z" fill="none"/>
    <path d="M145.17 63.181c-.702 0-1.377.135-2.106.189-1.161.108-2.295.351-3.429.594-.513.027-1.107.54-.918 1.107-.324 3.483-.594 6.831-.567 10.341.054 1.026 0 2.052 0 3.051 0 1.107.081 2.214.459 3.267.081.297.459.54.864.54.189 0 .378-.027.54-.135.648-.378.675-1.161.702-1.836-.108-2.916-.297-5.778-.243-8.694a12.933 12.933 0 012.484-.432c.702-.108 1.458.054 2.133-.189.486-.135.837-.864.567-1.296-.486-.81-1.566-.675-2.349-.621a12.77 12.77 0 00-2.835.513c0-1.296.054-2.754.135-4.077 1.188-.162 2.457-.297 3.672-.297.567.027 1.188.108 1.728-.162.378-.216.54-.54.54-.864 0-.432-.351-.891-.918-.972-.162 0-.297 0-.459-.027zm8.047 9.072c0-.54-.108-1.107-.35-1.674-.676-.918-1.405-1.296-2.16-1.296-2.593.027-5.293 4.59-5.698 6.939a5.61 5.61 0 00-.216 1.458c0 2.619 1.917 4.644 4.401 4.644.324 0 .675-.054 1.053-.135 1.188-.189 3.888-1.674 2.322-2.943-.864-.351-1.62.621-2.484.729-1.566.513-3.132-.675-2.97-2.376 2.89.297 6.102-2.403 6.102-5.346zm-4.347 3.024c-.513.243-1.323.162-1.323.162.567-1.431 1.404-2.943 2.7-3.942.432-.297 1.215-.135 1.107.54-.108 1.458-1.215 2.646-2.484 3.24zm14.568-3.078c-.405-2.349-1.269-3.132-2.349-3.132-1.539 0-3.537 1.647-5.292 2.754-.675.324-.432 2.052.756 1.674 1.431-.918 2.7-1.728 4.212-2.376.702.243.702 3.132.837 3.861-3.267-2.538-7.29 1.809-7.29 4.968 0 1.485.891 2.7 3.16 2.808 1.538-.135 2.942-.648 4.454-1.188.216.621 1.026.891 1.62.594.621-.27.594-.972.54-1.539.486-.135.702-.54.702-.945 0-.486-.27-.999-.81-1.107-.162-2.052-.27-4.617-.54-6.372zm-6.912 7.56c.621-3.564 4.32-4.806 5.103-.432-1.404.351-3.375 1.539-4.752.918-.027 0-.432-.27-.35-.486zm13.163-11.61a42.39 42.39 0 01.459-3.159c.243-.729.08-1.62-.756-1.593h-.162c-.594.135-.621.702-.73 1.215a149.719 149.719 0 00-.701 3.699c-.27.054-.702.108-1.026.162-.648.108-1.674.027-1.755.891.08 1.593 1.43 1.026 2.484.972-.243 2.997-1.35 9.666 1.377 11.556.216.216.729.378 1.242.378.486 0 .999-.135 1.296-.513.513-.648 1.08-1.674.08-2.295-.512-.243-1.214-.108-1.457.432-1.323-1.539-.675-7.452-.594-9.612.405 0 .999.027 1.43.054.892-.108 1.837.513 2.458-.621.027-.135.054-.27.054-.405 0-.594-.432-1.161-1.08-1.188a16.929 16.929 0 00-2.62.027zm12.143 1.566c-.81.243-.837 1.188-1 1.89-.296 1.323-.54 2.646-.81 3.969-.35 1.242-.377 3.78-1.862 4.347-.675.162-.756-.486-1-.918-.89-2.079-.89-4.32-.782-6.507-.108-.972.648-2.754-.19-3.348-.242-.135-.431-.189-.593-.189-.81 0-.837 1.404-.945 2.16-.216 1.377-.351 2.754-.351 4.131 0 .567 0 1.134.08 1.674 0 .891.892 4.671 2.512 5.157.432.189.81.27 1.188.27 1.43 0 2.457-1.269 3.024-2.565.378.891.702 2.457 1.944 2.322.567-.108.999-.621.999-1.161 0-.189-.054-.378-.135-.54-2.781-5.292 1.026-11.313-2.08-10.692zm5.41 1.188c0-.351.027-.702.027-1.053.054-.621-.459-.972-.972-.972a.992.992 0 00-.972.702c-.135 1.215-.08 1.755-.162 2.916a227.588 227.588 0 00-.054 4.293c0 .945 0 1.917.027 2.862.027.783-.27 2.187.73 2.565.107.054.242.054.35.054.486 0 .972-.297 1.026-.783.027-.459-.027-.891-.027-1.35-.189-1.512.594-9.423 2.997-8.829.486.27.918.837 1.54.54a1.05 1.05 0 00.566-.918.901.901 0 00-.243-.621c-1.16-1.539-3.402-1.377-4.833.594zm13.12 1.35c0-.54-.108-1.107-.351-1.674-.675-.918-1.404-1.296-2.16-1.296-2.592.027-5.292 4.59-5.697 6.939a5.61 5.61 0 00-.216 1.458c0 2.619 1.917 4.644 4.4 4.644.325 0 .676-.054 1.054-.135 1.188-.189 3.888-1.674 2.322-2.943-.864-.351-1.62.621-2.484.729-1.566.513-3.132-.675-2.97-2.376 2.889.297 6.102-2.403 6.102-5.346zm-4.347 3.024c-.513.243-1.323.162-1.323.162.567-1.431 1.404-2.943 2.7-3.942.432-.297 1.215-.135 1.107.54-.108 1.458-1.215 2.646-2.484 3.24z" aria-label="Feature" font-size="27" text-anchor="middle" font-weight="bold" font-family="SS Soapy Hands"/>
    <path pointer-events="all" fill="#fff" d="M295.88 48.16l120.23-.06 1.98 2.76 2.76 4.46-1.07 68.89-2.56 6.04-.13 1.33-121.53-1.67-2.74-2.02-1.09-3.41-2.07-68.14 3.41-5.94 3.12.85"/>
    <path pointer-events="all" stroke-miterlimit="10" stroke-linecap="round" stroke-linejoin="round" stroke="#000" fill="none" d="M295.77 50.87c41.73-1.46 81.5.42 121.31-2.03m-121.83 1.91c41.46-.86 82.47-1.18 120.52-.98m-.57.23c4.29-.61 4.89-.36 5.64 4.9m-5.12-6.55c1.52 3.42 5.18 2.79 4.59 6m.81-.77c-.24 26.94-1.4 47.51-2.54 70.4m1.68-69.91c-1.68 16.62-.72 33.58-.16 71.44m-.1-.31c1.63 2.71-.83 4.26-4.17 2.9m3.57-3.93c-.25 5.33 1.06 5.61-2.71 6.78m-3.18-1.24c-32.51-.84-67.82-.13-118.52-.27m121-.01c-31.98 1.13-61.64 2.21-121.58-.31m.39.88c-2.6-1.34-5.55-3.44-4.39-4.07m3.25 4.51c.18-2.36-2.21-3.74-4.11-3.77m-.94.31c1.97-16.49-.53-31.45.4-71.97m.33 70.14c.06-20.29 1.01-40.21 1.21-71.3m-.55.95c-1.93-2.83 1.28-5.76 5.96-3.72m-5.81 3.8c1.55-2.35 3.43-4.54 2.98-2.92"/>
    <path d="M334.19 84.74c-.16 0-.32.02-.46.04-.18 0-.38.02-.58.04-.36.02-.7.06-1.06.12-.7.08-1.38.24-2.06.4a.47.47 0 00-.34.12c-.12.1-.2.22-.18.38 0 .02.02.04.02.06-.18 2.02-.38 4.02-.4 6.06-.02.54-.02 1.06-.02 1.6v1.4c.02 1.02-.1 2.3.32 3.24.08.2.24.28.42.3.26 0 .56-.18.62-.44.28-.92.06-2.1.02-3.06-.04-1.02-.06-2.06-.06-3.08-.02-.44-.02-.86-.02-1.3.5-.14 1.02-.26 1.54-.32.3-.02.62-.06.92-.08h.42c.22 0 .46 0 .68-.1.2-.06.36-.24.36-.46 0-.24-.14-.38-.34-.48-.38-.16-.86-.1-1.26-.06-.34.02-.66.06-1 .1-.44.08-.88.2-1.3.32 0-1.14.02-2.3.1-3.44.56-.1 1.1-.16 1.66-.2l1.02-.06c.38 0 .82.06 1.2-.02h-.02c.24-.04.44-.18.52-.4 0-.06.02-.1.02-.16 0-.28-.26-.44-.52-.5-.08-.02-.16-.02-.22-.02zm7.233 5.36c.08-.66-.96-.76-1.12-.16-.34 1.26-.56 2.54-.82 3.82-.2.88-.46 3.2-1.54 3.38-.52.08-.6-.12-.86-.58-.16-.3-.28-.64-.38-.96-.18-.64-.28-1.32-.32-2-.08-1.32 0-2.68.18-4a.522.522 0 00-.52-.58c-.18 0-.34.1-.38.34-.18 1.38-.44 2.74-.44 4.12 0 .4.02.8.08 1.22.16 1.3.64 3.5 2.18 3.8.12.04.24.04.36.04 1.22 0 1.9-1.26 2.26-2.32.16.64.42 1.24.76 1.84.36.6 1.2.24 1.2-.34 0-.1-.02-.22-.08-.32-1.18-2.28-.84-4.86-.56-7.3zm4.856-.74c-1.34.08-2.08 2.08-2.34 3.18-.02.04-.02.08-.04.14-.06-.7-.1-1.38-.12-2.06 0-.3-.22-.44-.44-.44-.24 0-.46.14-.46.44.04 2.56.32 5.02.98 7.52.08.26.28.38.48.38.3 0 .62-.26.58-.68-.2-1.3-.24-2.62-.1-3.92.1-.86.48-3.3 1.58-3.32 2.1-.08 1.4 6.36 1.54 7.64.02.32.32.52.58.52.2 0 .38-.12.44-.38.16-.74.22-1.52.22-2.32 0-1.22-.14-2.48-.32-3.62-.18-1.42-.94-3.08-2.58-3.08zm6.169 7.84c-1.36-.14-1.28-2.26-1.08-3.22.2-.94.56-1.88 1.02-2.72.24-.42.52-1.04.94-1.3.86-.54 1.2.46 1.3 1.12.1.64 1.02.42 1.02-.18v-.08c-.16-1.1-.88-2.22-1.92-2.22-.28 0-.6.1-.94.32-1.42.9-2.3 3.16-2.64 4.74-.1.44-.16.94-.16 1.44 0 1.24.38 2.54 1.5 3.14.3.18.64.26.96.26 1.1 0 2.22-.82 2.9-1.58.5-.6-.36-1.48-.88-.88-.46.52-1.28 1.24-2.02 1.16zm6.869-8.8c.12-1 .28-2.02.46-3 .06-.32-.2-.54-.46-.54-.16 0-.32.1-.36.32-.24 1.12-.46 2.22-.62 3.32l-1.68.24c-.26.04-.38.22-.38.42 0 .3.26.64.66.58.4-.08.82-.1 1.22-.14-.22 1.7-.34 3.42-.3 5.18.02 1.2.14 2.66 1.22 3.42.26.2.54.28.8.28.62 0 1.12-.48 1.22-1.22.04-.36-.28-.58-.6-.58-.26 0-.5.14-.56.42 0 .06-.04.08-.06.08-.12 0-.38-.32-.4-.34-.14-.22-.22-.52-.28-.76-.1-.48-.12-.98-.14-1.48-.04-1.02-.04-2.06 0-3.08.04-.64.08-1.3.14-1.94.76 0 1.52.04 2.28.08.42.02.62-.28.62-.6 0-.32-.2-.66-.62-.68-.72-.06-1.44-.04-2.16.02zm3.745 1.2c-.16 1.54-.28 3.14-.28 4.72 0 1.28.08 2.54.28 3.78.06.26.28.4.5.4.3 0 .6-.2.6-.56-.04-2.8-.26-5.54-.06-8.34.04-.66-.96-.64-1.04 0zm1.04-3.54c-.06-.04-.1-.08-.14-.12a.827.827 0 00-.38-.1h-.02c-.08 0-.18.02-.26.06-.08.04-.16.08-.24.16a.48.48 0 00-.14.24c-.04.08-.06.18-.06.28 0 .06.02.12.02.18.04.14.1.24.18.34.06.02.1.06.16.1.1.08.24.1.36.1.1 0 .2-.02.28-.06.1-.02.18-.08.24-.14a.75.75 0 00.14-.24c.06-.08.08-.16.08-.26v-.02c-.02-.06-.02-.14-.04-.2-.02-.12-.1-.22-.18-.32zm4.436 3.08c-2.34 0-3.12 2.58-3.12 4.5 0 .24.12.42.28.5-.08 1.68.18 3.42 1.66 4.22.36.2.72.28 1.06.28 2.16 0 3.6-3.42 3.6-5.38 0-2.12-1.18-4.12-3.48-4.12zm-1.12 7.76c-.98-1.1-.88-2.94-.68-4.4.22-1.08.72-2.16 1.8-2.16.2 0 .44.04.68.12 1.68.58 1.78 2.64 1.38 4.08-.24.88-1.18 2.84-2.28 2.84-.3 0-.6-.14-.9-.48zm8.782-7.54c-1.34.08-2.08 2.08-2.34 3.18-.02.04-.02.08-.04.14-.06-.7-.1-1.38-.12-2.06 0-.3-.22-.44-.44-.44-.24 0-.46.14-.46.44.04 2.56.32 5.02.98 7.52.08.26.28.38.48.38.3 0 .62-.26.58-.68-.2-1.3-.24-2.62-.1-3.92.1-.86.48-3.3 1.58-3.32 2.1-.08 1.4 6.36 1.54 7.64.02.32.32.52.58.52.2 0 .38-.12.44-.38.16-.74.22-1.52.22-2.32 0-1.22-.14-2.48-.32-3.62-.18-1.42-.94-3.08-2.58-3.08z" aria-label="Function" font-size="20" text-anchor="middle" font-family="SS Soapy Hands"/>
    <path pointer-events="all" fill="#fff" d="M295.88 138.5l118.63 2.46 2.54 1.58 2.97 4.22.03 68.65-.44 5.26-4.97-.22-118.38-2.01-4.56-.92-1.79-.56.59-71.12-1.08-4.36 5.22-.7"/>
    <path pointer-events="all" stroke-miterlimit="10" stroke-linecap="round" stroke-linejoin="round" stroke="#000" fill="none" d="M295.16 138c35.07 3.82 73.66 1.67 118.33 3.33m-118.83-1.23c41.89.23 86.41.17 120.01-.82m.53.72c1.56-.78 6.48 3.16 3.44 5.22m-5.39-4.65c6.09-.49 7.18 2.85 7.19 5.75m.13-.86c-3.08 22.35-2.26 45.24-.47 70.7m-.23-71.76c.2 25.41.17 51.84.96 71.21m-.83-.41c-1.97 4.13-1.78 4.07-5.29 2.88m6.94-3.67c-1.93 3.06-1.22 3.65-6.2 6.01m.19-.37c-41.6.24-82.78-.57-119.77-1.91m119.29.97c-24.81.59-51.58.59-121.08.44m.72.45c-1.83-.68-2.94.34-3.09-2.93m1.18.95c-3.22.65-4.97-.58-1.51-3.95m-.58 2.8c-.93-19.09-.4-36.13-.18-72.11m0 71.36c-1.29-21.4-.07-43.06-1.26-70.49m.64-.83c-1.61-2.97.13-4.87 4.86-5.23m-4.61 3.66c-2.15-3.91-.75-1.26 4.49-2.93"/>
    <path d="M334.19 174.74c-.16 0-.32.02-.46.04-.18 0-.38.02-.58.04-.36.02-.7.06-1.06.12-.7.08-1.38.24-2.06.4a.47.47 0 00-.34.12c-.12.1-.2.22-.18.38 0 .02.02.04.02.06-.18 2.02-.38 4.02-.4 6.06-.02.54-.02 1.06-.02 1.6v1.4c.02 1.02-.1 2.3.32 3.24.08.2.24.28.42.3.26 0 .56-.18.62-.44.28-.92.06-2.1.02-3.06-.04-1.02-.06-2.06-.06-3.08-.02-.44-.02-.86-.02-1.3.5-.14 1.02-.26 1.54-.32.3-.02.62-.06.92-.08h.42c.22 0 .46 0 .68-.1.2-.06.36-.24.36-.46 0-.24-.14-.38-.34-.48-.38-.16-.86-.1-1.26-.06-.34.02-.66.06-1 .1-.44.08-.88.2-1.3.32 0-1.14.02-2.3.1-3.44.56-.1 1.1-.16 1.66-.2l1.02-.06c.38 0 .82.06 1.2-.02h-.02c.24-.04.44-.18.52-.4 0-.06.02-.1.02-.16 0-.28-.26-.44-.52-.5-.08-.02-.16-.02-.22-.02zm7.233 5.36c.08-.66-.96-.76-1.12-.16-.34 1.26-.56 2.54-.82 3.82-.2.88-.46 3.2-1.54 3.38-.52.08-.6-.12-.86-.58-.16-.3-.28-.64-.38-.96-.18-.64-.28-1.32-.32-2-.08-1.32 0-2.68.18-4a.522.522 0 00-.52-.58c-.18 0-.34.1-.38.34-.18 1.38-.44 2.74-.44 4.12 0 .4.02.8.08 1.22.16 1.3.64 3.5 2.18 3.8.12.04.24.04.36.04 1.22 0 1.9-1.26 2.26-2.32.16.64.42 1.24.76 1.84.36.6 1.2.24 1.2-.34 0-.1-.02-.22-.08-.32-1.18-2.28-.84-4.86-.56-7.3zm4.856-.74c-1.34.08-2.08 2.08-2.34 3.18-.02.04-.02.08-.04.14-.06-.7-.1-1.38-.12-2.06 0-.3-.22-.44-.44-.44-.24 0-.46.14-.46.44.04 2.56.32 5.02.98 7.52.08.26.28.38.48.38.3 0 .62-.26.58-.68-.2-1.3-.24-2.62-.1-3.92.1-.86.48-3.3 1.58-3.32 2.1-.08 1.4 6.36 1.54 7.64.02.32.32.52.58.52.2 0 .38-.12.44-.38.16-.74.22-1.52.22-2.32 0-1.22-.14-2.48-.32-3.62-.18-1.42-.94-3.08-2.58-3.08zm6.169 7.84c-1.36-.14-1.28-2.26-1.08-3.22.2-.94.56-1.88 1.02-2.72.24-.42.52-1.04.94-1.3.86-.54 1.2.46 1.3 1.12.1.64 1.02.42 1.02-.18v-.08c-.16-1.1-.88-2.22-1.92-2.22-.28 0-.6.1-.94.32-1.42.9-2.3 3.16-2.64 4.74-.1.44-.16.94-.16 1.44 0 1.24.38 2.54 1.5 3.14.3.18.64.26.96.26 1.1 0 2.22-.82 2.9-1.58.5-.6-.36-1.48-.88-.88-.46.52-1.28 1.24-2.02 1.16zm6.869-8.8c.12-1 .28-2.02.46-3 .06-.32-.2-.54-.46-.54-.16 0-.32.1-.36.32-.24 1.12-.46 2.22-.62 3.32l-1.68.24c-.26.04-.38.22-.38.42 0 .3.26.64.66.58.4-.08.82-.1 1.22-.14-.22 1.7-.34 3.42-.3 5.18.02 1.2.14 2.66 1.22 3.42.26.2.54.28.8.28.62 0 1.12-.48 1.22-1.22.04-.36-.28-.58-.6-.58-.26 0-.5.14-.56.42 0 .06-.04.08-.06.08-.12 0-.38-.32-.4-.34-.14-.22-.22-.52-.28-.76-.1-.48-.12-.98-.14-1.48-.04-1.02-.04-2.06 0-3.08.04-.64.08-1.3.14-1.94.76 0 1.52.04 2.28.08.42.02.62-.28.62-.6 0-.32-.2-.66-.62-.68-.72-.06-1.44-.04-2.16.02zm3.745 1.2c-.16 1.54-.28 3.14-.28 4.72 0 1.28.08 2.54.28 3.78.06.26.28.4.5.4.3 0 .6-.2.6-.56-.04-2.8-.26-5.54-.06-8.34.04-.66-.96-.64-1.04 0zm1.04-3.54c-.06-.04-.1-.08-.14-.12a.827.827 0 00-.38-.1h-.02c-.08 0-.18.02-.26.06-.08.04-.16.08-.24.16a.48.48 0 00-.14.24c-.04.08-.06.18-.06.28 0 .06.02.12.02.18.04.14.1.24.18.34.06.02.1.06.16.1.1.08.24.1.36.1.1 0 .2-.02.28-.06.1-.02.18-.08.24-.14a.75.75 0 00.14-.24c.06-.08.08-.16.08-.26v-.02c-.02-.06-.02-.14-.04-.2-.02-.12-.1-.22-.18-.32zm4.436 3.08c-2.34 0-3.12 2.58-3.12 4.5 0 .24.12.42.28.5-.08 1.68.18 3.42 1.66 4.22.36.2.72.28 1.06.28 2.16 0 3.6-3.42 3.6-5.38 0-2.12-1.18-4.12-3.48-4.12zm-1.12 7.76c-.98-1.1-.88-2.94-.68-4.4.22-1.08.72-2.16 1.8-2.16.2 0 .44.04.68.12 1.68.58 1.78 2.64 1.38 4.08-.24.88-1.18 2.84-2.28 2.84-.3 0-.6-.14-.9-.48zm8.782-7.54c-1.34.08-2.08 2.08-2.34 3.18-.02.04-.02.08-.04.14-.06-.7-.1-1.38-.12-2.06 0-.3-.22-.44-.44-.44-.24 0-.46.14-.46.44.04 2.56.32 5.02.98 7.52.08.26.28.38.48.38.3 0 .62-.26.58-.68-.2-1.3-.24-2.62-.1-3.92.1-.86.48-3.3 1.58-3.32 2.1-.08 1.4 6.36 1.54 7.64.02.32.32.52.58.52.2 0 .38-.12.44-.38.16-.74.22-1.52.22-2.32 0-1.22-.14-2.48-.32-3.62-.18-1.42-.94-3.08-2.58-3.08z" aria-label="Function" font-size="20" text-anchor="middle" font-family="SS Soapy Hands"/>
    <path pointer-events="all" fill="#fff" d="M460.88 48.84l121.04.97 3.09.41-.83 3.98 1.14 72.42-2.32.48-1.82 2.21-123.21 1.66-2.39-3.83-2.5-1.69 3.26-70.1-1.57-2.79 3.33-2.24"/>
    <path pointer-events="all" stroke-miterlimit="10" stroke-linecap="round" stroke-linejoin="round" stroke="#000" fill="none" d="M459.55 49.13c32.41 1.11 65.82-1.08 119.34.68m-119.82-.36c44.32.9 90.36 1.11 121.49 1.35m-.36-.8c2.82-.94 4.08 2.68 5.25 5.53m-5.68-6.73c2.07-.42 5.19 2.31 5.8 4.89m-.55-.36c-.52 25.77-1.72 46.99 1.61 71.01m-2.14-69.61c.08 20.12 1.05 41.94.07 70.98m.44-.51c-1.57 1.55-2.74 3.89-6.41 2.86m6.32-3.42c.37 5.41.49 6.3-5.69 5.24m-.44.51c-46.7-1.1-93.74.59-117.04.46m117.59-.06c-43.71-1.96-87.67-1.03-118.59-.8m-.94.01c-5.06-.02-4.33.12-5.79-5.78m7.1 5.38c-6.01-.35-7.12-1.41-7.49-3.53m.38.68c.16-21.68-.28-36.8-.76-72.24m1.67 70.58c-.07-20.52-.56-41.9.26-69.68m-.17-.61c-1.29-3.11 2.98-3.99 3.75-6.74m-3.4 7.52c-1.25-4.88-.34-6.59 6.01-6.95"/>
    <path d="M499.19 84.74c-.16 0-.32.02-.46.04-.18 0-.38.02-.58.04-.36.02-.7.06-1.06.12-.7.08-1.38.24-2.06.4a.47.47 0 00-.34.12c-.12.1-.2.22-.18.38 0 .02.02.04.02.06-.18 2.02-.38 4.02-.4 6.06-.02.54-.02 1.06-.02 1.6v1.4c.02 1.02-.1 2.3.32 3.24.08.2.24.28.42.3.26 0 .56-.18.62-.44.28-.92.06-2.1.02-3.06-.04-1.02-.06-2.06-.06-3.08-.02-.44-.02-.86-.02-1.3.5-.14 1.02-.26 1.54-.32.3-.02.62-.06.92-.08h.42c.22 0 .46 0 .68-.1.2-.06.36-.24.36-.46 0-.24-.14-.38-.34-.48-.38-.16-.86-.1-1.26-.06-.34.02-.66.06-1 .1-.44.08-.88.2-1.3.32 0-1.14.02-2.3.1-3.44.56-.1 1.1-.16 1.66-.2l1.02-.06c.38 0 .82.06 1.2-.02h-.02c.24-.04.44-.18.52-.4 0-.06.02-.1.02-.16 0-.28-.26-.44-.52-.5-.08-.02-.16-.02-.22-.02zm7.233 5.36c.08-.66-.96-.76-1.12-.16-.34 1.26-.56 2.54-.82 3.82-.2.88-.46 3.2-1.54 3.38-.52.08-.6-.12-.86-.58-.16-.3-.28-.64-.38-.96-.18-.64-.28-1.32-.32-2-.08-1.32 0-2.68.18-4a.522.522 0 00-.52-.58c-.18 0-.34.1-.38.34-.18 1.38-.44 2.74-.44 4.12 0 .4.02.8.08 1.22.16 1.3.64 3.5 2.18 3.8.12.04.24.04.36.04 1.22 0 1.9-1.26 2.26-2.32.16.64.42 1.24.76 1.84.36.6 1.2.24 1.2-.34 0-.1-.02-.22-.08-.32-1.18-2.28-.84-4.86-.56-7.3zm4.856-.74c-1.34.08-2.08 2.08-2.34 3.18-.02.04-.02.08-.04.14-.06-.7-.1-1.38-.12-2.06 0-.3-.22-.44-.44-.44-.24 0-.46.14-.46.44.04 2.56.32 5.02.98 7.52.08.26.28.38.48.38.3 0 .62-.26.58-.68-.2-1.3-.24-2.62-.1-3.92.1-.86.48-3.3 1.58-3.32 2.1-.08 1.4 6.36 1.54 7.64.02.32.32.52.58.52.2 0 .38-.12.44-.38.16-.74.22-1.52.22-2.32 0-1.22-.14-2.48-.32-3.62-.18-1.42-.94-3.08-2.58-3.08zm6.169 7.84c-1.36-.14-1.28-2.26-1.08-3.22.2-.94.56-1.88 1.02-2.72.24-.42.52-1.04.94-1.3.86-.54 1.2.46 1.3 1.12.1.64 1.02.42 1.02-.18v-.08c-.16-1.1-.88-2.22-1.92-2.22-.28 0-.6.1-.94.32-1.42.9-2.3 3.16-2.64 4.74-.1.44-.16.94-.16 1.44 0 1.24.38 2.54 1.5 3.14.3.18.64.26.96.26 1.1 0 2.22-.82 2.9-1.58.5-.6-.36-1.48-.88-.88-.46.52-1.28 1.24-2.02 1.16zm6.869-8.8c.12-1 .28-2.02.46-3 .06-.32-.2-.54-.46-.54-.16 0-.32.1-.36.32-.24 1.12-.46 2.22-.62 3.32l-1.68.24c-.26.04-.38.22-.38.42 0 .3.26.64.66.58.4-.08.82-.1 1.22-.14-.22 1.7-.34 3.42-.3 5.18.02 1.2.14 2.66 1.22 3.42.26.2.54.28.8.28.62 0 1.12-.48 1.22-1.22.04-.36-.28-.58-.6-.58-.26 0-.5.14-.56.42 0 .06-.04.08-.06.08-.12 0-.38-.32-.4-.34-.14-.22-.22-.52-.28-.76-.1-.48-.12-.98-.14-1.48-.04-1.02-.04-2.06 0-3.08.04-.64.08-1.3.14-1.94.76 0 1.52.04 2.28.08.42.02.62-.28.62-.6 0-.32-.2-.66-.62-.68-.72-.06-1.44-.04-2.16.02zm3.745 1.2c-.16 1.54-.28 3.14-.28 4.72 0 1.28.08 2.54.28 3.78.06.26.28.4.5.4.3 0 .6-.2.6-.56-.04-2.8-.26-5.54-.06-8.34.04-.66-.96-.64-1.04 0zm1.04-3.54c-.06-.04-.1-.08-.14-.12a.827.827 0 00-.38-.1h-.02c-.08 0-.18.02-.26.06-.08.04-.16.08-.24.16a.48.48 0 00-.14.24c-.04.08-.06.18-.06.28 0 .06.02.12.02.18.04.14.1.24.18.34.06.02.1.06.16.1.1.08.24.1.36.1.1 0 .2-.02.28-.06.1-.02.18-.08.24-.14a.75.75 0 00.14-.24c.06-.08.08-.16.08-.26v-.02c-.02-.06-.02-.14-.04-.2-.02-.12-.1-.22-.18-.32zm4.436 3.08c-2.34 0-3.12 2.58-3.12 4.5 0 .24.12.42.28.5-.08 1.68.18 3.42 1.66 4.22.36.2.72.28 1.06.28 2.16 0 3.6-3.42 3.6-5.38 0-2.12-1.18-4.12-3.48-4.12zm-1.12 7.76c-.98-1.1-.88-2.94-.68-4.4.22-1.08.72-2.16 1.8-2.16.2 0 .44.04.68.12 1.68.58 1.78 2.64 1.38 4.08-.24.88-1.18 2.84-2.28 2.84-.3 0-.6-.14-.9-.48zm8.782-7.54c-1.34.08-2.08 2.08-2.34 3.18-.02.04-.02.08-.04.14-.06-.7-.1-1.38-.12-2.06 0-.3-.22-.44-.44-.44-.24 0-.46.14-.46.44.04 2.56.32 5.02.98 7.52.08.26.28.38.48.38.3 0 .62-.26.58-.68-.2-1.3-.24-2.62-.1-3.92.1-.86.48-3.3 1.58-3.32 2.1-.08 1.4 6.36 1.54 7.64.02.32.32.52.58.52.2 0 .38-.12.44-.38.16-.74.22-1.52.22-2.32 0-1.22-.14-2.48-.32-3.62-.18-1.42-.94-3.08-2.58-3.08z" aria-label="Function" font-size="20" text-anchor="middle" font-family="SS Soapy Hands"/>
    <path pointer-events="all" fill="#fff" d="M460.88 139.18l119.44-.51 3.66 3.23-.64 3.74 2.25 68.19-.2 3.7-6.67.64-120.05 1.33-4.21 1.27.79-6.83-2.07-69.09 1.94-5.22 5.44.23"/>
    <path pointer-events="all" stroke-miterlimit="10" stroke-linecap="round" stroke-linejoin="round" stroke="#000" fill="none" d="M458.94 140.26c29.76-1.61 53.98.17 120.35-1.96m-118.82 2.5c44.76-.02 92.32.46 118.98-.49m.75-.31c4.08-1.1 5.68 2.2 3.06 5.85m-1.96-4.82c2.63.26 3.19 2.36 4.4 4.63m-1.23-.45c.64 21.18 1.42 44.72-.31 71.31m-.06-71.46c1.97 14.84 1.95 32.05 1.19 70.75m-.29-.61c-1.17 2.98.31 3.7-3.53 2.83m1.69-3.15c2.69 3.14 2.21 4.35-5.18 4.46m2.93 1.39c-27.7-.02-60.54.16-122.3-1.17m121.9.91c-38.55-.1-77.62-.24-120.11-.05m-.6-.42c-4.29.64-5.72-.09-4.49-4.64m5.02 5.82c-4.79-1.35-5.28-2.25-4.88-7.72m.74 3.18c-2.74-20.28-.14-41.47-1.33-72.37m-.67 71.79c.57-21.64.36-42.74 1.79-70.87m-.98-.39c-.97-3.26 1.83-3.1 6.65-4.25m-6.2 3.39c-.36-1.86.08-3.32 2.92-2.38"/>
    <path d="M499.19 174.74c-.16 0-.32.02-.46.04-.18 0-.38.02-.58.04-.36.02-.7.06-1.06.12-.7.08-1.38.24-2.06.4a.47.47 0 00-.34.12c-.12.1-.2.22-.18.38 0 .02.02.04.02.06-.18 2.02-.38 4.02-.4 6.06-.02.54-.02 1.06-.02 1.6v1.4c.02 1.02-.1 2.3.32 3.24.08.2.24.28.42.3.26 0 .56-.18.62-.44.28-.92.06-2.1.02-3.06-.04-1.02-.06-2.06-.06-3.08-.02-.44-.02-.86-.02-1.3.5-.14 1.02-.26 1.54-.32.3-.02.62-.06.92-.08h.42c.22 0 .46 0 .68-.1.2-.06.36-.24.36-.46 0-.24-.14-.38-.34-.48-.38-.16-.86-.1-1.26-.06-.34.02-.66.06-1 .1-.44.08-.88.2-1.3.32 0-1.14.02-2.3.1-3.44.56-.1 1.1-.16 1.66-.2l1.02-.06c.38 0 .82.06 1.2-.02h-.02c.24-.04.44-.18.52-.4 0-.06.02-.1.02-.16 0-.28-.26-.44-.52-.5-.08-.02-.16-.02-.22-.02zm7.233 5.36c.08-.66-.96-.76-1.12-.16-.34 1.26-.56 2.54-.82 3.82-.2.88-.46 3.2-1.54 3.38-.52.08-.6-.12-.86-.58-.16-.3-.28-.64-.38-.96-.18-.64-.28-1.32-.32-2-.08-1.32 0-2.68.18-4a.522.522 0 00-.52-.58c-.18 0-.34.1-.38.34-.18 1.38-.44 2.74-.44 4.12 0 .4.02.8.08 1.22.16 1.3.64 3.5 2.18 3.8.12.04.24.04.36.04 1.22 0 1.9-1.26 2.26-2.32.16.64.42 1.24.76 1.84.36.6 1.2.24 1.2-.34 0-.1-.02-.22-.08-.32-1.18-2.28-.84-4.86-.56-7.3zm4.856-.74c-1.34.08-2.08 2.08-2.34 3.18-.02.04-.02.08-.04.14-.06-.7-.1-1.38-.12-2.06 0-.3-.22-.44-.44-.44-.24 0-.46.14-.46.44.04 2.56.32 5.02.98 7.52.08.26.28.38.48.38.3 0 .62-.26.58-.68-.2-1.3-.24-2.62-.1-3.92.1-.86.48-3.3 1.58-3.32 2.1-.08 1.4 6.36 1.54 7.64.02.32.32.52.58.52.2 0 .38-.12.44-.38.16-.74.22-1.52.22-2.32 0-1.22-.14-2.48-.32-3.62-.18-1.42-.94-3.08-2.58-3.08zm6.169 7.84c-1.36-.14-1.28-2.26-1.08-3.22.2-.94.56-1.88 1.02-2.72.24-.42.52-1.04.94-1.3.86-.54 1.2.46 1.3 1.12.1.64 1.02.42 1.02-.18v-.08c-.16-1.1-.88-2.22-1.92-2.22-.28 0-.6.1-.94.32-1.42.9-2.3 3.16-2.64 4.74-.1.44-.16.94-.16 1.44 0 1.24.38 2.54 1.5 3.14.3.18.64.26.96.26 1.1 0 2.22-.82 2.9-1.58.5-.6-.36-1.48-.88-.88-.46.52-1.28 1.24-2.02 1.16zm6.869-8.8c.12-1 .28-2.02.46-3 .06-.32-.2-.54-.46-.54-.16 0-.32.1-.36.32-.24 1.12-.46 2.22-.62 3.32l-1.68.24c-.26.04-.38.22-.38.42 0 .3.26.64.66.58.4-.08.82-.1 1.22-.14-.22 1.7-.34 3.42-.3 5.18.02 1.2.14 2.66 1.22 3.42.26.2.54.28.8.28.62 0 1.12-.48 1.22-1.22.04-.36-.28-.58-.6-.58-.26 0-.5.14-.56.42 0 .06-.04.08-.06.08-.12 0-.38-.32-.4-.34-.14-.22-.22-.52-.28-.76-.1-.48-.12-.98-.14-1.48-.04-1.02-.04-2.06 0-3.08.04-.64.08-1.3.14-1.94.76 0 1.52.04 2.28.08.42.02.62-.28.62-.6 0-.32-.2-.66-.62-.68-.72-.06-1.44-.04-2.16.02zm3.745 1.2c-.16 1.54-.28 3.14-.28 4.72 0 1.28.08 2.54.28 3.78.06.26.28.4.5.4.3 0 .6-.2.6-.56-.04-2.8-.26-5.54-.06-8.34.04-.66-.96-.64-1.04 0zm1.04-3.54c-.06-.04-.1-.08-.14-.12a.827.827 0 00-.38-.1h-.02c-.08 0-.18.02-.26.06-.08.04-.16.08-.24.16a.48.48 0 00-.14.24c-.04.08-.06.18-.06.28 0 .06.02.12.02.18.04.14.1.24.18.34.06.02.1.06.16.1.1.08.24.1.36.1.1 0 .2-.02.28-.06.1-.02.18-.08.24-.14a.75.75 0 00.14-.24c.06-.08.08-.16.08-.26v-.02c-.02-.06-.02-.14-.04-.2-.02-.12-.1-.22-.18-.32zm4.436 3.08c-2.34 0-3.12 2.58-3.12 4.5 0 .24.12.42.28.5-.08 1.68.18 3.42 1.66 4.22.36.2.72.28 1.06.28 2.16 0 3.6-3.42 3.6-5.38 0-2.12-1.18-4.12-3.48-4.12zm-1.12 7.76c-.98-1.1-.88-2.94-.68-4.4.22-1.08.72-2.16 1.8-2.16.2 0 .44.04.68.12 1.68.58 1.78 2.64 1.38 4.08-.24.88-1.18 2.84-2.28 2.84-.3 0-.6-.14-.9-.48zm8.782-7.54c-1.34.08-2.08 2.08-2.34 3.18-.02.04-.02.08-.04.14-.06-.7-.1-1.38-.12-2.06 0-.3-.22-.44-.44-.44-.24 0-.46.14-.46.44.04 2.56.32 5.02.98 7.52.08.26.28.38.48.38.3 0 .62-.26.58-.68-.2-1.3-.24-2.62-.1-3.92.1-.86.48-3.3 1.58-3.32 2.1-.08 1.4 6.36 1.54 7.64.02.32.32.52.58.52.2 0 .38-.12.44-.38.16-.74.22-1.52.22-2.32 0-1.22-.14-2.48-.32-3.62-.18-1.42-.94-3.08-2.58-3.08z" aria-label="Function" font-size="20" text-anchor="middle" font-family="SS Soapy Hands"/>
    <path pointer-events="all" fill="#fff" d="M86.58 134.52l-2.55-7.99 40.61-3.15 2.37-10.6 18.35 17.05-19.87 14.83.08-8.62-40.5-3.01"/>
    <path pointer-events="all" stroke-miterlimit="10" stroke-linecap="round" stroke-linejoin="round" stroke="#000" fill="none" d="M85.28 134.64c-.09-2.25-.14-3.37.25-8.74m.32 8.8c-.02-2.96-.58-5.85-.15-9.22m.11-1.42c7.7 2.61 19.16 1.2 39.34 1m-40.41 0c14.8-.18 30.58-.58 39.9-.24m1.25-.51c-.93-2.92.61-4.3-.07-9.52m.19 10.58c-.11-3.58-.54-7.75-.05-11.34m-2.45-.3c7.13 4.84 8.48 7.43 20.9 17.26m-18.06-15.57c3.89 3.73 9.18 6.01 18.69 15.25m-.86-2.4c-7.18 6.64-14.71 12.35-18.37 15.42m18.96-12.84c-5.28 4.69-12.04 9.42-18.42 15.3m-.73-.94c.13-2.22.53-5.73-.74-9.33m.54 9.35c.46-2.17-.19-5.36-.42-10.41m1.78-1.65c-16.42 1.01-28.73 2.18-42.24 1.18m41.24 1.4c-11.81-1.08-23.02-.22-40.52.22"/>
    <path pointer-events="all" fill="#fff" d="M145.58 195.2l-1.74 9.04-38.27 2.5-1.24 9.92-17.43-18.42 18.37-13.73-1.62 9.25 41.83.33"/>
    <path pointer-events="all" stroke-miterlimit="10" stroke-linecap="round" stroke-linejoin="round" stroke="#000" fill="none" d="M143.79 194.99c1.45 2.46-.15 5.73-.16 10.14m.78-9.75c-.16 2.58.26 5.29.53 9.24m1.28.06c-14.74 2.34-24.29.55-40.01 0m39.12-.1c-15.99-.04-32.35 1.04-39.86.77m-.49-1.32c.45 2.21-.29 5.64-.93 12.26m.32-11.3c.1 2.63.29 5.69-.23 10.41m2.32.13c-8.67-6.2-17-9.71-20.58-16.68m19.44 16.07c-3.52-3.64-8.7-6.26-18.94-14.87m.55-.36c4.84-2.2 7.57-7.64 16.61-13.64m-18.45 13.67c6.9-5 13.86-10.75 18.87-14.79m.38-.32c.98 1.48-.58 4.73.96 9.96m-.53-10.29c.21 3.44-.55 6.37-.68 10.55m2.3.58c7.94-1.43 13.86-1.7 38.12-.42m-39.63-.89c10.15 1.33 21.05.84 39.82 1.29"/>
    <path d="M75 100h40v20H75z" fill="none"/>
    <g aria-label="Inputs" font-size="20" text-anchor="middle" font-family="SS Soapy Hands">
        <path d="M77.87 105.22c0-.32-.24-.48-.48-.5-.26 0-.52.18-.54.5-.18 2.18-.26 4.38-.26 6.56 0 .7-.02 1.4-.02 2.1 0 1.42.06 2.88.32 4.24.06.26.26.38.48.38.28 0 .58-.2.6-.54.02-.3.02-.62.02-.92 0-1.8-.22-3.64-.24-5.44-.04-2.14.02-4.26.12-6.38zm4.385 4.14c-1.34.08-2.08 2.08-2.34 3.18-.02.04-.02.08-.04.14-.06-.7-.1-1.38-.12-2.06 0-.3-.22-.44-.44-.44-.24 0-.46.14-.46.44.04 2.56.32 5.02.98 7.52.08.26.28.38.48.38.3 0 .62-.26.58-.68-.2-1.3-.24-2.62-.1-3.92.1-.86.48-3.3 1.58-3.32 2.1-.08 1.4 6.36 1.54 7.64.02.32.32.52.58.52.2 0 .38-.12.44-.38.16-.74.22-1.52.22-2.32 0-1.22-.14-2.48-.32-3.62-.18-1.42-.94-3.08-2.58-3.08zm6.37.02c-.18 0-.36.02-.52.08-.88.26-1.44 1.2-1.84 1.96v.02c-.1.1-.18.22-.18.4-.02.48-.04.98-.02 1.48-.04 1.46-.06 2.92-.1 4.36v1.34c0 1.02.04 2.04.24 3.06.04.28.24.38.44.38.28 0 .58-.2.62-.52.16-1.46 0-2.98 0-4.44v-.06c.2.2.44.4.7.56 1.94 1.24 3.76 0 4.34-2.02.12-.4.16-.82.16-1.28 0-1.6-.66-3.46-1.74-4.38-.56-.48-1.34-.94-2.1-.94zm.8 7.88c-.72-.1-1.26-.62-1.62-1.22-.3-.52-.44-1.06-.52-1.62.02-.86.02-1.72.02-2.58 0-.1-.02-.18-.06-.26.32-.54.74-1.08 1.36-1.1.76 0 1.54.72 1.9 1.34.56 1.02.92 2.7.6 3.82-.22.76-.76 1.76-1.68 1.62zm10.005-7.16c.08-.66-.96-.76-1.12-.16-.34 1.26-.56 2.54-.82 3.82-.2.88-.46 3.2-1.54 3.38-.52.08-.6-.12-.86-.58-.16-.3-.28-.64-.38-.96-.18-.64-.28-1.32-.32-2-.08-1.32 0-2.68.18-4a.522.522 0 00-.52-.58c-.18 0-.34.1-.38.34-.18 1.38-.44 2.74-.44 4.12 0 .4.02.8.08 1.22.16 1.3.64 3.5 2.18 3.8.12.04.24.04.36.04 1.22 0 1.9-1.26 2.26-2.32.16.64.42 1.24.76 1.84.36.6 1.2.24 1.2-.34 0-.1-.02-.22-.08-.32-1.18-2.28-.84-4.86-.56-7.3zm4.497-1.7c.12-1 .28-2.02.46-3 .06-.32-.2-.54-.46-.54-.16 0-.32.1-.36.32-.24 1.12-.46 2.22-.62 3.32l-1.68.24c-.26.04-.38.22-.38.42 0 .3.26.64.66.58.4-.08.82-.1 1.22-.14-.22 1.7-.34 3.42-.3 5.18.02 1.2.14 2.66 1.22 3.42.26.2.54.28.8.28.62 0 1.12-.48 1.22-1.22.04-.36-.28-.58-.6-.58-.26 0-.5.14-.56.42 0 .06-.04.08-.06.08-.12 0-.38-.32-.4-.34-.14-.22-.22-.52-.28-.76-.1-.48-.12-.98-.14-1.48-.04-1.02-.04-2.06 0-3.08.04-.64.08-1.3.14-1.94.76 0 1.52.04 2.28.08.42.02.62-.28.62-.6 0-.32-.2-.66-.62-.68-.72-.06-1.44-.04-2.16.02z"/>
        <path d="M108.774 113.1c-.3-.24-.76-.54-.98-.88-.48-.78.1-1.24.7-1.6.46-.28 1.18-.56 1.82-.56.46 0 .9.16 1.16.6.1.18.26.26.42.26.34 0 .68-.38.46-.76-.44-.8-1.32-1.14-2.26-1.14-1.72 0-3.66 1.12-3.66 2.72v.16c.14 1.38 2.02 2.48 3.06 3.16.52.34 2.06 1.06 1.72 1.88-.12.32-.36.44-.64.44-.72 0-1.76-.76-2.08-1.04a.561.561 0 00-.38-.14c-.36 0-.7.38-.48.8.52.94 1.72 1.6 2.84 1.6 1.1 0 1.98-.68 1.98-1.86 0-.24-.06-.5-.16-.74-.56-1.38-2.42-2-3.52-2.9z"/>
    </g>
    <path d="M125 170h40v20h-40z" fill="none"/>
    <g aria-label="Outputs" font-size="20" text-anchor="middle" font-family="SS Soapy Hands">
        <path d="M123.385 174.86c-.18 0-.36.02-.54.06-1.26.32-1.96 1.7-2.3 2.8-.26.84-.34 1.56-.36 2.2-.02.62-.06 1.14-.08 1.62v.76c0 .84.04 1.54.22 2.46.22 1.14.62 2.56 1.62 3.32.4.3.82.42 1.24.42.72 0 1.4-.42 1.84-1.1 1.2-1.86 1.62-4.28 1.62-6.48 0-.28 0-.56-.02-.84-.06-1.24-.2-2.62-.88-3.72-.48-.82-1.36-1.5-2.36-1.5zm.32 12.46c-.4.16-1.04-.06-1.32-.48-.6-.88-.8-1.9-.94-2.92-.16-1.08-.12-2.14-.08-3.22.02-.66.04-1.28.1-1.96.28-1.28.6-1.8 1.22-2.46.7-.74 1.66.08 2.08.78.52.9.64 2 .72 3.02.18 2.08-.16 3.86-.8 5.86-.18.54-.68 1.28-.98 1.38zm9.945-7.22c.08-.66-.96-.76-1.12-.16-.34 1.26-.56 2.54-.82 3.82-.2.88-.46 3.2-1.54 3.38-.52.08-.6-.12-.86-.58-.16-.3-.28-.64-.38-.96-.18-.64-.28-1.32-.32-2-.08-1.32 0-2.68.18-4a.522.522 0 00-.52-.58c-.18 0-.34.1-.38.34-.18 1.38-.44 2.74-.44 4.12 0 .4.02.8.08 1.22.16 1.3.64 3.5 2.18 3.8.12.04.24.04.36.04 1.22 0 1.9-1.26 2.26-2.32.16.64.42 1.24.76 1.84.36.6 1.2.24 1.2-.34 0-.1-.02-.22-.08-.32-1.18-2.28-.84-4.86-.56-7.3zm4.495-1.7c.12-1 .28-2.02.46-3 .06-.32-.2-.54-.46-.54-.16 0-.32.1-.36.32-.24 1.12-.46 2.22-.62 3.32l-1.68.24c-.26.04-.38.22-.38.42 0 .3.26.64.66.58.4-.08.82-.1 1.22-.14-.22 1.7-.34 3.42-.3 5.18.02 1.2.14 2.66 1.22 3.42.26.2.54.28.8.28.62 0 1.12-.48 1.22-1.22.04-.36-.28-.58-.6-.58-.26 0-.5.14-.56.42 0 .06-.04.08-.06.08-.12 0-.38-.32-.4-.34-.14-.22-.22-.52-.28-.76-.1-.48-.12-.98-.14-1.48-.04-1.02-.04-2.06 0-3.08.04-.64.08-1.3.14-1.94.76 0 1.52.04 2.28.08.42.02.62-.28.62-.6 0-.32-.2-.66-.62-.68-.72-.06-1.44-.04-2.16.02zm6.105.98c-.18 0-.36.02-.52.08-.88.26-1.44 1.2-1.84 1.96v.02c-.1.1-.18.22-.18.4-.02.48-.04.98-.02 1.48-.04 1.46-.06 2.92-.1 4.36v1.34c0 1.02.04 2.04.24 3.06.04.28.24.38.44.38.28 0 .58-.2.62-.52.16-1.46 0-2.98 0-4.44v-.06c.2.2.44.4.7.56 1.94 1.24 3.76 0 4.34-2.02.12-.4.16-.82.16-1.28 0-1.6-.66-3.46-1.74-4.38-.56-.48-1.34-.94-2.1-.94zm.8 7.88c-.72-.1-1.26-.62-1.62-1.22-.3-.52-.44-1.06-.52-1.62.02-.86.02-1.72.02-2.58 0-.1-.02-.18-.06-.26.32-.54.74-1.08 1.36-1.1.76 0 1.54.72 1.9 1.34.56 1.02.92 2.7.6 3.82-.22.76-.76 1.76-1.68 1.62zm10.005-7.16c.08-.66-.96-.76-1.12-.16-.34 1.26-.56 2.54-.82 3.82-.2.88-.46 3.2-1.54 3.38-.52.08-.6-.12-.86-.58-.16-.3-.28-.64-.38-.96-.18-.64-.28-1.32-.32-2-.08-1.32 0-2.68.18-4a.522.522 0 00-.52-.58c-.18 0-.34.1-.38.34-.18 1.38-.44 2.74-.44 4.12 0 .4.02.8.08 1.22.16 1.3.64 3.5 2.18 3.8.12.04.24.04.36.04 1.22 0 1.9-1.26 2.26-2.32.16.64.42 1.24.76 1.84.36.6 1.2.24 1.2-.34 0-.1-.02-.22-.08-.32-1.18-2.28-.84-4.86-.56-7.3zm4.497-1.7c.12-1 .28-2.02.46-3 .06-.32-.2-.54-.46-.54-.16 0-.32.1-.36.32-.24 1.12-.46 2.22-.62 3.32l-1.68.24c-.26.04-.38.22-.38.42 0 .3.26.64.66.58.4-.08.82-.1 1.22-.14-.22 1.7-.34 3.42-.3 5.18.02 1.2.14 2.66 1.22 3.42.26.2.54.28.8.28.62 0 1.12-.48 1.22-1.22.04-.36-.28-.58-.6-.58-.26 0-.5.14-.56.42 0 .06-.04.08-.06.08-.12 0-.38-.32-.4-.34-.14-.22-.22-.52-.28-.76-.1-.48-.12-.98-.14-1.48-.04-1.02-.04-2.06 0-3.08.04-.64.08-1.3.14-1.94.76 0 1.52.04 2.28.08.42.02.62-.28.62-.6 0-.32-.2-.66-.62-.68-.72-.06-1.44-.04-2.16.02z"/>
        <path d="M164.399 183.1c-.3-.24-.76-.54-.98-.88-.48-.78.1-1.24.7-1.6.46-.28 1.18-.56 1.82-.56.46 0 .9.16 1.16.6.1.18.26.26.42.26.34 0 .68-.38.46-.76-.44-.8-1.32-1.14-2.26-1.14-1.72 0-3.66 1.12-3.66 2.72v.16c.14 1.38 2.02 2.48 3.06 3.16.52.34 2.06 1.06 1.72 1.88-.12.32-.36.44-.64.44-.72 0-1.76-.76-2.08-1.04a.561.561 0 00-.38-.14c-.36 0-.7.38-.48.8.52.94 1.72 1.6 2.84 1.6 1.1 0 1.98-.68 1.98-1.86 0-.24-.06-.5-.16-.74-.56-1.38-2.42-2-3.52-2.9z"/>
    </g>
    <path pointer-events="all" fill="#fff" d="M434.49 281.04l107.79 1.09-3.75 38.7L429.67 318l1.75-33.99.95-4.9"/>
    <path pointer-events="all" stroke-miterlimit="10" stroke-linecap="round" stroke-linejoin="round" stroke="#000" fill="none" d="M432.57 279.26c27.32-1.66 57.75.89 107.68.73m-106.73-.91c22.5 2.27 46.93 2.08 104.62 1.87m.46-.95c-.07 1.76 4.26 2.68 2.28 1.13m-3.33-1.09c3.92 1.11 1.52 1.34 3.26 3.12m-1.66-1.59c.16 10.38 3.21 17.12.26 37.4m2.02-37.02c-.83 8.02-1.09 16.86.02 35.61m-.45.04c.54 3.24-.64 3.53-.64 1.88m.53-2.37c-1.85 3.94-1.91 1.73-2.31 1.22m1.02-.1c-35.53.46-74.43-.15-104.33.77m103.99.89c-35-.59-70.31.09-106.73.82m.87-.71c-3.49 1.88-1.17-2-3.64-2.28m4.33.82c-1.66.64-1.12 2.87-1.65 1.03m-1.66-3.19c-.78-10.77-1.04-28.05 1.03-35.96m-1.33 37.52c0-7.84-.23-16.65-.35-34.73m.87-.81c.32-3.08-.24-2.56 2.97-3.64m-2.14 5.62c.92-3.92 1.01-4.54 3.54-2.18"/>
    <path d="M483.398 307.26c-.04-.06-.1-.1-.14-.16-.08-.06-.16-.12-.26-.14-.06-.04-.14-.06-.2-.04-.04-.02-.06-.02-.08-.02-.06 0-.1.02-.14.02-.1.02-.2.06-.3.12-.06.04-.1.08-.16.12l-.12.18c-.02.06-.06.12-.08.18-.02.06-.02.12-.02.18s0 .1.02.14c0 .1.04.2.1.3 0 0 .02.02.02.04.04.04.08.08.12.14.06.06.14.1.24.14.04.02.12.04.18.04h.1c.06 0 .12 0 .18-.02.02-.02.06-.02.08-.04.06-.02.12-.06.2-.08.08-.06.16-.12.22-.22a.81.81 0 00.1-.18c.02-.06.04-.12.04-.2.02-.04.02-.08.02-.12a.71.71 0 00-.04-.2c-.02-.06-.06-.12-.08-.18zm2.735 0c-.04-.06-.1-.1-.14-.16-.08-.06-.16-.12-.26-.14-.06-.04-.14-.06-.2-.04-.04-.02-.06-.02-.08-.02-.06 0-.1.02-.14.02-.1.02-.2.06-.3.12-.06.04-.1.08-.16.12l-.12.18c-.02.06-.06.12-.08.18-.02.06-.02.12-.02.18s0 .1.02.14c0 .1.04.2.1.3 0 0 .02.02.02.04.04.04.08.08.12.14.06.06.14.1.24.14.04.02.12.04.18.04h.1c.06 0 .12 0 .18-.02.02-.02.06-.02.08-.04.06-.02.12-.06.2-.08.08-.06.16-.12.22-.22a.81.81 0 00.1-.18c.02-.06.04-.12.04-.2.02-.04.02-.08.02-.12a.71.71 0 00-.04-.2c-.02-.06-.06-.12-.08-.18zm2.734 0c-.04-.06-.1-.1-.14-.16-.08-.06-.16-.12-.26-.14-.06-.04-.14-.06-.2-.04-.04-.02-.06-.02-.08-.02-.06 0-.1.02-.14.02-.1.02-.2.06-.3.12-.06.04-.1.08-.16.12l-.12.18c-.02.06-.06.12-.08.18-.02.06-.02.12-.02.18s0 .1.02.14c0 .1.04.2.1.3 0 0 .02.02.02.04.04.04.08.08.12.14.06.06.14.1.24.14.04.02.12.04.18.04h.1c.06 0 .12 0 .18-.02.02-.02.06-.02.08-.04.06-.02.12-.06.2-.08.08-.06.16-.12.22-.22a.81.81 0 00.1-.18c.02-.06.04-.12.04-.2.02-.04.02-.08.02-.12a.71.71 0 00-.04-.2c-.02-.06-.06-.12-.08-.18z" aria-label="..." font-size="20" text-anchor="middle" font-family="SS Soapy Hands"/>
    <path d="M288.994 85.615h2.942V86.7h-2.942z" aria-label="-" font-size="12" text-anchor="middle" font-family="Helvetica"/>
    <path pointer-events="all" fill="#fff" d="M276.59 77.68l-.81-9.59 17.02-1.28.15-3.34 17.24 7.35-17.12 9.29-.53-3.73-17.09-.7"/>
    <path pointer-events="all" stroke-miterlimit="10" stroke-linecap="round" stroke-linejoin="round" stroke="#000" fill="none" d="M276.03 76.91c-1.14-4.48.25-6.72.3-9.44m-1.22 8.5c.8-3.36.1-6.69.57-8.69m-1.2.54c3.92.61 8.18-.18 16.85.26m-15.52-1.13c2.91.55 7.05.64 15.57 1.14m.58-.17c-.48-1.22-.5-2.78-.42-4.87m.27 4.69c-.17-1.52-.24-3.19-.23-4.49m1.43-.98c2.8 5.18 11.26 8.42 15.21 11.54m-16.03-11.1c5.28 3.92 13.35 7.51 16.8 8.94m1.49 1.15c-4.41-.15-8.75 2.71-16.89 6.71m16.42-8.11c-4.45 1.73-6.72 4.43-17.61 8.69m-1 .14c.09-1.22.26-2.87.32-3.64m.09 3.95c-.21-1.01-.05-2.29.02-4.25m-1.56.53c-1.99-1.7-7.78.1-15.41-.01m16.64.2c-4.07.07-9.81-.49-15.8-1.15"/>
    <path pointer-events="all" fill="#fff" d="M304.59 85.42l-2.4 6.12-14.73 1.55.34 5.19-14.34-10.26 13.7-8.85-1.39 3.47 18.38 2.97"/>
    <path pointer-events="all" stroke-miterlimit="10" stroke-linecap="round" stroke-linejoin="round" stroke="#000" fill="none" d="M303.81 84.46c-.4 2.04.33 4.46.13 7.28m-.59-8.08c.2 3.27.35 6.59 0 8.28m1.32.73c-3.76.53-9.82 1.2-18.43-1.76m16.6 2.06c-3.09-1.28-7.11.22-15.03-.88m-.58-.07c-.2 1.05.2 2.56-.18 4.49m.55-4.25c-.37 1.15-.08 1.92-.29 4.43m1.21-.56c-7.08-2.61-11.9-6.33-16.94-7.47m16.23 8.59c-5.82-3.47-11.38-6.98-15.61-9.82m1.91.16c2.67-2.74 6.33-3.54 14.39-7.86m-15.84 8.12c3.29-1.92 5.79-3.23 14.74-9.17m.06.25c-.21 1.9.01 3.11-.2 4.79m.09-4.32c.15 1.66.07 2.92-.03 4.29m-1.1-.18c6.49.4 13.17-.01 18.65.95m-17.64-.72c3.96.04 8.74.55 16.65.1"/>
    <path d="M288.994 173.615h2.942v1.084h-2.942z" aria-label="-" font-size="12" text-anchor="middle" font-family="Helvetica"/>
    <path pointer-events="all" fill="#fff" d="M276.59 163.73l-2.38-6.5 16.38-.34 1.34-4.78 15.88 5.95-16.38 8.61-1.63-1.11-14.13-2.71"/>
    <path pointer-events="all" stroke-miterlimit="10" stroke-linecap="round" stroke-linejoin="round" stroke="#000" fill="none" d="M274.75 164.09c1.25-1.21.38-4.42.98-8.88m-.02 8.8c.06-2.67-.68-5.13-.27-8.37m-.77-1.54c5.61 2.48 11.79.76 18.43 1.04m-18.27.26c5.9.73 11.38-.43 16.13.35m1.11-.17c-.44-1.37-.67-2.61-.63-3.92m.45 4.05c-.34-.89-.07-1.95-.03-4.45m1 1.37c4.2 1.33 11.7 4.15 16.74 6.77m-17.49-7.19c3.96 1.28 7.76 3.88 17.89 7.57m-2.25 1.27c-3.59 2.17-9.18 4.84-17.92 8.52m20.17-9.58c-6.44 3.19-12.1 5.33-17.77 9.43m-.32-.71c-.57-1.22-.22-2.57-.17-4.02m.07 3.91c-.31-1.57-.28-2.79-.29-4.3m.25-.52c-2.37.68-7.24-1.04-17.77-.66m17.74 1.13c-3.46.65-8.19.06-16.57-.19"/>
    <path pointer-events="all" fill="#fff" d="M304.59 171.47l.03 9.22-15.38-1.52-2.46 3.75-15.7-7.66 14.43-9.53 1.52 6.09 17.34.96"/>
    <path pointer-events="all" stroke-miterlimit="10" stroke-linecap="round" stroke-linejoin="round" stroke="#000" fill="none" d="M304.26 171.65c-1.56 2.75-1.36 5.08-.92 7.83m-.25-7.77c.5 2.87.62 5.98.02 8.59m1.74-1.34c-3.98 2.2-6.82 1.95-16.85 2.24m15.48-1.39c-4.79.36-10.54.6-16.1-.06m-.03.82c-.16 1.58.01 2.33-.4 4.58m.28-4.93c.41 1.45.15 2.48.38 4.48m.78 1.5c-4.13-4.66-7.98-4.13-15.6-11.66m14.95 10.3c-2.62-1.85-5.92-3.95-14.65-9.3m-1.37.26c4.15-.97 10.86-5.76 16.94-9.73m-16.02 10.29c4.81-3.92 9.2-5.66 14.62-8.51m-.16-.42c-.03.7.37 1.93.19 4.4m.06-4.81c.11 1.15-.11 2.09.09 4.68m.27-1.22c5.14 2.86 11.78 2.18 16.3.3m-16.54.21c3.2.72 7.62 1.2 15.88 1.04"/>
    <path d="M453.994 172.615h2.942v1.084h-2.942z" aria-label="-" font-size="12" text-anchor="middle" font-family="Helvetica"/>
    <path pointer-events="all" fill="#fff" d="M441.59 162.89l-.65-10.08 13.78 3.41 2.12-6.55 18.44 8.34-17.44 9.91-2-2.64-14.31-2.73"/>
    <path pointer-events="all" stroke-miterlimit="10" stroke-linecap="round" stroke-linejoin="round" stroke="#000" fill="none" d="M439.81 163.27c.27-1.9.72-3.87.22-8.41m.49 8.33c.03-2.48-.03-4.93-.16-8.83m.04 1.6c2.67-.76 6.81.27 15.05-2.33m-14.68.94c4.88-.46 9.26-.16 16.72.45m-.85-.08c-.25-1.13.34-2.79.28-4.43m-.13 4.05c-.08-.92-.14-2.1-.06-4.23m.57-1.07c6.05 4.63 10.08 8.03 18.9 11.32m-19.38-9.28c5.55 2.13 8.83 3.9 18.28 8.01m-1.42-2.22c-4.07 3.56-10.7 9.46-18.1 11.81m19.35-9.54c-7.05 2.73-11.3 5.16-18.37 8.48m-.15.1c-.09-2.11.14-3.94.43-4.69m-.05 4.17c.09-1.24.02-2.69-.26-4.07m-.24-1.48c-3.93.78-11.55 1.21-14.27-.01m14.08 1.58c-4.25-.89-8.2-.01-14.82.39"/>
    <path pointer-events="all" fill="#fff" d="M469.59 170.63l-2.24 9.63-13.98-1.76-1.67 5.98-13.15-9.26 13.38-8.24 1.14 4.56 17.16.94"/>
    <path pointer-events="all" stroke-miterlimit="10" stroke-linecap="round" stroke-linejoin="round" stroke="#000" fill="none" d="M469.32 170.82c-.84 2.19-1.06 5.91-1.68 8.31m1.13-8.24c-.51 2.17-.58 4.4.12 8.13m-1.53 1.78c-1.66-1.09-7.73-1.83-13.77-1.11m14.21-.71c-5.15.8-9.72.88-15.5.04m.5.02c-.88 1.03-.74 2.33-.34 4.95m.12-4.47c-.3 1.27 0 2.48-.11 4.25m.42-.65c-7.57-2.89-12.53-6.31-13.7-7.66m13.3 8.45c-4.13-1.47-7.34-4.93-14.32-8.91m-.63.67c6.43-4.31 11.49-7.73 13.32-10.31m-13.27 10.33c4.71-2.91 10.71-6.33 14.08-9.35m.8-.57c-.33 2.18-.06 3.5-.08 4.59m-.05-4.08c-.05.91.07 2.38.12 4.47m-.23 1.04c2.98-.49 9.48-2.25 16.57-2.27m-16.96.66c5 .92 9.58 1.25 16.01.01"/>
    <path d="M454.994 84.615h2.942V85.7h-2.942z" aria-label="-" font-size="12" text-anchor="middle" font-family="Helvetica"/>
    <path pointer-events="all" fill="#fff" d="M442.59 75.91l-1.43-10.53 15.45-.12 2.72-3.28 17.76 7.65-19.07 11.57-.55-7.33-16.83.27"/>
    <path pointer-events="all" stroke-miterlimit="10" stroke-linecap="round" stroke-linejoin="round" stroke="#000" fill="none" d="M441.89 75.72c-1.12-3.71-.94-6.16-.3-9.85m-.2 9.34c.26-1.7.18-4.15-.15-8.67m.25-1.06c3.52 1.63 10.24.57 15.85 1.3m-15.25-.79c5.57 1.25 10.62.92 15.37.86m.66-.51c-.18-1.63-.13-3.13-.67-3.53m.17 3.94c.3-1.02-.01-2.54.26-4.2m.35-.11c6.74 4.68 10.29 5.89 15.71 6.96m-16.16-6.34c7.55 3.69 13.24 5.69 16.85 7.33m2.63-1.17c-7.8 6.01-11.3 7.01-18.61 8.76m16.28-7.32c-6.96 3.46-12.91 5.62-17.45 8.86m.19-.19c-.04-1.26.27-2.08-.25-4.03m.37 4.36c-.13-1.09-.05-2.3.01-4.31m.24-.37c-4.12.34-9.66.63-15.45-.34m14.63.42c-3.95-.44-8.2.43-16.02.87"/>
    <path pointer-events="all" fill="#fff" d="M470.59 83.65l-3.03 9.18-12.29-1.29-1.08 5.25-13.83-9.96 11.74-10.57 2.6 7.87 14.64-.06"/>
    <path pointer-events="all" stroke-miterlimit="10" stroke-linecap="round" stroke-linejoin="round" stroke="#000" fill="none" d="M469.68 83.27c-.38 2.55-.87 4.51-.48 8.59m.43-8.95c-.35 1.55-.44 4.1.14 8.29m-1.32-.86c-3.38 1.36-9.46 1.76-16.2 2.49m16.87-.82c-6-.8-11.43-1.34-15.23-1.16m-.48.46c.09 1.75-.34 3.57-.45 4.1m.43-4.14c.14 1.42.17 2.99.23 4.74m.21.15c-4.61-1.31-7.6-5.19-16.49-8.03m16.11 7.58c-6.45-4.16-11.52-6.07-15.57-9.52m-.54 1.59c7.42-4.43 9.05-7.23 16.34-9.52m-15.97 8.82c6.25-2.9 12.33-7.4 14.89-9.02m1.15-.03c-.34 1.12.02 2.46-.8 4.39m.39-4.34c.15 1.79-.02 3.77-.05 4.68m.68-1.09c2.31 2.35 7.18.45 15.4.63m-16.41 1.11c4.63-.34 8.22-.03 16.43-1.13"/>
</svg>
