<svg xmlns="http://www.w3.org/2000/svg" viewBox="-0.5 -0.5 632 331" height="331" width="632">
    <path pointer-events="all" fill="#d4d4d4" d="M17.31 10.06l595.47-.03 12.39.58 4.55 9.16-.02 9.47 1.84 253.91-2.57 9.03-6.7 5.07-10.46 1.36-594.49-.03-9.51-2.02-4.94-1.82-4.31-12.54.16-254.71L.5 20.78l2.62-5.45 5.59-3.22 7.04-4.03"/>
    <path pointer-events="all" stroke-miterlimit="10" stroke-linecap="round" stroke-linejoin="round" stroke="#000" fill="none" d="M16.65 10.08c209.86 1.87 418.86 1.41 596.58.02M17.58 9.79c211.44 2.31 422.45 2.01 595.24.53m-.22-.32c10.71 1.3 17.74 6.46 18.41 17.41m-18.4-18.2c13.79 2.98 19.62 7.38 17.57 20.09m.32-3.43c-1.38 87.55-.13 174.19-.13 256.05m-.39-254.37c-.12 84.68.36 168.82-.28 255.61m.3-.56c-1.32 13.52-6.67 19.03-15.73 18.87M631 281.31c-.3 11.79-7.69 19.96-18.72 18.75m-.34-.72c-229.43 2.66-459.64 1.49-593.77.03m594.4.75c-225.17.98-450.58 1.42-595.2.02m.03-.14c-11.84 1.4-16.12-7.07-18.7-16.3m20.08 14.92c-13.68 1.75-18.49-6.6-20.59-15.2m1.14-.42c-.25-54.4.03-112.31.53-255.51M-.8 282.85c.2-67.49-.05-133.77.69-255.25m.11-.2C.52 16.2 3.9 11.92 17.52 9.2M.63 26.68c-1.73-8.85 3.96-15.47 15.5-17.49"/>
    <path d="M40 0h110.58v60H40z" fill="none"/>
    <path d="M13.978 39.003c0-3.996.08-7.992.027-11.961.027-1.053.108-2.457-.135-3.564 0 .027-.027-.351-.486-.486-.081 0-.162-.027-.243-.027-1.27 0-1.161 2.835-1.242 3.753-.027 4.698-.162 9.558-.27 14.283v.216c0 .756.243 1.026.62 1.026.649 0 1.702-.81 2.35-1.161 1.674-.891 3.348-1.782 4.995-2.7.324-.135.459-.405.459-.648 0-.351-.216-.675-.594-.837-.81-.351-1.377.081-2.187.378-1.107.54-2.187 1.134-3.294 1.728zm7.168-3.915c0 .432.054.81.243 1.08.216.243.162.054.135.621 0 1.242.162 2.538.756 3.672 1.026 1.458 2.106 2.079 3.16 2.079 2.753 0 5.183-4.212 5.183-7.668a6.58 6.58 0 00-.135-1.296c-.35-2.106-1.836-3.996-3.996-4.347a4.12 4.12 0 00-.81-.081c-1.674 0-3.294 1.134-3.969 3.105-.216.675-.567 1.863-.567 2.835zm2.187.54c.081-1.458.19-3.186 1.485-4.104 1.107-.594 2.538.135 3.132 1.161a4.53 4.53 0 01.46 1.863c.296 1.674-1.918 7.506-4.078 5.184-.675-.729-1.134-2.511-.999-4.104zm17.405-4.914c-.675-.999-1.836-1.431-3.024-1.431-.675 0-1.35.135-1.944.405-2.592 1.215-3.807 4.077-4.05 6.777-.027.243-.054.486-.054.729 0 4.212 4.293 6.777 7.29 2.916.135-.297.108 0 .081.135-.054 1.188.54 3.429-.62 4.185-1.189.378-2.404-.378-3.538-.783-.81-.27-1.242.351-1.242.972.054.945 1.134 1.269 1.81 1.674.755.378 1.7.648 2.591.648.918 0 1.81-.297 2.43-1.08.783-1.242.972-2.727.972-4.266 0-1.62-.216-3.294-.135-4.806-.054-1.755-.135-3.483-.162-5.238.054-.216-.162-.702-.405-.837zm-1.755.783c-.054 2.565-.459 5.697-2.24 7.776-1.54 1.458-2.97-.486-2.89-2.295 0-2.484 2.08-7.128 5.13-5.481zm5.87-1.458c.108-1.107-1.512-1.296-1.863-.297-.324 2.322-.378 4.347-.432 6.642 0 1.215.027 2.43.189 3.645.08.702-.054 2.052.945 2.241.054.027.135.027.189.027 1.296 0 1.134-1.539 1.053-2.484-.108-3.267-.27-6.534-.081-9.774zm.297-4.104c0-.621-.432-1.242-1.242-1.242-1.647 0-1.647 2.457-.027 2.484.837 0 1.269-.621 1.269-1.242zm3.356 6.75c-.054-.486-.027-.972-.081-1.458-.081-.594-.783-.837-1.27-.594-.404.189-.485.621-.485 1.053 0 .378.054.783.08 1.053.055 1.431.19 2.835.352 4.266a64.61 64.61 0 00.567 3.159c.162.675.216 2.052 1.188 2.16 1.107 0 1.242-.999 1.026-1.89a28.979 28.979 0 01-.135-2.16c.054-1.809.108-5.535 1.728-6.588.81-.216 1.296.297 1.674 1.647.62 2.754.297 5.589.378 8.37-.027.324.432.945 1.026.945.08 0 .189 0 .27-.027.675-.135.918-1.728.918-3.672 0-2.808-.513-6.318-1-7.155-.54-1.242-1.565-2.376-2.97-2.376h-.215c-1.296-.081-2.673 1.971-3.051 3.267zm8.342-5.913c0 .162.08.351.324.486h.027c.324.162.135-.081.08.756a59.04 59.04 0 00-.242 3.078c-.135 2.484-.108 4.968-.081 7.452-.027 1.161-.081 2.16.35 3.24.136.351.46.513.81.513.433 0 .946-.297 1.08-.81.136-.351.055-.702.028-1.053 0-.216-.054-.891-.054-1.188a138.797 138.797 0 01-.216-4.563c2.51-.945 5.319-3.564 6.453-6.129a5.442 5.442 0 00.486-2.187c0-1.836-1.107-3.321-3.43-3.321-.161 0-.323 0-.512.027-1.431.135-2.727.783-3.726 1.836-.297.324-.567.648-.864.972-.243.243-.513.567-.513.891zm2.538-.351c.945-.891 2.24-1.782 3.618-1.377.864.324.837 1.431.62 2.16-.782 2.187-2.618 4.05-4.535 5.292.054-2.052.08-3.996.297-6.075zm12.652 5.778c-.405-2.349-1.269-3.132-2.349-3.132-1.539 0-3.537 1.647-5.292 2.754-.675.324-.432 2.052.756 1.674 1.431-.918 2.7-1.728 4.212-2.376.702.243.702 3.132.837 3.861-3.267-2.538-7.29 1.809-7.29 4.968 0 1.485.891 2.7 3.16 2.808 1.538-.135 2.942-.648 4.454-1.188.216.621 1.026.891 1.62.594.621-.27.594-.972.54-1.539.486-.135.702-.54.702-.945 0-.486-.27-.999-.81-1.107-.162-2.052-.27-4.617-.54-6.372zm-6.912 7.56c.621-3.564 4.32-4.806 5.103-.432-1.404.351-3.375 1.539-4.752.918-.027 0-.432-.27-.35-.486zm18.433-9.045c-.675-.999-1.836-1.431-3.024-1.431-.675 0-1.35.135-1.944.405-2.592 1.215-3.807 4.077-4.05 6.777-.027.243-.054.486-.054.729 0 4.212 4.293 6.777 7.29 2.916.135-.297.108 0 .08.135-.053 1.188.54 3.429-.62 4.185-1.188.378-2.403-.378-3.537-.783-.81-.27-1.242.351-1.242.972.054.945 1.134 1.269 1.809 1.674.756.378 1.7.648 2.592.648.918 0 1.809-.297 2.43-1.08.783-1.242.972-2.727.972-4.266 0-1.62-.216-3.294-.135-4.806-.054-1.755-.135-3.483-.162-5.238.054-.216-.162-.702-.405-.837zm-1.755.783c-.054 2.565-.46 5.697-2.241 7.776-1.54 1.458-2.97-.486-2.89-2.295 0-2.484 2.08-7.128 5.13-5.481zm11.917.756c0-.54-.108-1.107-.35-1.674-.676-.918-1.405-1.296-2.16-1.296-2.593.027-5.293 4.59-5.698 6.939a5.61 5.61 0 00-.216 1.458c0 2.619 1.917 4.644 4.401 4.644.324 0 .675-.054 1.053-.135 1.188-.189 3.888-1.674 2.322-2.943-.864-.351-1.62.621-2.484.729-1.566.513-3.132-.675-2.97-2.376 2.89.297 6.102-2.403 6.102-5.346zm-4.347 3.024c-.513.243-1.323.162-1.323.162.567-1.431 1.404-2.943 2.7-3.942.432-.297 1.215-.135 1.107.54-.108 1.458-1.215 2.646-2.484 3.24zm7.872.891a17.992 17.992 0 01-.162-3.807 25.7 25.7 0 01.27-2.079c.243-1.053.54-2.052.918-3.078.081-.216.19-.513.405-.945.162-.351.351-.675.648-.945.108-.081.243-.135.351-.189.567-.216 1.161.081 1.566.459.243.216.432.486.621.756.162.27.324.54.46.81.161.351.27.783.728.864.054.027.135.027.216.027.243-.027.432-.135.621-.297a.89.89 0 00.216-.594c-.027-.081-.027-.081-.054-.189-.08-.243-.35-.972-1.107-1.998-.486-.594-1.053-1.08-1.755-1.404a3.403 3.403 0 00-1.16-.216c-.784 0-1.54.297-2.16.81a7.69 7.69 0 00-.622.702 11.432 11.432 0 00-1.08 2.052c-.162.378-.297.756-.432 1.161a20.985 20.985 0 00-.756 3.375 21.75 21.75 0 00-.162 2.646v.189c.081 1.701.378 3.348 1.08 4.887a8.249 8.249 0 001.08 1.647c.594.621 1.215.999 2.025 1.296.405.108.81.162 1.161.162.864 0 1.485-.27 1.512-.27a4.869 4.869 0 001.593-.972c.648-.594 1.107-1.269 1.458-2.106.027-.081.054-.216.054-.378 0-.216-.08-.513-.405-.756-.27-.189-.567-.297-.89-.27a1.092 1.092 0 00-.81.459 1.206 1.206 0 00-.082.189 3.764 3.764 0 01-.864 1.296c-.35.351-.756.621-1.269.729-1.16.162-2.025-.891-2.51-1.836a8.406 8.406 0 01-.595-1.755c-.054-.135-.08-.297-.108-.432zm8.644-1.08c0 .432.055.81.244 1.08.216.243.162.054.135.621 0 1.242.162 2.538.756 3.672 1.026 1.458 2.106 2.079 3.159 2.079 2.754 0 5.184-4.212 5.184-7.668a6.58 6.58 0 00-.135-1.296c-.351-2.106-1.836-3.996-3.996-4.347a4.12 4.12 0 00-.81-.081c-1.674 0-3.294 1.134-3.97 3.105-.215.675-.566 1.863-.566 2.835zm2.188.54c.08-1.458.189-3.186 1.485-4.104 1.107-.594 2.538.135 3.132 1.161.297.594.432 1.215.459 1.863.297 1.674-1.917 7.506-4.077 5.184-.675-.729-1.134-2.511-1-4.104zm10.195-2.943c-.054-.486-.027-.972-.08-1.458-.082-.594-.784-.837-1.27-.594-.405.189-.486.621-.486 1.053 0 .378.054.783.081 1.053.054 1.431.19 2.835.351 4.266a64.61 64.61 0 00.567 3.159c.162.675.216 2.052 1.188 2.16 1.107 0 1.242-.999 1.026-1.89a28.979 28.979 0 01-.135-2.16c.054-1.809.108-5.535 1.728-6.588.81-.216 1.296.297 1.674 1.647.621 2.754.297 5.589.378 8.37-.027.324.432.945 1.026.945.081 0 .19 0 .27-.027.675-.135.918-1.728.918-3.672 0-2.808-.513-6.318-.999-7.155-.54-1.242-1.566-2.376-2.97-2.376h-.216c-1.296-.081-2.673 1.971-3.05 3.267zm12.327-4.536a42.39 42.39 0 01.46-3.159c.243-.729.08-1.62-.756-1.593h-.162c-.594.135-.621.702-.73 1.215a149.719 149.719 0 00-.701 3.699c-.27.054-.702.108-1.026.162-.648.108-1.674.027-1.755.891.08 1.593 1.43 1.026 2.484.972-.243 2.997-1.35 9.666 1.377 11.556.216.216.729.378 1.242.378.486 0 .999-.135 1.296-.513.513-.648 1.08-1.674.08-2.295-.512-.243-1.214-.108-1.457.432-1.323-1.539-.675-7.452-.594-9.612.405 0 .999.027 1.43.054.892-.108 1.837.513 2.458-.621.027-.135.054-.27.054-.405 0-.594-.432-1.161-1.08-1.188a16.929 16.929 0 00-2.62.027zm12.788 4.05c-.405-2.349-1.27-3.132-2.35-3.132-1.538 0-3.536 1.647-5.291 2.754-.675.324-.432 2.052.756 1.674 1.43-.918 2.7-1.728 4.212-2.376.702.243.702 3.132.837 3.861-3.267-2.538-7.29 1.809-7.29 4.968 0 1.485.89 2.7 3.159 2.808 1.539-.135 2.943-.648 4.455-1.188.216.621 1.026.891 1.62.594.62-.27.594-.972.54-1.539.486-.135.702-.54.702-.945 0-.486-.27-.999-.81-1.107-.162-2.052-.27-4.617-.54-6.372zm-6.912 7.56c.62-3.564 4.32-4.806 5.103-.432-1.404.351-3.375 1.539-4.752.918-.027 0-.432-.27-.351-.486zm11.736-9.72c.108-1.107-1.512-1.296-1.863-.297-.324 2.322-.378 4.347-.432 6.642 0 1.215.027 2.43.19 3.645.08.702-.055 2.052.944 2.241.054.027.135.027.19.027 1.295 0 1.133-1.539 1.052-2.484-.108-3.267-.27-6.534-.08-9.774zm.297-4.104c0-.621-.432-1.242-1.242-1.242-1.647 0-1.647 2.457-.027 2.484.837 0 1.27-.621 1.27-1.242zm3.356 6.75c-.054-.486-.027-.972-.08-1.458-.082-.594-.784-.837-1.27-.594-.405.189-.486.621-.486 1.053 0 .378.054.783.081 1.053.054 1.431.19 2.835.351 4.266a64.61 64.61 0 00.567 3.159c.162.675.216 2.052 1.188 2.16 1.107 0 1.242-.999 1.026-1.89a28.979 28.979 0 01-.135-2.16c.054-1.809.108-5.535 1.728-6.588.81-.216 1.296.297 1.674 1.647.621 2.754.297 5.589.378 8.37-.027.324.432.945 1.026.945.081 0 .19 0 .27-.027.675-.135.918-1.728.918-3.672 0-2.808-.513-6.318-.999-7.155-.54-1.242-1.566-2.376-2.97-2.376h-.216c-1.296-.081-2.673 1.971-3.05 3.267zm16.739-.432c0-.54-.108-1.107-.351-1.674-.675-.918-1.404-1.296-2.16-1.296-2.592.027-5.292 4.59-5.697 6.939a5.61 5.61 0 00-.216 1.458c0 2.619 1.917 4.644 4.401 4.644.324 0 .675-.054 1.053-.135 1.188-.189 3.888-1.674 2.322-2.943-.864-.351-1.62.621-2.484.729-1.566.513-3.132-.675-2.97-2.376 2.889.297 6.102-2.403 6.102-5.346zm-4.347 3.024c-.513.243-1.323.162-1.323.162.567-1.431 1.404-2.943 2.7-3.942.432-.297 1.215-.135 1.107.54-.108 1.458-1.215 2.646-2.484 3.24zm7.575-4.374c0-.351.027-.702.027-1.053.054-.621-.459-.972-.972-.972a.992.992 0 00-.972.702c-.135 1.215-.08 1.755-.162 2.916a227.588 227.588 0 00-.054 4.293c0 .945 0 1.917.027 2.862.027.783-.27 2.187.73 2.565.107.054.242.054.35.054.486 0 .972-.297 1.026-.783.027-.459-.027-.891-.027-1.35-.189-1.512.594-9.423 2.997-8.829.486.27.918.837 1.54.54a1.05 1.05 0 00.566-.918.901.901 0 00-.243-.621c-1.16-1.539-3.402-1.377-4.833.594z" aria-label="LoginPageContainer" font-size="27" text-anchor="middle" font-weight="bold" font-family="SS Soapy Hands"/>
    <path pointer-events="all" fill="#e6e6e6" d="M117.51 51.42l482.2-1.17 5.34 5.55 1.41 8.54L605 251.58l-5.82 4.9-7.19 1.95-478.03 2.59-8.46-4.82.11-8.27-.24-184.3 4.6-8.64 8.02-3.25"/>
    <path pointer-events="all" stroke-miterlimit="10" stroke-linecap="round" stroke-linejoin="round" stroke="#000" fill="none" d="M116.95 49.75c150.37.41 302.01-.57 475.57-.21m-475.04.31c181.23 1.64 361.47 2.29 474.78.42m.14-.27c10.37-1.71 12.77 2.96 14.48 12.22M591 50.12c10.16-2.28 15.7 5.51 15.81 12.99m-.8-.86c-1.32 55.24-1.14 108.36-2.21 186.58m.72-186.93c-2.13 71.1-1.51 139.62.98 186.21m-.5-.71c1.55 6.45-5.87 12.89-12.48 12.48m12.82-11.17c-.76 5.27-6.18 11.23-14.14 10.74m.86 1.03c-125.8.87-254.03 1.13-474.2-.23m474.48-.06c-183.48-.79-366.98-1.05-474.8.04m.06-.23c-9.46-.75-13.45-5.31-12.11-11.06m13.39 11.33c-9.43-1.28-14.48-4.48-15.92-13.27m1.44 2.37c1.44-48.67 1.18-91.38 1.18-185.43m-1.2 183.84c-.81-38.15-1.38-73.63-.09-184.47m.71-.71c-.7-8.35 4.6-10.98 13.16-11.75m-12.39 11.72c-1.23-8.36 1.49-14.81 13.36-14.07"/>
    <path pointer-events="all" fill="#fff" d="M33.31 291.76l107.29-2.84.59 39.04-108.97.62-.17-36.31 2.85-3.59"/>
    <path pointer-events="all" stroke-miterlimit="10" stroke-linecap="round" stroke-linejoin="round" stroke="#000" fill="none" d="M34.15 288.78c22.35 1.59 47.96-1.45 103.37.07m-104.34 1.12c38.8 1.21 77.09.18 105.17-.89m.25.92c3.04 1.9 3.49 1.19 3.64 3.07m-5.38-5.04c2.13 2.93 5.49 3.06 6.19 5.92m-3.92.22c.13 8.35.21 19.92.03 31.57m1.71-33.8c.66 12.39 1.08 23.88-.62 34.76m.75.9c-.39 1.73-1.84 3.39-2.11 2.73m.37-3.48c1.59 2.26-.82 5 .03 4.87m-1.22-.34c-25.66-1.76-50.5 1.53-105.61-1.25m106.34.85c-35.92-1.11-69.52-1.32-105.24-1.86m-.16.88c-2.33.82-3.75.92-3-.93m1.09 1.15c1 .83-1.56 1.16 1.41-2.34m-1.99 1.48c-1-14.95 2.17-29.34 1.48-36.37m-1.77 34.35c-.13-8.84 1.24-19.53.73-35.54m-.35.6c1.09-3.5.35-3.13.45-4.2m.88 2.89c.58-1.28-.3.04-.94-2.39"/>
    <path d="M67.716 313.82c1.9-1.66 4.18-3.68 4.18-6.26v-.28c-.08-1.24-.82-2.56-2.26-2.64-.06 0-.1-.02-.16-.02-1.3.02-2.2 1-3.2 1.72-.2 0-.4.08-.42.3-.22.14-.2.36-.06.48-.14 1.8-.14 3.6-.14 5.4v.94c0 1.58.04 3.18.44 4.7.06.24.24.34.42.34.28 0 .58-.22.6-.56.04-1.04-.04-2.1-.12-3.14.18.1.38.26.48.34.34.22.68.46 1.02.68.66.44 1.3.8 2.08 1.04.36.1.82-.26.56-.6-.6-.84-1.66-1.24-2.5-1.82-.3-.22-.62-.44-.92-.62zm1.14-2.62c-.6.66-1.3 1.14-2.02 1.68 0-.14-.02-.28-.02-.44-.08-1.86-.2-3.68-.08-5.54.78-.54 1.6-1.24 2.56-1.28 1.24-.04 1.5 1.72 1.32 2.54-.22 1.1-1 2.2-1.76 3.04zm6.952-2.06c-2.34 0-3.12 2.58-3.12 4.5 0 .24.12.42.28.5-.08 1.68.18 3.42 1.66 4.22.36.2.72.28 1.06.28 2.16 0 3.6-3.42 3.6-5.38 0-2.12-1.18-4.12-3.48-4.12zm-1.12 7.76c-.98-1.1-.88-2.94-.68-4.4.22-1.08.72-2.16 1.8-2.16.2 0 .44.04.68.12 1.68.58 1.78 2.64 1.38 4.08-.24.88-1.18 2.84-2.28 2.84-.3 0-.6-.14-.9-.48zm11.582-6.8c.08-.66-.96-.76-1.12-.16-.34 1.26-.56 2.54-.82 3.82-.2.88-.46 3.2-1.54 3.38-.52.08-.6-.12-.86-.58-.16-.3-.28-.64-.38-.96-.18-.64-.28-1.32-.32-2-.08-1.32 0-2.68.18-4a.522.522 0 00-.52-.58c-.18 0-.34.1-.38.34-.18 1.38-.44 2.74-.44 4.12 0 .4.02.8.08 1.22.16 1.3.64 3.5 2.18 3.8.12.04.24.04.36.04 1.22 0 1.9-1.26 2.26-2.32.16.64.42 1.24.76 1.84.36.6 1.2.24 1.2-.34 0-.1-.02-.22-.08-.32-1.18-2.28-.84-4.86-.56-7.3zm4.497-1.7c.12-1 .28-2.02.46-3 .06-.32-.2-.54-.46-.54-.16 0-.32.1-.36.32-.24 1.12-.46 2.22-.62 3.32l-1.68.24c-.26.04-.38.22-.38.42 0 .3.26.64.66.58.4-.08.82-.1 1.22-.14-.22 1.7-.34 3.42-.3 5.18.02 1.2.14 2.66 1.22 3.42.26.2.54.28.8.28.62 0 1.12-.48 1.22-1.22.04-.36-.28-.58-.6-.58-.26 0-.5.14-.56.42 0 .06-.04.08-.06.08-.12 0-.38-.32-.4-.34-.14-.22-.22-.52-.28-.76-.1-.48-.12-.98-.14-1.48-.04-1.02-.04-2.06 0-3.08.04-.64.08-1.3.14-1.94.76 0 1.52.04 2.28.08.42.02.62-.28.62-.6 0-.32-.2-.66-.62-.68-.72-.06-1.44-.04-2.16.02zm8.033 2.86c0-.96-.52-2-1.58-2-.72 0-1.46.52-1.94.98-1.16 1.12-2.32 3.28-2.32 5.12 0 1.76 1.22 3.14 3.06 3.14.92 0 1.86-.38 2.52-1.12.28-.32.04-.84-.34-.84-.08 0-.16.02-.24.08-.58.34-1.28.64-1.92.64-.6 0-1.16-.26-1.54-.94-.22-.38-.28-.86-.22-1.36.2.06.4.08.62.08 1.78 0 3.9-1.94 3.9-3.78zm-1.88-.86c1.14-.18.92.86.72 1.44-.34 1.08-1.9 2.3-3.12 1.98.24-.88 1-2.26 1.66-2.86.18-.18.46-.5.74-.56zm3.902.54c-.02.02-.04.06-.04.08 0-.5.02-1.02.04-1.54.02-.34-.24-.5-.5-.52-.26 0-.54.18-.56.52-.1 1.68-.14 3.34-.14 5.02 0 1.16.02 2.3.06 3.46 0 .36.28.54.58.54.28 0 .56-.18.54-.54-.02-.52-.04-1.02-.04-1.54.02-1.26.56-6.08 2.2-6.08.22 0 .46.1.74.34.12.1.24.14.34.14.28 0 .52-.24.52-.52 0-.58-.98-1.06-1.48-1.06-.9 0-1.82.8-2.26 1.7z" aria-label="Router" font-size="20" text-anchor="middle" font-family="SS Soapy Hands"/>
    <path pointer-events="all" fill="#fff" d="M163.31 288.1l105.7 3.67 1.14 37.87-108.76.38.93-36.54.97-4.37"/>
    <path pointer-events="all" stroke-miterlimit="10" stroke-linecap="round" stroke-linejoin="round" stroke="#000" fill="none" d="M163.78 290.95c28.91-3.16 55.22-2.68 104.81.35m-105.79-1.43c36.92 1.48 73.16 1.43 104.86-.38m.94.51c1.52-1.83 4.02-.76 2.24 3.47m-1.17-2.74c-.7-.86.13-.76-.86 1.52m4.15-.48c-.12 15.46-1.34 28.8-2.09 35.79m-.06-34.58c-.48 8.48.01 18.29.3 35.35m-.11-.73c1.79.32-1.05 2.67-1.63 4.25m3.12-4.35c-1.13 2.4-2.37 4.58-5 4.21m2-1.29c-42.42-.44-82-.48-107.5.2m107.33-1.61c-26.62 1.25-51.32 1.66-105.39.03m-.53.96c.37-.1-2.68-.8-3.77-4.06m4.21 3.65c-.82-.61-4.68-1.81-3.6-1.32m1.33-.3c-2.08-9.58-1.11-16.84-1.45-34.6m.69 33.65c.89-10.31.83-21.46-.12-34.17m.31-.45c.84-3.42 2.52-3.11 2.41-2.59m-2.51 3.22c1-1.53 3-2.41 3.43-3.97"/>
    <path d="M176.209 315.24c-.24-1.1-.46-2.22-.7-3.32-.48-2.14-.92-4.3-1.5-6.42.02-.26-.2-.4-.44-.4-.22 0-.44.1-.52.32-.72 2.08-1.34 4.22-1.84 6.36-.46 2.1-1 4.28-1.08 6.42v.02c0 .22.2.32.4.32.18 0 .36-.08.42-.26.28-.98.54-1.48.76-2.48 1.14-.14 2.06-.34 3.18-.52 0 .04 0 .06.02.1.12.54.22 1 .34 1.56.12.5.34 1.08.7 1.48.16.16.64.06.7-.14.04-.14.06-.28.06-.42 0-.36-.1-.72-.18-1.04-.1-.54-.22-1.06-.32-1.58zm-3.66-3.34c.38-1.54.56-2.64.96-4.18.26 1.6.32 2.36.64 3.96.18.8.38 1.86.52 2.7-1.06.04-1.66.06-2.7.26.2-.96.36-1.8.58-2.74zm7.423 5.3c-1.36-.14-1.28-2.26-1.08-3.22.2-.94.56-1.88 1.02-2.72.24-.42.52-1.04.94-1.3.86-.54 1.2.46 1.3 1.12.1.64 1.02.42 1.02-.18v-.08c-.16-1.1-.88-2.22-1.92-2.22-.28 0-.6.1-.94.32-1.42.9-2.3 3.16-2.64 4.74-.1.44-.16.94-.16 1.44 0 1.24.38 2.54 1.5 3.14.3.18.64.26.96.26 1.1 0 2.22-.82 2.9-1.58.5-.6-.36-1.48-.88-.88-.46.52-1.28 1.24-2.02 1.16zm6.868-8.8c.12-1 .28-2.02.46-3 .06-.32-.2-.54-.46-.54-.16 0-.32.1-.36.32-.24 1.12-.46 2.22-.62 3.32l-1.68.24c-.26.04-.38.22-.38.42 0 .3.26.64.66.58.4-.08.82-.1 1.22-.14-.22 1.7-.34 3.42-.3 5.18.02 1.2.14 2.66 1.22 3.42.26.2.54.28.8.28.62 0 1.12-.48 1.22-1.22.04-.36-.28-.58-.6-.58-.26 0-.5.14-.56.42 0 .06-.04.08-.06.08-.12 0-.38-.32-.4-.34-.14-.22-.22-.52-.28-.76-.1-.48-.12-.98-.14-1.48-.04-1.02-.04-2.06 0-3.08.04-.64.08-1.3.14-1.94.76 0 1.52.04 2.28.08.42.02.62-.28.62-.6 0-.32-.2-.66-.62-.68-.72-.06-1.44-.04-2.16.02zm3.745 1.2c-.16 1.54-.28 3.14-.28 4.72 0 1.28.08 2.54.28 3.78.06.26.28.4.5.4.3 0 .6-.2.6-.56-.04-2.8-.26-5.54-.06-8.34.04-.66-.96-.64-1.04 0zm1.04-3.54c-.06-.04-.1-.08-.14-.12a.827.827 0 00-.38-.1h-.02c-.08 0-.18.02-.26.06-.08.04-.16.08-.24.16a.48.48 0 00-.14.24c-.04.08-.06.18-.06.28 0 .06.02.12.02.18.04.14.1.24.18.34.06.02.1.06.16.1.1.08.24.1.36.1.1 0 .2-.02.28-.06.1-.02.18-.08.24-.14a.75.75 0 00.14-.24c.06-.08.08-.16.08-.26v-.02c-.02-.06-.02-.14-.04-.2-.02-.12-.1-.22-.18-.32zm4.296 9.54c-.6-2.04-1.28-4.06-1.98-6.04-.2-.56-1-.4-1 .1 0 .04.02.1.02.16.8 2.74 1.58 5.48 2.36 8.22.08.3.34.44.6.46.26 0 .52-.16.58-.46.66-2.78 1.68-5.42 2.84-8.02.04-.08.06-.18.06-.26 0-.38-.34-.66-.66-.66-.16 0-.34.1-.44.32-.98 1.98-1.74 4.06-2.38 6.18zm9.929-2.18c-.08-1.16-.14-2.56-.68-3.6-.28-.52-.64-.76-1.04-.76-.88 0-3.16 1.54-3.84 2.04-.4.32-.16.92.24.92.08 0 .16-.02.26-.08.7-.52 1.44-.96 2.24-1.32.2-.1.6-.4.84-.4.52 0 .58 1.08.64 1.48.1.68.16 1.36.2 2.06-.46-.46-1.1-.82-1.78-.82-1.92 0-3.64 2.12-3.64 3.98 0 1.26.8 1.92 1.98 1.92.94 0 2.66-.58 3.58-.94.02.4.36.6.68.6.5 0 .6-.34.6-.76l-.02-.26v-.14l.26-.12c.2-.1.28-.28.28-.46 0-.34-.26-.68-.6-.62a7.75 7.75 0 01-.04-.68l-.12-1.36c0-.22-.02-.46-.04-.68zm-4.98 3.94c-.48-.3-.38-.48-.26-.98.22-1.02 1.18-2.18 2.28-2.18 1.12 0 1.68 1.54 1.82 2.44-.58.22-2.58.9-3.18.9-.22 0-.44-.04-.66-.18zm8.94-8.96c.12-1 .28-2.02.46-3 .06-.32-.2-.54-.46-.54-.16 0-.32.1-.36.32-.24 1.12-.46 2.22-.62 3.32l-1.68.24c-.26.04-.38.22-.38.42 0 .3.26.64.66.58.4-.08.82-.1 1.22-.14-.22 1.7-.34 3.42-.3 5.18.02 1.2.14 2.66 1.22 3.42.26.2.54.28.8.28.62 0 1.12-.48 1.22-1.22.04-.36-.28-.58-.6-.58-.26 0-.5.14-.56.42 0 .06-.04.08-.06.08-.12 0-.38-.32-.4-.34-.14-.22-.22-.52-.28-.76-.1-.48-.12-.98-.14-1.48-.04-1.02-.04-2.06 0-3.08.04-.64.08-1.3.14-1.94.76 0 1.52.04 2.28.08.42.02.62-.28.62-.6 0-.32-.2-.66-.62-.68-.72-.06-1.44-.04-2.16.02zm8.034 2.86c0-.96-.52-2-1.58-2-.72 0-1.46.52-1.94.98-1.16 1.12-2.32 3.28-2.32 5.12 0 1.76 1.22 3.14 3.06 3.14.92 0 1.86-.38 2.52-1.12.28-.32.04-.84-.34-.84-.08 0-.16.02-.24.08-.58.34-1.28.64-1.92.64-.6 0-1.16-.26-1.54-.94-.22-.38-.28-.86-.22-1.36.2.06.4.08.62.08 1.78 0 3.9-1.94 3.9-3.78zm-1.88-.86c1.14-.18.92.86.72 1.44-.34 1.08-1.9 2.3-3.12 1.98.24-.88 1-2.26 1.66-2.86.18-.18.46-.5.74-.56zm8.461-.8c-3-1.12-5.8 2.68-5.8 5.84 0 .72.16 1.42.48 2 1.04 1.9 2.96.9 4.08-.36.24-.24.44-.5.64-.78-.04.72-.04 1.44.18 2.06.08.24.28.36.48.36.2 0 .42-.14.5-.36.38-.94.22-2.18.26-3.18l.12-3.24c.08-2.2.2-4.4.44-6.6v-.04c0-.26-.2-.38-.4-.38-.22 0-.46.14-.48.42-.16 1.42-.34 2.84-.5 4.26zm-4.54 6.64c-.6-2.4 1.48-6.34 4.26-5.38.04.02.08.02.12.02-.04.28-.06.56-.1.86v.02c0 .06 0 .12-.02.18-.06.58-.1 1.16-.14 1.72-.16.56-.44 1.08-.78 1.6-.42.64-.92 1.28-1.56 1.74-.86.62-1.52.22-1.78-.76zm9.101-2.42c1.9-1.66 4.18-3.68 4.18-6.26v-.28c-.08-1.24-.82-2.56-2.26-2.64-.06 0-.1-.02-.16-.02-1.3.02-2.2 1-3.2 1.72-.2 0-.4.08-.42.3-.22.14-.2.36-.06.48-.14 1.8-.14 3.6-.14 5.4v.94c0 1.58.04 3.18.44 4.7.06.24.24.34.42.34.28 0 .58-.22.6-.56.04-1.04-.04-2.1-.12-3.14.18.1.38.26.48.34.34.22.68.46 1.02.68.66.44 1.3.8 2.08 1.04.36.1.82-.26.56-.6-.6-.84-1.66-1.24-2.5-1.82-.3-.22-.62-.44-.92-.62zm1.14-2.62c-.6.66-1.3 1.14-2.02 1.68 0-.14-.02-.28-.02-.44-.08-1.86-.2-3.68-.08-5.54.78-.54 1.6-1.24 2.56-1.28 1.24-.04 1.5 1.72 1.32 2.54-.22 1.1-1 2.2-1.76 3.04zm6.951-2.06c-2.34 0-3.12 2.58-3.12 4.5 0 .24.12.42.28.5-.08 1.68.18 3.42 1.66 4.22.36.2.72.28 1.06.28 2.16 0 3.6-3.42 3.6-5.38 0-2.12-1.18-4.12-3.48-4.12zm-1.12 7.76c-.98-1.1-.88-2.94-.68-4.4.22-1.08.72-2.16 1.8-2.16.2 0 .44.04.68.12 1.68.58 1.78 2.64 1.38 4.08-.24.88-1.18 2.84-2.28 2.84-.3 0-.6-.14-.9-.48zm11.583-6.8c.08-.66-.96-.76-1.12-.16-.34 1.26-.56 2.54-.82 3.82-.2.88-.46 3.2-1.54 3.38-.52.08-.6-.12-.86-.58-.16-.3-.28-.64-.38-.96-.18-.64-.28-1.32-.32-2-.08-1.32 0-2.68.18-4a.522.522 0 00-.52-.58c-.18 0-.34.1-.38.34-.18 1.38-.44 2.74-.44 4.12 0 .4.02.8.08 1.22.16 1.3.64 3.5 2.18 3.8.12.04.24.04.36.04 1.22 0 1.9-1.26 2.26-2.32.16.64.42 1.24.76 1.84.36.6 1.2.24 1.2-.34 0-.1-.02-.22-.08-.32-1.18-2.28-.84-4.86-.56-7.3zm4.496-1.7c.12-1 .28-2.02.46-3 .06-.32-.2-.54-.46-.54-.16 0-.32.1-.36.32-.24 1.12-.46 2.22-.62 3.32l-1.68.24c-.26.04-.38.22-.38.42 0 .3.26.64.66.58.4-.08.82-.1 1.22-.14-.22 1.7-.34 3.42-.3 5.18.02 1.2.14 2.66 1.22 3.42.26.2.54.28.8.28.62 0 1.12-.48 1.22-1.22.04-.36-.28-.58-.6-.58-.26 0-.5.14-.56.42 0 .06-.04.08-.06.08-.12 0-.38-.32-.4-.34-.14-.22-.22-.52-.28-.76-.1-.48-.12-.98-.14-1.48-.04-1.02-.04-2.06 0-3.08.04-.64.08-1.3.14-1.94.76 0 1.52.04 2.28.08.42.02.62-.28.62-.6 0-.32-.2-.66-.62-.68-.72-.06-1.44-.04-2.16.02zm8.034 2.86c0-.96-.52-2-1.58-2-.72 0-1.46.52-1.94.98-1.16 1.12-2.32 3.28-2.32 5.12 0 1.76 1.22 3.14 3.06 3.14.92 0 1.86-.38 2.52-1.12.28-.32.04-.84-.34-.84-.08 0-.16.02-.24.08-.58.34-1.28.64-1.92.64-.6 0-1.16-.26-1.54-.94-.22-.38-.28-.86-.22-1.36.2.06.4.08.62.08 1.78 0 3.9-1.94 3.9-3.78zm-1.88-.86c1.14-.18.92.86.72 1.44-.34 1.08-1.9 2.3-3.12 1.98.24-.88 1-2.26 1.66-2.86.18-.18.46-.5.74-.56z" aria-label="ActivatedRoute" font-size="20" text-anchor="middle" font-family="SS Soapy Hands"/>
    <path pointer-events="all" fill="#fff" d="M293.31 288.44l108.1 2.19-2.29 40.69-108.57-3.86 2.04-36.77-.91-1.15"/>
    <path pointer-events="all" stroke-miterlimit="10" stroke-linecap="round" stroke-linejoin="round" stroke="#000" fill="none" d="M293.4 289.13c31.47.09 62.5.08 106.27.63m-107.26.01c35.05-.36 67.24-1.41 106.57.13m-.38.1c.01-1.55.55 1.3.83 3.88m-.95-4.44c.46-.66 3.38-.58.69 1.11m3.63 2.81c-.39 7.54-2.89 19.6-.22 36.02m-1.84-37.36c.39 13.62.94 26.79 1.23 35.95m-.97-.37c-.03 2.91-.25 1.94-1.16 1.78m1.88-1.22c.16 2.54.08-.45-1.42 3.55m-3.38-2.24c-34.16-1.02-71.43-.4-105.4 1.64m106.33-2.07c-36.36 1.5-75.22.53-103.55 1.92m-.9-.96c-.92-1.01-1.6-2.52-.53-3.18m-.69 2.13c1.36 2.56.81-.18-.01-.28m.06-2.09c-3.15-11.26-.39-22.42-.37-32.83m-.85 32.95c.6-9.79 1.11-23.38-.99-34.81m.98.51c.6-3.33.7-3.09 4.37-.97m-5.9-.46c1.42-2.39 1.69-.86 3.2-1.56"/>
    <path d="M309.75 316.6c0-1.96 0-4.06.02-5.74.02-1.14 0-2.3 0-3.44 0-1 .12-1.52-.1-2.58-.04-.16-.2-.24-.34-.24-.16 0-.32.08-.36.2-.36 1.1-.32 1.28-.36 2.4-.04 1.14-.02 2.52-.04 3.68-.06 2.28-.12 4.58-.16 6.88v.08c0 .44.06.66.28.66.12 0 .3-.08.52-.22 1.56-.92 3.2-1.74 4.8-2.62.16-.1.24-.22.24-.34 0-.32-.5-.6-.92-.48-1.2.42-2.54 1.24-3.58 1.76zm8.44-7.46c-2.34 0-3.12 2.58-3.12 4.5 0 .24.12.42.28.5-.08 1.68.18 3.42 1.66 4.22.36.2.72.28 1.06.28 2.16 0 3.6-3.42 3.6-5.38 0-2.12-1.18-4.12-3.48-4.12zm-1.12 7.76c-.98-1.1-.88-2.94-.68-4.4.22-1.08.72-2.16 1.8-2.16.2 0 .44.04.68.12 1.68.58 1.78 2.64 1.38 4.08-.24.88-1.18 2.84-2.28 2.84-.3 0-.6-.14-.9-.48zm11.763-6.66a.472.472 0 00-.12-.18c-.56-.58-1.26-.82-1.98-.82-1.1 0-2.22.6-2.94 1.54-.78 1.06-1.32 2.6-1.32 4.04 0 .62.12 1.24.34 1.78.84 2.02 3.24 2.18 4.54.54.22-.28.4-.56.56-.88 0 .2 0 .38.02.56 0 .94.14 2-.06 2.92-.34 1.52-2.34.52-3.3.14-.62-.24-.86.66-.42.98.74.56 1.82 1.08 2.82 1.08.26 0 .52-.04.76-.12 1.08-.36 1.44-1.5 1.48-2.52.02-.6.04-1.2.04-1.8 0-2.26-.14-4.54-.16-6.78 0-.24-.12-.4-.26-.48zm-2.66 6.36c-.74.76-1.78.46-2.22-.5-.54-1.18-.18-2.72.32-3.86.56-1.28 2.28-2.76 3.62-1.64-.02.04-.02.08-.02.12.02 1.32-.18 2.68-.62 3.92-.24.7-.56 1.44-1.08 1.96zm4.197-7c-.16 1.54-.28 3.14-.28 4.72 0 1.28.08 2.54.28 3.78.06.26.28.4.5.4.3 0 .6-.2.6-.56-.04-2.8-.26-5.54-.06-8.34.04-.66-.96-.64-1.04 0zm1.04-3.54c-.06-.04-.1-.08-.14-.12a.827.827 0 00-.38-.1h-.02c-.08 0-.18.02-.26.06-.08.04-.16.08-.24.16a.48.48 0 00-.14.24c-.04.08-.06.18-.06.28 0 .06.02.12.02.18.04.14.1.24.18.34.06.02.1.06.16.1.1.08.24.1.36.1.1 0 .2-.02.28-.06.1-.02.18-.08.24-.14a.75.75 0 00.14-.24c.06-.08.08-.16.08-.26v-.02c-.02-.06-.02-.14-.04-.2-.02-.12-.1-.22-.18-.32zm4.717 3.3c-1.34.08-2.08 2.08-2.34 3.18-.02.04-.02.08-.04.14-.06-.7-.1-1.38-.12-2.06 0-.3-.22-.44-.44-.44-.24 0-.46.14-.46.44.04 2.56.32 5.02.98 7.52.08.26.28.38.48.38.3 0 .62-.26.58-.68-.2-1.3-.24-2.62-.1-3.92.1-.86.48-3.3 1.58-3.32 2.1-.08 1.4 6.36 1.54 7.64.02.32.32.52.58.52.2 0 .38-.12.44-.38.16-.74.22-1.52.22-2.32 0-1.22-.14-2.48-.32-3.62-.18-1.42-.94-3.08-2.58-3.08zm7.049-3.56c1.14-.34 2.08.16 2.44 1.2.1.32.94.18.96-.14 0-.02 0-.04-.02-.06-.44-1.26-1.5-1.98-2.84-1.98-.26 0-.52.02-.8.08-1.64.34-2.98 1.56-2.78 3.12.2 1.66 1.68 2.94 2.8 4.16 1 1.08 2.86 3.04 1.78 4.52-.44.62-1.38.8-2.14.6-.8-.24-1.28-.9-1.72-1.5-.24-.36-1-.08-1.02.3 0 .02.02.04.02.08.38 1.24 1.56 2.14 3 2.3.14.02.28.02.4.02 1.5 0 2.9-.88 3.1-2.28.24-1.66-.92-3.1-2.02-4.32-1.1-1.18-2.96-2.56-2.98-4.22-.02-.98.84-1.6 1.82-1.88zm10.039 5.46c0-.96-.52-2-1.58-2-.72 0-1.46.52-1.94.98-1.16 1.12-2.32 3.28-2.32 5.12 0 1.76 1.22 3.14 3.06 3.14.92 0 1.86-.38 2.52-1.12.28-.32.04-.84-.34-.84-.08 0-.16.02-.24.08-.58.34-1.28.64-1.92.64-.6 0-1.16-.26-1.54-.94-.22-.38-.28-.86-.22-1.36.2.06.4.08.62.08 1.78 0 3.9-1.94 3.9-3.78zm-1.88-.86c1.14-.18.92.86.72 1.44-.34 1.08-1.9 2.3-3.12 1.98.24-.88 1-2.26 1.66-2.86.18-.18.46-.5.74-.56zm3.901.54c-.02.02-.04.06-.04.08 0-.5.02-1.02.04-1.54.02-.34-.24-.5-.5-.52-.26 0-.54.18-.56.52-.1 1.68-.14 3.34-.14 5.02 0 1.16.02 2.3.06 3.46 0 .36.28.54.58.54.28 0 .56-.18.54-.54-.02-.52-.04-1.02-.04-1.54.02-1.26.56-6.08 2.2-6.08.22 0 .46.1.74.34.12.1.24.14.34.14.28 0 .52-.24.52-.52 0-.58-.98-1.06-1.48-1.06-.9 0-1.82.8-2.26 1.7zm7.502 4.66c-.6-2.04-1.28-4.06-1.98-6.04-.2-.56-1-.4-1 .1 0 .04.02.1.02.16.8 2.74 1.58 5.48 2.36 8.22.08.3.34.44.6.46.26 0 .52-.16.58-.46.66-2.78 1.68-5.42 2.84-8.02.04-.08.06-.18.06-.26 0-.38-.34-.66-.66-.66-.16 0-.34.1-.44.32-.98 1.98-1.74 4.06-2.38 6.18zm4.585-6c-.16 1.54-.28 3.14-.28 4.72 0 1.28.08 2.54.28 3.78.06.26.28.4.5.4.3 0 .6-.2.6-.56-.04-2.8-.26-5.54-.06-8.34.04-.66-.96-.64-1.04 0zm1.04-3.54c-.06-.04-.1-.08-.14-.12a.827.827 0 00-.38-.1h-.02c-.08 0-.18.02-.26.06-.08.04-.16.08-.24.16a.48.48 0 00-.14.24c-.04.08-.06.18-.06.28 0 .06.02.12.02.18.04.14.1.24.18.34.06.02.1.06.16.1.1.08.24.1.36.1.1 0 .2-.02.28-.06.1-.02.18-.08.24-.14a.75.75 0 00.14-.24c.06-.08.08-.16.08-.26v-.02c-.02-.06-.02-.14-.04-.2-.02-.12-.1-.22-.18-.32zm3.777 11.14c-1.36-.14-1.28-2.26-1.08-3.22.2-.94.56-1.88 1.02-2.72.24-.42.52-1.04.94-1.3.86-.54 1.2.46 1.3 1.12.1.64 1.02.42 1.02-.18v-.08c-.16-1.1-.88-2.22-1.92-2.22-.28 0-.6.1-.94.32-1.42.9-2.3 3.16-2.64 4.74-.1.44-.16.94-.16 1.44 0 1.24.38 2.54 1.5 3.14.3.18.64.26.96.26 1.1 0 2.22-.82 2.9-1.58.5-.6-.36-1.48-.88-.88-.46.52-1.28 1.24-2.02 1.16zm9.669-5.94c0-.96-.52-2-1.58-2-.72 0-1.46.52-1.94.98-1.16 1.12-2.32 3.28-2.32 5.12 0 1.76 1.22 3.14 3.06 3.14.92 0 1.86-.38 2.52-1.12.28-.32.04-.84-.34-.84-.08 0-.16.02-.24.08-.58.34-1.28.64-1.92.64-.6 0-1.16-.26-1.54-.94-.22-.38-.28-.86-.22-1.36.2.06.4.08.62.08 1.78 0 3.9-1.94 3.9-3.78zm-1.88-.86c1.14-.18.92.86.72 1.44-.34 1.08-1.9 2.3-3.12 1.98.24-.88 1-2.26 1.66-2.86.18-.18.46-.5.74-.56z" aria-label="LoginService" font-size="20" text-anchor="middle" font-family="SS Soapy Hands"/>
    <path d="M130 50h110.58v60H130z" fill="none"/>
    <path d="M116.74 89.003c0-3.996.08-7.992.026-11.961.027-1.053.108-2.457-.135-3.564 0 .027-.027-.351-.486-.486-.08 0-.162-.027-.243-.027-1.269 0-1.16 2.835-1.242 3.753-.027 4.698-.162 9.558-.27 14.283v.216c0 .756.243 1.026.621 1.026.648 0 1.701-.81 2.35-1.161 1.673-.891 3.347-1.782 4.994-2.7.324-.135.46-.405.46-.648 0-.351-.217-.675-.595-.837-.81-.351-1.377.081-2.187.378-1.107.54-2.187 1.134-3.294 1.728zm7.168-3.915c0 .432.054.81.243 1.08.216.243.162.054.135.621 0 1.242.162 2.538.756 3.672 1.026 1.458 2.106 2.079 3.16 2.079 2.753 0 5.183-4.212 5.183-7.668a6.58 6.58 0 00-.135-1.296c-.35-2.106-1.836-3.996-3.996-4.347a4.12 4.12 0 00-.81-.081c-1.674 0-3.294 1.134-3.969 3.105-.216.675-.567 1.863-.567 2.835zm2.187.54c.081-1.458.19-3.186 1.485-4.104 1.107-.594 2.538.135 3.132 1.161a4.53 4.53 0 01.46 1.863c.296 1.674-1.918 7.506-4.078 5.184-.675-.729-1.134-2.511-.999-4.104zm17.405-4.914c-.675-.999-1.836-1.431-3.024-1.431-.675 0-1.35.135-1.944.405-2.592 1.215-3.807 4.077-4.05 6.777-.027.243-.054.486-.054.729 0 4.212 4.293 6.777 7.29 2.916.135-.297.108 0 .081.135-.054 1.188.54 3.429-.621 4.185-1.188.378-2.403-.378-3.537-.783-.81-.27-1.242.351-1.242.972.054.945 1.134 1.269 1.809 1.674.756.378 1.701.648 2.592.648.918 0 1.809-.297 2.43-1.08.783-1.242.972-2.727.972-4.266 0-1.62-.216-3.294-.135-4.806-.054-1.755-.135-3.483-.162-5.238.054-.216-.162-.702-.405-.837zm-1.755.783c-.054 2.565-.459 5.697-2.241 7.776-1.539 1.458-2.97-.486-2.889-2.295 0-2.484 2.079-7.128 5.13-5.481zm5.87-1.458c.108-1.107-1.512-1.296-1.863-.297-.324 2.322-.378 4.347-.432 6.642 0 1.215.027 2.43.189 3.645.08.702-.054 2.052.945 2.241.054.027.135.027.189.027 1.296 0 1.134-1.539 1.053-2.484-.108-3.267-.27-6.534-.081-9.774zm.297-4.104c0-.621-.432-1.242-1.242-1.242-1.647 0-1.647 2.457-.027 2.484.837 0 1.269-.621 1.269-1.242zm3.356 6.75c-.054-.486-.027-.972-.081-1.458-.081-.594-.783-.837-1.27-.594-.404.189-.485.621-.485 1.053 0 .378.054.783.08 1.053.055 1.431.19 2.835.352 4.266a64.61 64.61 0 00.567 3.159c.162.675.216 2.052 1.188 2.16 1.107 0 1.242-.999 1.026-1.89a28.979 28.979 0 01-.135-2.16c.054-1.809.108-5.535 1.728-6.588.81-.216 1.296.297 1.674 1.647.62 2.754.297 5.589.378 8.37-.027.324.432.945 1.026.945.08 0 .189 0 .27-.027.675-.135.918-1.728.918-3.672 0-2.808-.513-6.318-1-7.155-.54-1.242-1.565-2.376-2.97-2.376h-.215c-1.296-.081-2.673 1.971-3.051 3.267zm10.772 3.483a17.992 17.992 0 01-.163-3.807 25.7 25.7 0 01.27-2.079c.243-1.053.54-2.052.918-3.078.081-.216.19-.513.405-.945.162-.351.351-.675.648-.945.108-.081.243-.135.351-.189.567-.216 1.161.081 1.566.459.243.216.432.486.621.756.162.27.324.54.46.81.161.351.27.783.728.864.054.027.135.027.216.027.243-.027.432-.135.621-.297a.89.89 0 00.216-.594c-.027-.081-.027-.081-.054-.189-.08-.243-.35-.972-1.107-1.998-.486-.594-1.053-1.08-1.755-1.404a3.403 3.403 0 00-1.16-.216c-.784 0-1.54.297-2.16.81a7.69 7.69 0 00-.622.702 11.432 11.432 0 00-1.08 2.052c-.162.378-.297.756-.432 1.161a20.985 20.985 0 00-.756 3.375 21.75 21.75 0 00-.162 2.646v.189c.081 1.701.378 3.348 1.08 4.887a8.249 8.249 0 001.08 1.647c.594.621 1.215.999 2.025 1.296.405.108.81.162 1.161.162.864 0 1.485-.27 1.512-.27a4.869 4.869 0 001.593-.972c.648-.594 1.107-1.269 1.458-2.106.027-.081.054-.216.054-.378 0-.216-.08-.513-.405-.756-.27-.189-.567-.297-.89-.27a1.092 1.092 0 00-.81.459 1.206 1.206 0 00-.082.189 3.764 3.764 0 01-.864 1.296c-.35.351-.756.621-1.269.729-1.16.162-2.025-.891-2.51-1.836a8.406 8.406 0 01-.595-1.755c-.054-.135-.08-.297-.108-.432zm8.644-1.08c0 .432.054.81.243 1.08.216.243.162.054.135.621 0 1.242.162 2.538.756 3.672 1.026 1.458 2.106 2.079 3.159 2.079 2.754 0 5.184-4.212 5.184-7.668a6.58 6.58 0 00-.135-1.296c-.351-2.106-1.836-3.996-3.996-4.347a4.12 4.12 0 00-.81-.081c-1.674 0-3.294 1.134-3.97 3.105-.215.675-.566 1.863-.566 2.835zm2.187.54c.08-1.458.189-3.186 1.485-4.104 1.107-.594 2.538.135 3.132 1.161.297.594.432 1.215.459 1.863.297 1.674-1.917 7.506-4.077 5.184-.675-.729-1.134-2.511-1-4.104zm15.433-3.537c-.513-1.809-1.62-2.862-2.754-2.862-.945 0-1.89.702-2.51 2.268 0-.891-.622-1.593-1.459-.972-.27.216-.35.513-.35.837 0 .432.161.891.215 1.269.19 1.377.378 2.781.567 4.158.135 1.026.27 2.079.405 3.105.108.81-.027 1.971.891 2.322 2.052.459 1.08-2.133 1.08-3.213-.135-2.457-.35-5.184.864-7.371.972-.972 1.134 1.755 1.485 2.673.432 1.026.297 4.023 1.485 4.185 1 .162 1.458-.675 1.296-1.593.027-.81.108-1.593.27-2.403.108-.999 1.323-4.32 2.241-1.971.243 1.269.27 1.782.378 3.24.081 1.89-.027 3.753-.08 5.643a.948.948 0 00.566.918c.162.081.351.135.54.135.46 0 .918-.27.972-.81.216-1.431.351-2.889.351-4.32 0-1.782-.189-3.537-.594-5.211-1.026-3.591-4.67-3.375-5.859-.027zm11.556-2.646c-1.404 0-2.673.945-3.537 2.862-.297.351-.27.621-.27 1.134-.027.972-.027 1.944-.054 2.916 0 1.917-.108 3.861-.108 5.778 0 1.593.054 3.159.324 4.725.054.459.486.729.918.729a.972.972 0 00.594-.189c.999-.513.378-5.022.486-6.237 1.08 1.053 3.699 1.674 5.265.054 1.215-1.215 1.728-2.862 1.728-4.509.027-2.214-.918-4.482-2.43-5.994-.972-.837-1.971-1.269-2.916-1.269zm-1.62 7.02c-.054-1.269.08-2.538-.027-3.78.81-1.647 2.295-1.512 3.375-.216 1.269 1.755 1.62 3.645 1.269 5.589-1.134 3.942-4.428 1.269-4.617-1.593zm7.987-1.377c0 .432.054.81.243 1.08.216.243.162.054.135.621 0 1.242.162 2.538.756 3.672 1.026 1.458 2.106 2.079 3.159 2.079 2.754 0 5.184-4.212 5.184-7.668a6.58 6.58 0 00-.135-1.296c-.351-2.106-1.836-3.996-3.996-4.347a4.12 4.12 0 00-.81-.081c-1.674 0-3.294 1.134-3.97 3.105-.215.675-.566 1.863-.566 2.835zm2.187.54c.08-1.458.189-3.186 1.485-4.104 1.107-.594 2.538.135 3.132 1.161.297.594.432 1.215.459 1.863.297 1.674-1.917 7.506-4.077 5.184-.675-.729-1.134-2.511-1-4.104zm10.196-2.943c-.055-.486-.028-.972-.082-1.458-.08-.594-.783-.837-1.269-.594-.405.189-.486.621-.486 1.053 0 .378.054.783.081 1.053.054 1.431.19 2.835.351 4.266a64.61 64.61 0 00.567 3.159c.162.675.216 2.052 1.188 2.16 1.107 0 1.242-.999 1.026-1.89a28.979 28.979 0 01-.135-2.16c.054-1.809.108-5.535 1.728-6.588.81-.216 1.296.297 1.674 1.647.621 2.754.297 5.589.378 8.37-.027.324.432.945 1.026.945.081 0 .19 0 .27-.027.675-.135.918-1.728.918-3.672 0-2.808-.513-6.318-.999-7.155-.54-1.242-1.566-2.376-2.97-2.376h-.216c-1.296-.081-2.673 1.971-3.05 3.267zm16.738-.432c0-.54-.108-1.107-.35-1.674-.676-.918-1.405-1.296-2.16-1.296-2.593.027-5.293 4.59-5.698 6.939a5.61 5.61 0 00-.216 1.458c0 2.619 1.917 4.644 4.401 4.644.324 0 .675-.054 1.053-.135 1.188-.189 3.888-1.674 2.322-2.943-.864-.351-1.62.621-2.484.729-1.566.513-3.132-.675-2.97-2.376 2.89.297 6.102-2.403 6.102-5.346zm-4.347 3.024c-.513.243-1.323.162-1.323.162.567-1.431 1.404-2.943 2.7-3.942.432-.297 1.215-.135 1.107.54-.108 1.458-1.215 2.646-2.484 3.24zm7.279-2.592c-.055-.486-.028-.972-.082-1.458-.08-.594-.783-.837-1.269-.594-.405.189-.486.621-.486 1.053 0 .378.054.783.081 1.053.054 1.431.19 2.835.351 4.266a64.61 64.61 0 00.567 3.159c.162.675.216 2.052 1.188 2.16 1.107 0 1.242-.999 1.026-1.89a28.979 28.979 0 01-.135-2.16c.054-1.809.108-5.535 1.728-6.588.81-.216 1.296.297 1.674 1.647.621 2.754.297 5.589.378 8.37-.027.324.432.945 1.026.945.081 0 .19 0 .27-.027.675-.135.918-1.728.918-3.672 0-2.808-.513-6.318-.999-7.155-.54-1.242-1.566-2.376-2.97-2.376h-.216c-1.296-.081-2.673 1.971-3.05 3.267zm12.327-4.536a42.39 42.39 0 01.459-3.159c.243-.729.08-1.62-.756-1.593h-.162c-.594.135-.621.702-.73 1.215a149.719 149.719 0 00-.702 3.699c-.27.054-.702.108-1.026.162-.648.108-1.674.027-1.755.891.081 1.593 1.431 1.026 2.484.972-.243 2.997-1.35 9.666 1.377 11.556.217.216.73.378 1.243.378.486 0 .999-.135 1.296-.513.512-.648 1.08-1.674.08-2.295-.513-.243-1.215-.108-1.458.432-1.323-1.539-.675-7.452-.594-9.612.405 0 1 .027 1.431.054.891-.108 1.836.513 2.457-.621.027-.135.054-.27.054-.405 0-.594-.432-1.161-1.08-1.188a16.929 16.929 0 00-2.619.027z" aria-label="LoginComponent" font-size="27" text-anchor="middle" font-weight="bold" font-family="SS Soapy Hands"/>
    <path pointer-events="all" fill="#fff" d="M135.58 205.2l-1.74 9.04-38.27 2.5-1.24 9.92-17.43-18.42 18.37-13.73-1.62 9.25 41.83.33"/>
    <path pointer-events="all" stroke-miterlimit="10" stroke-linecap="round" stroke-linejoin="round" stroke="#000" fill="none" d="M133.79 204.99c1.45 2.46-.15 5.73-.16 10.14m.78-9.75c-.16 2.58.26 5.29.53 9.24m1.28.06c-14.74 2.34-24.29.55-40.01 0m39.12-.1c-15.99-.04-32.35 1.04-39.86.77m-.49-1.32c.45 2.21-.29 5.64-.93 12.26m.32-11.3c.1 2.63.29 5.69-.23 10.41m2.32.13c-8.67-6.2-17-9.71-20.58-16.68m19.44 16.07c-3.52-3.64-8.7-6.26-18.94-14.87m.55-.36c4.84-2.2 7.57-7.64 16.61-13.64m-18.45 13.67c6.9-5 13.86-10.75 18.87-14.79m.38-.32c.98 1.48-.58 4.73.96 9.96m-.53-10.29c.21 3.44-.55 6.37-.68 10.55m2.3.58c7.94-1.43 13.86-1.7 38.12-.42m-39.63-.89c10.15 1.33 21.05.84 39.82 1.29"/>
    <path d="M140 180h40v20h-40z" fill="none"/>
    <path d="M114.852 193.06c0 2.9.38 5.46 1.72 5.46.36 0 .7-.12.7-.56-.02-.32-.22-.64-.6-.64-.28 0-.48-2.68-.48-2.98-.06-1.06-.06-2.14-.06-3.2 0-1.92.02-3.86.1-5.78.02-.28-.18-.4-.38-.4-.22 0-.44.14-.46.4-.08.94-.54 4.52-.54 7.7zm5.991-3.92c-2.34 0-3.12 2.58-3.12 4.5 0 .24.12.42.28.5-.08 1.68.18 3.42 1.66 4.22.36.2.72.28 1.06.28 2.16 0 3.6-3.42 3.6-5.38 0-2.12-1.18-4.12-3.48-4.12zm-1.12 7.76c-.98-1.1-.88-2.94-.68-4.4.22-1.08.72-2.16 1.8-2.16.2 0 .44.04.68.12 1.68.58 1.78 2.64 1.38 4.08-.24.88-1.18 2.84-2.28 2.84-.3 0-.6-.14-.9-.48zm11.762-6.66a.472.472 0 00-.12-.18c-.56-.58-1.26-.82-1.98-.82-1.1 0-2.22.6-2.94 1.54-.78 1.06-1.32 2.6-1.32 4.04 0 .62.12 1.24.34 1.78.84 2.02 3.24 2.18 4.54.54.22-.28.4-.56.56-.88 0 .2 0 .38.02.56 0 .94.14 2-.06 2.92-.34 1.52-2.34.52-3.3.14-.62-.24-.86.66-.42.98.74.56 1.82 1.08 2.82 1.08.26 0 .52-.04.76-.12 1.08-.36 1.44-1.5 1.48-2.52.02-.6.04-1.2.04-1.8 0-2.26-.14-4.54-.16-6.78 0-.24-.12-.4-.26-.48zm-2.66 6.36c-.74.76-1.78.46-2.22-.5-.54-1.18-.18-2.72.32-3.86.56-1.28 2.28-2.76 3.62-1.64-.02.04-.02.08-.02.12.02 1.32-.18 2.68-.62 3.92-.24.7-.56 1.44-1.08 1.96zm4.198-7c-.16 1.54-.28 3.14-.28 4.72 0 1.28.08 2.54.28 3.78.06.26.28.4.5.4.3 0 .6-.2.6-.56-.04-2.8-.26-5.54-.06-8.34.04-.66-.96-.64-1.04 0zm1.04-3.54c-.06-.04-.1-.08-.14-.12a.827.827 0 00-.38-.1h-.02c-.08 0-.18.02-.26.06-.08.04-.16.08-.24.16a.48.48 0 00-.14.24c-.04.08-.06.18-.06.28 0 .06.02.12.02.18.04.14.1.24.18.34.06.02.1.06.16.1.1.08.24.1.36.1.1 0 .2-.02.28-.06.1-.02.18-.08.24-.14a.75.75 0 00.14-.24c.06-.08.08-.16.08-.26v-.02c-.02-.06-.02-.14-.04-.2-.02-.12-.1-.22-.18-.32zm4.716 3.3c-1.34.08-2.08 2.08-2.34 3.18-.02.04-.02.08-.04.14-.06-.7-.1-1.38-.12-2.06 0-.3-.22-.44-.44-.44-.24 0-.46.14-.46.44.04 2.56.32 5.02.98 7.52.08.26.28.38.48.38.3 0 .62-.26.58-.68-.2-1.3-.24-2.62-.1-3.92.1-.86.48-3.3 1.58-3.32 2.1-.08 1.4 6.36 1.54 7.64.02.32.32.52.58.52.2 0 .38-.12.44-.38.16-.74.22-1.52.22-2.32 0-1.22-.14-2.48-.32-3.62-.18-1.42-.94-3.08-2.58-3.08zm7.049-3.56c1.14-.34 2.08.16 2.44 1.2.1.32.94.18.96-.14 0-.02 0-.04-.02-.06-.44-1.26-1.5-1.98-2.84-1.98-.26 0-.52.02-.8.08-1.64.34-2.98 1.56-2.78 3.12.2 1.66 1.68 2.94 2.8 4.16 1 1.08 2.86 3.04 1.78 4.52-.44.62-1.38.8-2.14.6-.8-.24-1.28-.9-1.72-1.5-.24-.36-1-.08-1.02.3 0 .02.02.04.02.08.38 1.24 1.56 2.14 3 2.3.14.02.28.02.4.02 1.5 0 2.9-.88 3.1-2.28.24-1.66-.92-3.1-2.02-4.32-1.1-1.18-2.96-2.56-2.98-4.22-.02-.98.84-1.6 1.82-1.88zm10.399 4.3c.08-.66-.96-.76-1.12-.16-.34 1.26-.56 2.54-.82 3.82-.2.88-.46 3.2-1.54 3.38-.52.08-.6-.12-.86-.58-.16-.3-.28-.64-.38-.96-.18-.64-.28-1.32-.32-2-.08-1.32 0-2.68.18-4a.522.522 0 00-.52-.58c-.18 0-.34.1-.38.34-.18 1.38-.44 2.74-.44 4.12 0 .4.02.8.08 1.22.16 1.3.64 3.5 2.18 3.8.12.04.24.04.36.04 1.22 0 1.9-1.26 2.26-2.32.16.64.42 1.24.76 1.84.36.6 1.2.24 1.2-.34 0-.1-.02-.22-.08-.32-1.18-2.28-.84-4.86-.56-7.3zm3.757.48c-.36.38-.7.78-.98 1.24-.02-2.18-.02-4.34.1-6.5.02-.3-.18-.42-.4-.42-.22 0-.44.14-.48.42-.22 2-.42 4-.46 6-.02 1.24-.1 2.5-.1 3.76 0 .98.04 1.94.16 2.88.06.36.36.56.66.56.16 0 .34-.08.44-.22 1.86.64 3.44-.78 4.42-2.24.68-1.04 1.14-2.32 1.14-3.58 0-.74-.16-1.46-.52-2.14-1.02-1.82-2.84-.96-3.98.24zm-.96 6.42v-2.74c.2-.8.64-1.54 1.14-2.2.38-.52.82-1 1.36-1.36.92-.62 1.52.14 1.68 1.02.4 1.98-1.54 6.02-4.02 5.32-.06-.02-.1-.04-.16-.04zm14.736-7.06c-.9-.9-2.12-.56-2.78.44-.26.4-.48.88-.64 1.36-.42-1.32-1.04-2.52-1.96-2.52-.26 0-.54.08-.86.3-.64.44-.96 1.28-1.16 2.1-.06-.42-.12-.84-.18-1.28-.08-.54-.88-.34-.88.16 0 .04.02.06.02.08.36 2.46.68 4.92 1 7.4.08.68 1.18.7 1.1 0-.24-2.1-.52-4.34.12-6.4.06-.22.12-.56.26-.74.14-.18.48-.48.74-.36.36.16.54 1.14.64 1.5.28 1.1.5 2.2.72 3.32.12.66 1.18.5 1.16-.16-.04-1.26.14-2.58.68-3.74.28-.56.74-1.06 1.3-.48.34.36.36 1.22.42 1.68.28 1.84.1 3.62.06 5.46-.02.36.32.58.62.58.26 0 .48-.12.52-.42.16-1.04.26-2.06.26-3.1 0-.38-.02-.76-.04-1.14-.12-1.28-.16-3.1-1.12-4.04zm2.27-.34c-.16 1.54-.28 3.14-.28 4.72 0 1.28.08 2.54.28 3.78.06.26.28.4.5.4.3 0 .6-.2.6-.56-.04-2.8-.26-5.54-.06-8.34.04-.66-.96-.64-1.04 0zm1.04-3.54c-.06-.04-.1-.08-.14-.12a.827.827 0 00-.38-.1h-.02c-.08 0-.18.02-.26.06-.08.04-.16.08-.24.16a.48.48 0 00-.14.24c-.04.08-.06.18-.06.28 0 .06.02.12.02.18.04.14.1.24.18.34.06.02.1.06.16.1.1.08.24.1.36.1.1 0 .2-.02.28-.06.1-.02.18-.08.24-.14a.75.75 0 00.14-.24c.06-.08.08-.16.08-.26v-.02c-.02-.06-.02-.14-.04-.2-.02-.12-.1-.22-.18-.32zm4.083 2.34c.12-1 .28-2.02.46-3 .06-.32-.2-.54-.46-.54-.16 0-.32.1-.36.32-.24 1.12-.46 2.22-.62 3.32l-1.68.24c-.26.04-.38.22-.38.42 0 .3.26.64.66.58.4-.08.82-.1 1.22-.14-.22 1.7-.34 3.42-.3 5.18.02 1.2.14 2.66 1.22 3.42.26.2.54.28.8.28.62 0 1.12-.48 1.22-1.22.04-.36-.28-.58-.6-.58-.26 0-.5.14-.56.42 0 .06-.04.08-.06.08-.12 0-.38-.32-.4-.34-.14-.22-.22-.52-.28-.76-.1-.48-.12-.98-.14-1.48-.04-1.02-.04-2.06 0-3.08.04-.64.08-1.3.14-1.94.76 0 1.52.04 2.28.08.42.02.62-.28.62-.6 0-.32-.2-.66-.62-.68-.72-.06-1.44-.04-2.16.02zm6.211 0c.12-1 .28-2.02.46-3 .06-.32-.2-.54-.46-.54-.16 0-.32.1-.36.32-.24 1.12-.46 2.22-.62 3.32l-1.68.24c-.26.04-.38.22-.38.42 0 .3.26.64.66.58.4-.08.82-.1 1.22-.14-.22 1.7-.34 3.42-.3 5.18.02 1.2.14 2.66 1.22 3.42.26.2.54.28.8.28.62 0 1.12-.48 1.22-1.22.04-.36-.28-.58-.6-.58-.26 0-.5.14-.56.42 0 .06-.04.08-.06.08-.12 0-.38-.32-.4-.34-.14-.22-.22-.52-.28-.76-.1-.48-.12-.98-.14-1.48-.04-1.02-.04-2.06 0-3.08.04-.64.08-1.3.14-1.94.76 0 1.52.04 2.28.08.42.02.62-.28.62-.6 0-.32-.2-.66-.62-.68-.72-.06-1.44-.04-2.16.02zm8.035 2.86c0-.96-.52-2-1.58-2-.72 0-1.46.52-1.94.98-1.16 1.12-2.32 3.28-2.32 5.12 0 1.76 1.22 3.14 3.06 3.14.92 0 1.86-.38 2.52-1.12.28-.32.04-.84-.34-.84-.08 0-.16.02-.24.08-.58.34-1.28.64-1.92.64-.6 0-1.16-.26-1.54-.94-.22-.38-.28-.86-.22-1.36.2.06.4.08.62.08 1.78 0 3.9-1.94 3.9-3.78zm-1.88-.86c1.14-.18.92.86.72 1.44-.34 1.08-1.9 2.3-3.12 1.98.24-.88 1-2.26 1.66-2.86.18-.18.46-.5.74-.56zm8.461-.8c-3-1.12-5.8 2.68-5.8 5.84 0 .72.16 1.42.48 2 1.04 1.9 2.96.9 4.08-.36.24-.24.44-.5.64-.78-.04.72-.04 1.44.18 2.06.08.24.28.36.48.36.2 0 .42-.14.5-.36.38-.94.22-2.18.26-3.18l.12-3.24c.08-2.2.2-4.4.44-6.6v-.04c0-.26-.2-.38-.4-.38-.22 0-.46.14-.48.42-.16 1.42-.34 2.84-.5 4.26zm-4.54 6.64c-.6-2.4 1.48-6.34 4.26-5.38.04.02.08.02.12.02-.04.28-.06.56-.1.86v.02c0 .06 0 .12-.02.18-.06.58-.1 1.16-.14 1.72-.16.56-.44 1.08-.78 1.6-.42.64-.92 1.28-1.56 1.74-.86.62-1.52.22-1.78-.76z" aria-label="loginSubmitted" font-size="20" text-anchor="middle" font-family="SS Soapy Hands"/>
    <path pointer-events="all" fill="#fff" d="M422.82 289.53l133.34 1.79 4.29-.81-2.19 37.14-.21.93-133.96-.1-3.38-2.84-2.54-32.08 2.79-2.06"/>
    <path pointer-events="all" stroke-miterlimit="10" stroke-linecap="round" stroke-linejoin="round" stroke="#000" fill="none" d="M421.54 291.72c44.3-.02 88.65-1.87 137.14-1.84m-136.07.65c48.42-.53 95.05-.89 135.09-.91m-.1.38c1.66 1.89 1.81 1.4 2.3 2.12m-3.8-3.7c1.3 3.07 1.98 1.65 5.71 6.09m-2.76-2.39c.29 9.24 1.43 21 .46 36.95m1.1-37.35c-.26 13.81.05 28.89.37 36.42m-.98-.54c-1.07 1.36-2.75.94-2.73.8m1.62-2.65c-.84 3.62-.47 4.75-.41 4.36m-2.03-1.44c-32.41 2.75-61.84 3.39-132.27.24m133.94 1.4c-45.57-.33-93.3-.85-136.05.69m.33-1c-.33.97-.8 1.02-1.42-1.22m2.06 1.66c-2.83-.75-2.9-1.06-2.71-.67m1.05-1.14c-2.27-14.41-.83-24.2-.5-37.24m-1.26 35.78c.11-11.58 1.42-26.11.92-35.64m-.54.87c-1.66-1.34-.12-2.5 2.71-1.35m-1.15-.18c-3.46-.48-2.04.12 2.83.38"/>
    <path d="M428.59 316.88c-.02-.96-.02-1.94-.02-2.9.56-.22 1.1-.46 1.66-.7.32-.14.66-.26.98-.4.36-.16.9-.28.9-.78v-.04h-.02c0-.16-.1-.32-.28-.42-.46-.28-.94.04-1.32.22-.32.14-.64.3-.96.44-.32.14-.64.28-.96.44 0-.38 0-.74.02-1.1.02-1.04 0-2.08.02-3.12.02-.48.02-.96.04-1.46 0-.22.02-.44.02-.68.24-.1.38-.16.62-.24.26-.08.5-.16.76-.22s.5-.12.76-.16c.34-.06.66-.08.9-.3.22-.2.14-.56-.14-.7-.18-.1-.36-.12-.54-.12-.18 0-.38.04-.56.06-.28.04-.56.1-.84.18-.6.16-1.18.36-1.72.6-.26.12-.34.5-.16.74.02.02.06.04.08.06-.04.16-.06.32-.08.48-.1.54-.12 1.12-.16 1.66-.08 1.04-.08 2.12-.12 3.16-.04.98-.06 1.94-.06 2.92 0 1.16.02 2.34.08 3.5.02.36.24.5.48.5.12 0 .26-.02.36-.08 1.1-.54 2.14-1.1 3.16-1.74.7-.44-.16-1.42-.78-1.02-.7.44-1.4.84-2.12 1.22zm5.587-5.94c-.02.02-.04.06-.04.08 0-.5.02-1.02.04-1.54.02-.34-.24-.5-.5-.52-.26 0-.54.18-.56.52-.1 1.68-.14 3.34-.14 5.02 0 1.16.02 2.3.06 3.46 0 .36.28.54.58.54.28 0 .56-.18.54-.54-.02-.52-.04-1.02-.04-1.54.02-1.26.56-6.08 2.2-6.08.22 0 .46.1.74.34.12.1.24.14.34.14.28 0 .52-.24.52-.52 0-.58-.98-1.06-1.48-1.06-.9 0-1.82.8-2.26 1.7zm5.743 0c-.02.02-.04.06-.04.08 0-.5.02-1.02.04-1.54.02-.34-.24-.5-.5-.52-.26 0-.54.18-.56.52-.1 1.68-.14 3.34-.14 5.02 0 1.16.02 2.3.06 3.46 0 .36.28.54.58.54.28 0 .56-.18.54-.54-.02-.52-.04-1.02-.04-1.54.02-1.26.56-6.08 2.2-6.08.22 0 .46.1.74.34.12.1.24.14.34.14.28 0 .52-.24.52-.52 0-.58-.98-1.06-1.48-1.06-.9 0-1.82.8-2.26 1.7zm7.134-1.8c-2.34 0-3.12 2.58-3.12 4.5 0 .24.12.42.28.5-.08 1.68.18 3.42 1.66 4.22.36.2.72.28 1.06.28 2.16 0 3.6-3.42 3.6-5.38 0-2.12-1.18-4.12-3.48-4.12zm-1.12 7.76c-.98-1.1-.88-2.94-.68-4.4.22-1.08.72-2.16 1.8-2.16.2 0 .44.04.68.12 1.68.58 1.78 2.64 1.38 4.08-.24.88-1.18 2.84-2.28 2.84-.3 0-.6-.14-.9-.48zm6.602-5.96c-.02.02-.04.06-.04.08 0-.5.02-1.02.04-1.54.02-.34-.24-.5-.5-.52-.26 0-.54.18-.56.52-.1 1.68-.14 3.34-.14 5.02 0 1.16.02 2.3.06 3.46 0 .36.28.54.58.54.28 0 .56-.18.54-.54-.02-.52-.04-1.02-.04-1.54.02-1.26.56-6.08 2.2-6.08.22 0 .46.1.74.34.12.1.24.14.34.14.28 0 .52-.24.52-.52 0-.58-.98-1.06-1.48-1.06-.9 0-1.82.8-2.26 1.7zm11.683-5.46c-.02-.38-.38-.6-.72-.6-.26 0-.52.12-.58.42-.66 2.78-1.38 4.76-2.06 7.54-.02-.06-.06-.12-.08-.16-.3-.72-.62-1.44-.88-2.18a27.24 27.24 0 01-1.14-4.16c-.12-.62-1.2-.52-1.24.08-.24 3.62-.36 7.22-.46 10.82-.02.56.94.6.96.06.06-2.14.18-5.2.34-7.34.06.16.32.98.38 1.14.18.44.26.64.64 1.42.28.6.56 1.36 1.2 1.7.5.26 1.16.08 1.3-.5.42-1.84.9-3.66 1.3-5.5.22 2.9.5 6.98.9 9.84.06.3.28.44.54.44.32 0 .68-.24.68-.62-.06-2.3-.36-4.58-.6-6.88-.22-2.12-.36-3.4-.48-5.52zm7.703 5.78c0-.96-.52-2-1.58-2-.72 0-1.46.52-1.94.98-1.16 1.12-2.32 3.28-2.32 5.12 0 1.76 1.22 3.14 3.06 3.14.92 0 1.86-.38 2.52-1.12.28-.32.04-.84-.34-.84-.08 0-.16.02-.24.08-.58.34-1.28.64-1.92.64-.6 0-1.16-.26-1.54-.94-.22-.38-.28-.86-.22-1.36.2.06.4.08.62.08 1.78 0 3.9-1.94 3.9-3.78zm-1.88-.86c1.14-.18.92.86.72 1.44-.34 1.08-1.9 2.3-3.12 1.98.24-.88 1-2.26 1.66-2.86.18-.18.46-.5.74-.56zm5.021 2.7c-.3-.24-.76-.54-.98-.88-.48-.78.1-1.24.7-1.6.46-.28 1.18-.56 1.82-.56.46 0 .9.16 1.16.6.1.18.26.26.42.26.34 0 .68-.38.46-.76-.44-.8-1.32-1.14-2.26-1.14-1.72 0-3.66 1.12-3.66 2.72v.16c.14 1.38 2.02 2.48 3.06 3.16.52.34 2.06 1.06 1.72 1.88-.12.32-.36.44-.64.44-.72 0-1.76-.76-2.08-1.04a.561.561 0 00-.38-.14c-.36 0-.7.38-.48.8.52.94 1.72 1.6 2.84 1.6 1.1 0 1.98-.68 1.98-1.86 0-.24-.06-.5-.16-.74-.56-1.38-2.42-2-3.52-2.9zm6.836 0c-.3-.24-.76-.54-.98-.88-.48-.78.1-1.24.7-1.6.46-.28 1.18-.56 1.82-.56.46 0 .9.16 1.16.6.1.18.26.26.42.26.34 0 .68-.38.46-.76-.44-.8-1.32-1.14-2.26-1.14-1.72 0-3.66 1.12-3.66 2.72v.16c.14 1.38 2.02 2.48 3.06 3.16.52.34 2.06 1.06 1.72 1.88-.12.32-.36.44-.64.44-.72 0-1.76-.76-2.08-1.04a.561.561 0 00-.38-.14c-.36 0-.7.38-.48.8.52.94 1.72 1.6 2.84 1.6 1.1 0 1.98-.68 1.98-1.86 0-.24-.06-.5-.16-.74-.56-1.38-2.42-2-3.52-2.9zm11.076.32c-.08-1.16-.14-2.56-.68-3.6-.28-.52-.64-.76-1.04-.76-.88 0-3.16 1.54-3.84 2.04-.4.32-.16.92.24.92.08 0 .16-.02.26-.08.7-.52 1.44-.96 2.24-1.32.2-.1.6-.4.84-.4.52 0 .58 1.08.64 1.48.1.68.16 1.36.2 2.06-.46-.46-1.1-.82-1.78-.82-1.92 0-3.64 2.12-3.64 3.98 0 1.26.8 1.92 1.98 1.92.94 0 2.66-.58 3.58-.94.02.4.36.6.68.6.5 0 .6-.34.6-.76l-.02-.26v-.14l.26-.12c.2-.1.28-.28.28-.46 0-.34-.26-.68-.6-.62a7.75 7.75 0 01-.04-.68l-.12-1.36c0-.22-.02-.46-.04-.68zm-4.98 3.94c-.48-.3-.38-.48-.26-.98.22-1.02 1.18-2.18 2.28-2.18 1.12 0 1.68 1.54 1.82 2.44-.58.22-2.58.9-3.18.9-.22 0-.44-.04-.66-.18zm12.944-7.12a.472.472 0 00-.12-.18c-.56-.58-1.26-.82-1.98-.82-1.1 0-2.22.6-2.94 1.54-.78 1.06-1.32 2.6-1.32 4.04 0 .62.12 1.24.34 1.78.84 2.02 3.24 2.18 4.54.54.22-.28.4-.56.56-.88 0 .2 0 .38.02.56 0 .94.14 2-.06 2.92-.34 1.52-2.34.52-3.3.14-.62-.24-.86.66-.42.98.74.56 1.82 1.08 2.82 1.08.26 0 .52-.04.76-.12 1.08-.36 1.44-1.5 1.48-2.52.02-.6.04-1.2.04-1.8 0-2.26-.14-4.54-.16-6.78 0-.24-.12-.4-.26-.48zm-2.66 6.36c-.74.76-1.78.46-2.22-.5-.54-1.18-.18-2.72.32-3.86.56-1.28 2.28-2.76 3.62-1.64-.02.04-.02.08-.02.12.02 1.32-.18 2.68-.62 3.92-.24.7-.56 1.44-1.08 1.96zm9.737-5.34c0-.96-.52-2-1.58-2-.72 0-1.46.52-1.94.98-1.16 1.12-2.32 3.28-2.32 5.12 0 1.76 1.22 3.14 3.06 3.14.92 0 1.86-.38 2.52-1.12.28-.32.04-.84-.34-.84-.08 0-.16.02-.24.08-.58.34-1.28.64-1.92.64-.6 0-1.16-.26-1.54-.94-.22-.38-.28-.86-.22-1.36.2.06.4.08.62.08 1.78 0 3.9-1.94 3.9-3.78zm-1.88-.86c1.14-.18.92.86.72 1.44-.34 1.08-1.9 2.3-3.12 1.98.24-.88 1-2.26 1.66-2.86.18-.18.46-.5.74-.56zm6.02-4.6c1.14-.34 2.08.16 2.44 1.2.1.32.94.18.96-.14 0-.02 0-.04-.02-.06-.44-1.26-1.5-1.98-2.84-1.98-.26 0-.52.02-.8.08-1.64.34-2.98 1.56-2.78 3.12.2 1.66 1.68 2.94 2.8 4.16 1 1.08 2.86 3.04 1.78 4.52-.44.62-1.38.8-2.14.6-.8-.24-1.28-.9-1.72-1.5-.24-.36-1-.08-1.02.3 0 .02.02.04.02.08.38 1.24 1.56 2.14 3 2.3.14.02.28.02.4.02 1.5 0 2.9-.88 3.1-2.28.24-1.66-.92-3.1-2.02-4.32-1.1-1.18-2.96-2.56-2.98-4.22-.02-.98.84-1.6 1.82-1.88zm10.039 5.46c0-.96-.52-2-1.58-2-.72 0-1.46.52-1.94.98-1.16 1.12-2.32 3.28-2.32 5.12 0 1.76 1.22 3.14 3.06 3.14.92 0 1.86-.38 2.52-1.12.28-.32.04-.84-.34-.84-.08 0-.16.02-.24.08-.58.34-1.28.64-1.92.64-.6 0-1.16-.26-1.54-.94-.22-.38-.28-.86-.22-1.36.2.06.4.08.62.08 1.78 0 3.9-1.94 3.9-3.78zm-1.88-.86c1.14-.18.92.86.72 1.44-.34 1.08-1.9 2.3-3.12 1.98.24-.88 1-2.26 1.66-2.86.18-.18.46-.5.74-.56zm3.901.54c-.02.02-.04.06-.04.08 0-.5.02-1.02.04-1.54.02-.34-.24-.5-.5-.52-.26 0-.54.18-.56.52-.1 1.68-.14 3.34-.14 5.02 0 1.16.02 2.3.06 3.46 0 .36.28.54.58.54.28 0 .56-.18.54-.54-.02-.52-.04-1.02-.04-1.54.02-1.26.56-6.08 2.2-6.08.22 0 .46.1.74.34.12.1.24.14.34.14.28 0 .52-.24.52-.52 0-.58-.98-1.06-1.48-1.06-.9 0-1.82.8-2.26 1.7zm7.502 4.66c-.6-2.04-1.28-4.06-1.98-6.04-.2-.56-1-.4-1 .1 0 .04.02.1.02.16.8 2.74 1.58 5.48 2.36 8.22.08.3.34.44.6.46.26 0 .52-.16.58-.46.66-2.78 1.68-5.42 2.84-8.02.04-.08.06-.18.06-.26 0-.38-.34-.66-.66-.66-.16 0-.34.1-.44.32-.98 1.98-1.74 4.06-2.38 6.18zm4.586-6c-.16 1.54-.28 3.14-.28 4.72 0 1.28.08 2.54.28 3.78.06.26.28.4.5.4.3 0 .6-.2.6-.56-.04-2.8-.26-5.54-.06-8.34.04-.66-.96-.64-1.04 0zm1.04-3.54c-.06-.04-.1-.08-.14-.12a.827.827 0 00-.38-.1h-.02c-.08 0-.18.02-.26.06-.08.04-.16.08-.24.16a.48.48 0 00-.14.24c-.04.08-.06.18-.06.28 0 .06.02.12.02.18.04.14.1.24.18.34.06.02.1.06.16.1.1.08.24.1.36.1.1 0 .2-.02.28-.06.1-.02.18-.08.24-.14a.75.75 0 00.14-.24c.06-.08.08-.16.08-.26v-.02c-.02-.06-.02-.14-.04-.2-.02-.12-.1-.22-.18-.32zm3.776 11.14c-1.36-.14-1.28-2.26-1.08-3.22.2-.94.56-1.88 1.02-2.72.24-.42.52-1.04.94-1.3.86-.54 1.2.46 1.3 1.12.1.64 1.02.42 1.02-.18v-.08c-.16-1.1-.88-2.22-1.92-2.22-.28 0-.6.1-.94.32-1.42.9-2.3 3.16-2.64 4.74-.1.44-.16.94-.16 1.44 0 1.24.38 2.54 1.5 3.14.3.18.64.26.96.26 1.1 0 2.22-.82 2.9-1.58.5-.6-.36-1.48-.88-.88-.46.52-1.28 1.24-2.02 1.16zm9.67-5.94c0-.96-.52-2-1.58-2-.72 0-1.46.52-1.94.98-1.16 1.12-2.32 3.28-2.32 5.12 0 1.76 1.22 3.14 3.06 3.14.92 0 1.86-.38 2.52-1.12.28-.32.04-.84-.34-.84-.08 0-.16.02-.24.08-.58.34-1.28.64-1.92.64-.6 0-1.16-.26-1.54-.94-.22-.38-.28-.86-.22-1.36.2.06.4.08.62.08 1.78 0 3.9-1.94 3.9-3.78zm-1.88-.86c1.14-.18.92.86.72 1.44-.34 1.08-1.9 2.3-3.12 1.98.24-.88 1-2.26 1.66-2.86.18-.18.46-.5.74-.56z" aria-label="ErrorMessageService" font-size="20" text-anchor="middle" font-family="SS Soapy Hands"/>
    <path opacity=".25" pointer-events="all" d="M301.88 81.1l248.44-1.24.38 157.27-247.09-.53"/>
    <path pointer-events="all" fill="#fff" d="M299.88 78.1l248.44-1.24.38 157.27-247.09-.53"/>
    <path opacity=".25" pointer-events="all" stroke-miterlimit="10" stroke-linecap="round" stroke-linejoin="round" stroke="#000" fill="none" d="M300.95 80.93c88.27-3.38 176.41-3.04 252.38-2.17m-251.75 1.66c59.69-2.02 120.75-2.34 250.13.34m1.52-.73c-1.25 48.43-2.3 97.97-1.79 157.65m-.43-157.26c1.13 34.45.78 69.75 1.16 156.19m-1.67-.09c-93.84.83-191.07.02-248.71.94m249.82-.73c-72.43-2.16-146.06-2.37-249.79-1.13m-1.4 1.92c.64-33.45 1.76-68.1 1.96-156.45m-.83 155.06c.9-52.36 1.76-102.25-.15-155.24"/>
    <path pointer-events="all" stroke-miterlimit="10" stroke-linecap="round" stroke-linejoin="round" stroke="#eee" fill="none" d="M298.95 77.93c88.27-3.38 176.41-3.04 252.38-2.17m-251.75 1.66c59.69-2.02 120.75-2.34 250.13.34m1.52-.73c-1.25 48.43-2.3 97.97-1.79 157.65m-.43-157.26c1.13 34.45.78 69.75 1.16 156.19m-1.67-.09c-93.84.83-191.07.02-248.71.94m249.82-.73c-72.43-2.16-146.06-2.37-249.79-1.13m-1.4 1.92c.64-33.45 1.76-68.1 1.96-156.45m-.83 155.06c.9-52.36 1.76-102.25-.15-155.24"/>
    <path d="M300 185h250v48H300z" fill="none"/>
    <path d="M318.732 211.946c0-2.072.042-4.144.014-6.202.014-.546.056-1.274-.07-1.848 0 .014-.014-.182-.252-.252-.042 0-.084-.014-.126-.014-.658 0-.602 1.47-.644 1.946-.014 2.436-.084 4.956-.14 7.406v.112c0 .392.126.532.322.532.336 0 .882-.42 1.218-.602.868-.462 1.736-.924 2.59-1.4a.363.363 0 00.238-.336.476.476 0 00-.308-.434c-.42-.182-.714.042-1.134.196-.574.28-1.134.588-1.708.896zm3.773-4.452a18.758 18.758 0 00-.056 1.554c0 1.218.14 2.436.686 3.5.308.588.91 1.106 1.624 1.106.224 0 .462-.056.7-.182 1.26-.812 1.862-3.164 1.862-5.292 0-1.288-.224-2.506-.658-3.248-.322-.574-1.064-1.092-1.82-1.092-.392 0-.798.126-1.162.462-.826.84-1.12 2.072-1.176 3.192zm1.148-.476c.014-.616.504-2.128 1.26-2.114 1.092.378 1.204 1.722 1.302 2.716.014.224.07.868-.056 1.932-.14.686-.448 3.15-1.372 3.024-1.484-.448-1.19-4.284-1.134-5.558zm5.947 2.814c-.435.322-.015.952.447.924.336-.014.308-.154.518-.364.238-.238.504-.448.812-.616-.308.84-.742 1.722-1.288 2.478-.266.42-.588-.28-.644-.532-.266-.784-.42-1.918-.434-2.758-.014-.784-.028-3.92.994-3.962.574.224.714.952.77 1.512.07.336.49.434.756.238.602-.448-.21-2.212-.7-2.576-.322-.224-.63-.322-.91-.322-.952 0-1.666 1.022-1.82 2.044-.154.826-.224 1.68-.238 2.52 0 1.162.154 2.324.462 3.458.126.504.378 1.274.868 1.61.224.126.434.182.63.182 1.358 0 2.128-2.646 2.52-3.682.126-.364.224-.742.336-1.12 0-.028.014-.07.014-.098a.614.614 0 00-.098-.266c-.42-.364-.812-.042-1.484.224a4.902 4.902 0 00-1.512 1.106zm5.102 2.716c0-1.246-.154-2.646-.182-3.864-.014-.28 0-1.876.014-2.422.014-.686.042-1.358.07-2.03.028-.294-.224-.49-.49-.49a.443.443 0 00-.224.056c-.42.266-.238.504-.35 1.484-.042 1.442-.126 2.884-.126 4.326 0 1.232.056 2.45.238 3.668.042.252.252.378.476.378.252 0 .532-.168.56-.504 0-.196.014-.392.014-.602zm4.043-1.792a49.26 49.26 0 01-1.988-4.788c-.14-.392-.182-1.162-.728-1.232-.294-.028-.63.14-.658.462-.028.574-.042.7-.042.882-.028.462-.028.938-.028 1.414 0 1.19.056 2.38.168 3.57.056.574.154 1.148.252 1.722.07.322.378.42.448.434.308.07.672-.084.728-.42-.028-.728-.182-1.456-.252-2.17a26.318 26.318 0 01-.196-2.338c.35.826.7 1.652 1.078 2.464.294.602.588 1.204.896 1.792.21.378.364.994.868 1.092h.098c.28.014.546-.21.518-.504-.21-2.52-.196-5.04.042-7.546.014-.154.182-.658.182-1.106 0-.28-.07-.546-.308-.658a.654.654 0 00-.238-.042c-.196 0-.392.098-.462.308-.294 1.988-.42 4.55-.378 6.664z" aria-label="LOGIN" font-size="14" font-weight="bold" font-family="SS Soapy Hands" fill="#444"/>
    <path d="M320 117h157.89v19.83H320z" fill="none"/>
    <path d="M322.444 132.124c-.016-.768-.016-1.552-.016-2.32.448-.176.88-.368 1.328-.56.256-.112.528-.208.784-.32.288-.128.72-.224.72-.624v-.032h-.016c0-.128-.08-.256-.224-.336-.368-.224-.752.032-1.056.176-.256.112-.512.24-.768.352-.256.112-.512.224-.768.352 0-.304 0-.592.016-.88.016-.832 0-1.664.016-2.496.016-.384.016-.768.032-1.168 0-.176.016-.352.016-.544.192-.08.304-.128.496-.192.208-.064.4-.128.608-.176.208-.048.4-.096.608-.128.272-.048.528-.064.72-.24.176-.16.112-.448-.112-.56a.85.85 0 00-.432-.096c-.144 0-.304.032-.448.048-.224.032-.448.08-.672.144-.48.128-.944.288-1.376.48-.208.096-.272.4-.128.592.016.016.048.032.064.048-.032.128-.048.256-.064.384-.08.432-.096.896-.128 1.328-.064.832-.064 1.696-.096 2.528a56.885 56.885 0 00-.048 2.336c0 .928.016 1.872.064 2.8.016.288.192.4.384.4a.586.586 0 00.288-.064c.88-.432 1.712-.88 2.528-1.392.56-.352-.128-1.136-.624-.816-.56.352-1.12.672-1.696.976zm10.261-5.552c-.72-.72-1.696-.448-2.224.352-.208.32-.384.704-.512 1.088-.336-1.056-.832-2.016-1.568-2.016-.208 0-.432.064-.688.24-.512.352-.768 1.024-.928 1.68-.048-.336-.096-.672-.144-1.024-.064-.432-.704-.272-.704.128 0 .032.016.048.016.064.289 1.968.545 3.936.8 5.92.065.544.945.56.88 0-.191-1.68-.415-3.472.097-5.12.048-.176.096-.448.208-.592.112-.144.384-.384.592-.288.288.128.432.912.512 1.2.224.88.4 1.76.576 2.656.096.528.944.4.928-.128-.032-1.008.112-2.064.544-2.992.224-.448.592-.848 1.04-.384.272.288.288.976.336 1.344.224 1.472.08 2.896.048 4.368-.016.288.256.464.496.464.208 0 .384-.096.416-.336a16.21 16.21 0 00.208-2.48c0-.304-.016-.608-.032-.912-.096-1.024-.128-2.48-.896-3.232zm6.84 2.784c-.064-.928-.112-2.048-.544-2.88-.224-.416-.512-.608-.832-.608-.704 0-2.528 1.232-3.072 1.632-.32.256-.128.736.192.736a.387.387 0 00.208-.064 9.586 9.586 0 011.792-1.056c.16-.08.48-.32.672-.32.416 0 .464.864.512 1.184.08.544.128 1.088.16 1.648-.368-.368-.88-.656-1.424-.656-1.536 0-2.912 1.696-2.912 3.184 0 1.008.64 1.536 1.584 1.536.752 0 2.128-.464 2.864-.752.016.32.288.48.544.48.4 0 .48-.272.48-.608l-.016-.208v-.112l.208-.096a.395.395 0 00.224-.368c0-.272-.208-.544-.48-.496a6.2 6.2 0 01-.032-.544l-.096-1.088a6.2 6.2 0 00-.032-.544zm-3.984 3.152c-.384-.24-.304-.384-.208-.784.176-.816.944-1.744 1.824-1.744.896 0 1.344 1.232 1.456 1.952-.464.176-2.064.72-2.544.72a.943.943 0 01-.528-.144zm5.492-6.208c-.128 1.232-.224 2.512-.224 3.776 0 1.024.064 2.032.224 3.024.048.208.224.32.4.32.24 0 .48-.16.48-.448-.032-2.24-.208-4.432-.048-6.672.032-.528-.768-.512-.832 0zm.832-2.832a.696.696 0 01-.112-.096.662.662 0 00-.305-.08h-.016a.493.493 0 00-.208.048c-.064.032-.128.064-.192.128a.384.384 0 00-.112.192.511.511 0 00-.048.224c0 .048.016.096.016.144.032.112.08.192.144.272.048.016.08.048.128.08.08.064.192.08.288.08.08 0 .16-.016.224-.048a.384.384 0 00.192-.112c.048-.064.096-.128.112-.192a.322.322 0 00.064-.208v-.016c-.016-.048-.016-.112-.032-.16-.016-.096-.08-.176-.144-.256zm1.069 5.6c0 2.32.304 4.368 1.376 4.368.288 0 .56-.096.56-.448-.016-.256-.176-.512-.48-.512-.225 0-.385-2.144-.385-2.384-.048-.848-.048-1.712-.048-2.56 0-1.536.016-3.088.08-4.624.016-.224-.144-.32-.304-.32-.176 0-.352.112-.368.32-.064.752-.432 3.616-.432 6.16zm10.716.288c-.064-.928-.112-2.048-.544-2.88-.224-.416-.512-.608-.832-.608-.704 0-2.528 1.232-3.072 1.632-.32.256-.128.736.192.736a.387.387 0 00.208-.064 9.586 9.586 0 011.792-1.056c.16-.08.48-.32.672-.32.416 0 .464.864.512 1.184.08.544.128 1.088.16 1.648-.368-.368-.88-.656-1.424-.656-1.536 0-2.912 1.696-2.912 3.184 0 1.008.64 1.536 1.584 1.536.752 0 2.128-.464 2.864-.752.016.32.288.48.544.48.4 0 .48-.272.48-.608l-.016-.208v-.112l.208-.096a.395.395 0 00.224-.368c0-.272-.208-.544-.48-.496a6.2 6.2 0 01-.032-.544l-.096-1.088a6.2 6.2 0 00-.032-.544zm-3.984 3.152c-.384-.24-.304-.384-.208-.784.176-.816.944-1.744 1.824-1.744.896 0 1.344 1.232 1.456 1.952-.464.176-2.064.72-2.544.72a.943.943 0 01-.528-.144zm9.876-6.208c-2.4-.896-4.64 2.144-4.64 4.672 0 .576.128 1.136.384 1.6.832 1.52 2.368.72 3.264-.288.192-.192.352-.4.512-.624-.032.576-.032 1.152.144 1.648a.402.402 0 00.384.288c.16 0 .336-.112.4-.288.304-.752.176-1.744.208-2.544l.096-2.592c.064-1.76.16-3.52.352-5.28v-.032c0-.208-.16-.304-.32-.304-.176 0-.368.112-.384.336-.128 1.136-.272 2.272-.4 3.408zm-3.632 5.312c-.48-1.92 1.184-5.072 3.408-4.304.032.016.064.016.096.016-.032.224-.048.448-.08.688v.016c0 .048 0 .096-.016.144-.048.464-.08.928-.112 1.376-.128.448-.352.864-.624 1.28-.336.512-.736 1.024-1.248 1.392-.688.496-1.216.176-1.424-.608zm10.007-5.312c-2.4-.896-4.64 2.144-4.64 4.672 0 .576.128 1.136.384 1.6.832 1.52 2.368.72 3.264-.288.192-.192.352-.4.512-.624-.032.576-.032 1.152.144 1.648a.402.402 0 00.384.288c.16 0 .336-.112.4-.288.304-.752.176-1.744.208-2.544l.096-2.592c.064-1.76.16-3.52.352-5.28v-.032c0-.208-.16-.304-.32-.304-.176 0-.368.112-.384.336-.128 1.136-.272 2.272-.4 3.408zm-3.632 5.312c-.48-1.92 1.184-5.072 3.408-4.304.032.016.064.016.096.016-.032.224-.048.448-.08.688v.016c0 .048 0 .096-.016.144-.048.464-.08.928-.112 1.376-.128.448-.352.864-.624 1.28-.336.512-.736 1.024-1.248 1.392-.688.496-1.216.176-1.424-.608zm6.358-4.24a.121.121 0 00-.032.064c0-.4.017-.816.033-1.232.016-.272-.192-.4-.4-.416a.439.439 0 00-.448.416 67.294 67.294 0 00-.112 4.016c0 .928.016 1.84.048 2.768 0 .288.224.432.464.432.224 0 .448-.144.432-.432-.016-.416-.032-.816-.032-1.232.016-1.008.448-4.864 1.76-4.864.176 0 .368.08.592.272.096.08.192.112.272.112a.424.424 0 00.416-.416c0-.464-.784-.848-1.184-.848-.72 0-1.456.64-1.808 1.36zm7.197.256c0-.768-.416-1.6-1.264-1.6-.576 0-1.168.416-1.552.784-.928.896-1.856 2.624-1.856 4.096 0 1.408.976 2.512 2.448 2.512a2.71 2.71 0 002.015-.896c.224-.256.032-.672-.272-.672a.307.307 0 00-.192.064c-.464.272-1.024.512-1.536.512-.48 0-.928-.208-1.232-.752-.176-.304-.224-.688-.176-1.088.16.048.32.064.496.064 1.424 0 3.12-1.552 3.12-3.024zm-1.504-.688c.912-.144.736.688.576 1.152-.272.864-1.52 1.84-2.496 1.584.192-.704.8-1.808 1.328-2.288.144-.144.368-.4.592-.448zm4.016 2.16c-.24-.192-.608-.432-.784-.704-.384-.624.08-.992.56-1.28.368-.224.944-.448 1.456-.448.368 0 .72.128.928.48.08.144.208.208.336.208.272 0 .544-.304.368-.608-.352-.64-1.056-.912-1.808-.912-1.376 0-2.928.896-2.928 2.176v.128c.112 1.104 1.616 1.984 2.448 2.528.416.272 1.648.848 1.376 1.504a.506.506 0 01-.512.352c-.576 0-1.408-.608-1.664-.832a.449.449 0 00-.304-.112c-.288 0-.56.304-.384.64.416.752 1.376 1.28 2.272 1.28.88 0 1.584-.544 1.584-1.488 0-.192-.048-.4-.128-.592-.448-1.104-1.936-1.6-2.816-2.32zm5.468 0c-.24-.192-.607-.432-.783-.704-.384-.624.08-.992.56-1.28.368-.224.944-.448 1.456-.448.368 0 .72.128.928.48.08.144.208.208.336.208.272 0 .544-.304.368-.608-.352-.64-1.056-.912-1.808-.912-1.376 0-2.928.896-2.928 2.176v.128c.112 1.104 1.616 1.984 2.448 2.528.416.272 1.648.848 1.376 1.504a.506.506 0 01-.512.352c-.576 0-1.408-.608-1.664-.832a.449.449 0 00-.304-.112c-.288 0-.56.304-.384.64.416.752 1.376 1.28 2.272 1.28.88 0 1.584-.544 1.584-1.488 0-.192-.048-.4-.128-.592-.448-1.104-1.936-1.6-2.816-2.32z" aria-label="Email address" font-size="16" font-family="SS Soapy Hands" fill="gray"/>
    <path pointer-events="all" stroke-miterlimit="10" stroke-linecap="round" stroke-linejoin="round" stroke-opacity=".5" stroke="#ccc" fill="none" d="M320.83 135.74c49.75 2.38 96.11.11 157.25-.03m-159.04 1.12c60.51.83 119.19.53 158.95-.28"/>
    <path d="M320 156.66h157.89v19.83H320z" fill="none"/>
    <path d="M324.668 161.992c-.464 0-.912.096-1.296.272-.784.32-1.28.992-1.808 1.616-.032.048-.048.08-.048.128 0 .128.16.24.304.224-.144 1.456-.256 2.896-.256 4.368 0 .8 0 1.6.016 2.4.016.8-.096 1.136.208 1.872.064.144.176.208.304.208.208 0 .464-.16.512-.352.096-.4.016-.192 0-.592-.016-.432-.048-.848-.064-1.28l-.096-2.24c.016-.016.016-.016.032-.016.816-.256 1.488-.8 2.112-1.344.688-.624 1.344-1.344 1.696-2.224.16-.384.272-.848.272-1.296 0-.496-.144-.96-.528-1.296-.368-.32-.864-.448-1.36-.448zm-1.952 5.616c-.112.048-.112.048-.208.08.064-1.536.048-2.592.192-3.92.016-.032.128-.112.24-.224.384-.304.4-.336.736-.512.656-.336 1.648-.384 1.872.336.272.896-.384 1.904-.928 2.544-.528.656-1.184 1.264-1.904 1.696zm7.298 1.408c-.064-.928-.112-2.048-.544-2.88-.224-.416-.512-.608-.832-.608-.704 0-2.528 1.232-3.072 1.632-.32.256-.128.736.192.736a.387.387 0 00.208-.064 9.586 9.586 0 011.792-1.056c.16-.08.48-.32.672-.32.416 0 .464.864.512 1.184.08.544.128 1.088.16 1.648-.368-.368-.88-.656-1.424-.656-1.536 0-2.912 1.696-2.912 3.184 0 1.008.64 1.536 1.584 1.536.752 0 2.128-.464 2.864-.752.016.32.288.48.544.48.4 0 .48-.272.48-.608l-.016-.208v-.112l.208-.096a.395.395 0 00.224-.368c0-.272-.208-.544-.48-.496a6.2 6.2 0 01-.032-.544l-.096-1.088a6.2 6.2 0 00-.032-.544zm-3.984 3.152c-.384-.24-.304-.384-.208-.784.176-.816.944-1.744 1.824-1.744.896 0 1.344 1.232 1.456 1.952-.464.176-2.064.72-2.544.72a.943.943 0 01-.528-.144zm6.717-3.408c-.24-.192-.608-.432-.784-.704-.384-.624.08-.992.56-1.28.368-.224.944-.448 1.456-.448.368 0 .72.128.928.48.08.144.208.208.336.208.272 0 .544-.304.368-.608-.352-.64-1.056-.912-1.808-.912-1.376 0-2.928.896-2.928 2.176v.128c.112 1.104 1.616 1.984 2.448 2.528.416.272 1.648.848 1.376 1.504a.506.506 0 01-.512.352c-.576 0-1.408-.608-1.664-.832a.449.449 0 00-.304-.112c-.288 0-.56.304-.384.64.416.752 1.376 1.28 2.272 1.28.88 0 1.584-.544 1.584-1.488 0-.192-.048-.4-.128-.592-.448-1.104-1.936-1.6-2.816-2.32zm5.469 0c-.24-.192-.608-.432-.784-.704-.384-.624.08-.992.56-1.28.368-.224.944-.448 1.456-.448.368 0 .72.128.928.48.08.144.208.208.336.208.272 0 .544-.304.368-.608-.352-.64-1.056-.912-1.808-.912-1.376 0-2.928.896-2.928 2.176v.128c.112 1.104 1.616 1.984 2.448 2.528.416.272 1.648.848 1.376 1.504a.506.506 0 01-.512.352c-.576 0-1.408-.608-1.664-.832a.449.449 0 00-.304-.112c-.288 0-.56.304-.384.64.416.752 1.376 1.28 2.272 1.28.88 0 1.584-.544 1.584-1.488 0-.192-.048-.4-.128-.592-.448-1.104-1.936-1.6-2.816-2.32zm9.676-2.992c-.112-.176-.24-.24-.384-.24-.32 0-.608.352-.448.736.56 1.328.56 3.216.304 4.624-.048.256-.096.736-.288.928-.128.128-.224.176-.32.176-.304 0-.432-.544-.512-.832-.192-.704-.32-1.424-.464-2.144-.048-.24-.256-.352-.464-.352a.494.494 0 00-.48.352c-.224.8-.48 1.584-.8 2.352-.112.24-.24.512-.416.512-.336 0-.608-1.024-.656-1.28-.288-1.552.176-3.2.432-4.72.048-.304-.16-.496-.384-.496-.16 0-.304.096-.368.288-.4 1.136-.832 2.672-.832 4.112 0 .976.208 1.904.736 2.64.304.4.72.656 1.136.656.816 0 1.312-1.04 1.536-1.696.208.768.688 1.648 1.6 1.648 1.648 0 1.68-2.704 1.68-3.856-.016-1.12-.016-2.4-.608-3.408zm3.76-.176c-1.872 0-2.496 2.064-2.496 3.6 0 .192.096.336.224.4-.064 1.344.144 2.736 1.328 3.376.288.16.576.224.848.224 1.728 0 2.88-2.736 2.88-4.304 0-1.696-.944-3.296-2.784-3.296zm-.896 6.208c-.784-.88-.704-2.352-.544-3.52.176-.864.576-1.728 1.44-1.728.16 0 .352.032.544.096 1.344.464 1.424 2.112 1.104 3.264-.192.704-.944 2.272-1.824 2.272-.24 0-.48-.112-.72-.384zm5.282-4.768a.121.121 0 00-.032.064c0-.4.017-.816.033-1.232.016-.272-.192-.4-.4-.416a.439.439 0 00-.448.416 67.294 67.294 0 00-.112 4.016c0 .928.016 1.84.048 2.768 0 .288.224.432.464.432.224 0 .448-.144.432-.432-.016-.416-.032-.816-.032-1.232.016-1.008.448-4.864 1.76-4.864.176 0 .368.08.592.272.096.08.192.112.272.112a.424.424 0 00.416-.416c0-.464-.784-.848-1.184-.848-.72 0-1.456.64-1.808 1.36zm7.211-1.072c-2.4-.896-4.64 2.144-4.64 4.672 0 .576.128 1.136.384 1.6.832 1.52 2.368.72 3.264-.288.192-.192.352-.4.512-.624-.032.576-.032 1.152.144 1.648a.402.402 0 00.384.288c.16 0 .336-.112.4-.288.304-.752.176-1.744.208-2.544l.096-2.592c.064-1.76.16-3.52.352-5.28v-.032c0-.208-.16-.304-.32-.304-.176 0-.368.112-.384.336-.128 1.136-.272 2.272-.4 3.408zm-3.632 5.312c-.48-1.92 1.184-5.072 3.408-4.304.032.016.064.016.096.016-.032.224-.048.448-.08.688v.016c0 .048 0 .096-.016.144-.048.464-.08.928-.112 1.376-.128.448-.352.864-.624 1.28-.336.512-.736 1.024-1.248 1.392-.688.496-1.216.176-1.424-.608z" aria-label="Password" font-size="16" font-family="SS Soapy Hands" fill="gray"/>
    <path pointer-events="all" stroke-miterlimit="10" stroke-linecap="round" stroke-linejoin="round" stroke-opacity=".5" stroke="#ccc" fill="none" d="M321.31 176.71c43.82.76 86.02 1.31 154.96-1.14m-156.69.83c34.92 1.35 70.37.46 158.32-.36"/>
</svg>
